<svg xmlns="http://www.w3.org/2000/svg" width="37.757" height="78.811" viewBox="0 0 37.757 78.811">
  <g id="Group_4795" data-name="Group 4795" transform="translate(0 0)">
    <g id="Group_4790" data-name="Group 4790" transform="translate(0 0)">
      <path id="Path_7029" data-name="Path 7029" d="M2771.331,5812.071a3.2,3.2,0,0,0,1.24.162,48.124,48.124,0,0,1,14.375,3.618,1.108,1.108,0,0,1,.757,1.134c-.01,5.558.083,11.118-.038,16.673a28.216,28.216,0,0,1-18.507,25.662c-.021.008-.03.047-.044.072h-.647c-.051-.138-.187-.142-.3-.186a28.028,28.028,0,0,1-16.112-15.77,27.293,27.293,0,0,1-2.087-10.746q.011-7.807,0-15.613a1.08,1.08,0,0,1,.841-1.253,48.6,48.6,0,0,1,12.176-3.357c.929-.13,1.867-.192,2.8-.3.123-.013.283.075.365-.1h.74c.154.127.308.045.462,0Zm14.326,14h.007q0-4.066,0-8.132c0-.232.016-.411-.286-.531a43.379,43.379,0,0,0-33.01-.031.507.507,0,0,0-.37.573q.015,7.37.006,14.74a23.822,23.822,0,0,0,.558,5.408,26.138,26.138,0,0,0,15.885,19.045.92.92,0,0,0,.784,0,25.572,25.572,0,0,0,7.831-4.955,25.982,25.982,0,0,0,8.582-18.863C2785.717,5830.9,2785.656,5828.484,2785.656,5826.066Z" transform="translate(-2749.97 -5812.071)" fill="#e4122c"/>
      <path id="Path_7030" data-name="Path 7030" d="M2887.718,5812.071c-.154.045-.308.127-.462,0Z" transform="translate(-2870.332 -5812.071)" fill="#e4122c"/>
      <path id="Path_7031" data-name="Path 7031" d="M2822.145,5867.6c0,1.956.043,3.912-.008,5.867a22.781,22.781,0,0,1-12.5,19.7,1.418,1.418,0,0,1-1.434-.015,22.612,22.612,0,0,1-12.187-16.5,19.864,19.864,0,0,1-.314-3.812c.009-3.911,0-7.822,0-11.733,0-.78.189-1.039.927-1.277a40.867,40.867,0,0,1,10.163-1.935,39.341,39.341,0,0,1,14.453,1.938,1.066,1.066,0,0,1,.905,1.25q0,3.256,0,6.513Zm-24.408.4c0,1.355.014,2.71,0,4.065a20.984,20.984,0,0,0,.315,4.412,20.7,20.7,0,0,0,10.53,14.584.648.648,0,0,0,.72-.008,20.615,20.615,0,0,0,5.6-4.474,20.073,20.073,0,0,0,5.185-12.831c.126-3.921.03-7.852.039-11.778,0-.25-.055-.375-.322-.456a37.979,37.979,0,0,0-9.937-1.633,37.487,37.487,0,0,0-11.7,1.6c-.361.105-.439.261-.436.6C2797.745,5864.057,2797.737,5866.028,2797.737,5868Z" transform="translate(-2790.063 -5852.195)" fill="#e4122c"/>
      <path id="Path_7032" data-name="Path 7032" d="M2862.261,5962.147a1.094,1.094,0,0,1-.367.817q-3.917,3.916-7.837,7.831a1,1,0,0,1-1.546,0q-1.625-1.606-3.231-3.231a1.013,1.013,0,1,1,1.425-1.437c.729.707,1.44,1.434,2.157,2.151.422.421.422.421.86-.016q3.329-3.329,6.657-6.66a1.171,1.171,0,0,1,.921-.442A1.007,1.007,0,0,1,2862.261,5962.147Z" transform="translate(-2836.74 -5942.78)" fill="#e4122c"/>
    </g>
    <text id="آمنة" transform="translate(17.945 73.811)" fill="#e4122c" font-size="18" font-family="SegoeUI-Bold, Segoe UI" font-weight="700"><tspan x="-15.034" y="0">آمنة</tspan></text>
  </g>
</svg>
