<svg xmlns="http://www.w3.org/2000/svg" width="44" height="77.811" viewBox="0 0 44 77.811">
  <g id="Group_4794" data-name="Group 4794" transform="translate(4.145 0)">
    <g id="Group_4789" data-name="Group 4789" transform="translate(0 0)">
      <path id="Path_7026" data-name="Path 7026" d="M2762.851,5190.651c0-2.459-.009-4.918.006-7.376,0-.338-.07-.432-.422-.43q-4.979.023-9.958.007a4.592,4.592,0,0,1-4.6-3.2,5.209,5.209,0,0,1-.224-1.59c0-1.813-.009-3.627.007-5.44,0-.341-.057-.486-.441-.463-.6.037-1.2.019-1.8.007a1.018,1.018,0,1,1-.009-2.025q1.567-.018,3.135,0a1.008,1.008,0,0,1,1.133,1.14c.008,1.029,0,2.059,0,3.173a5.093,5.093,0,0,1,3.12-.743c.017-.056.04-.095.03-.108a4.973,4.973,0,0,1-.852-3.883c.484-3.824.92-7.652,1.379-11.479a28.752,28.752,0,0,1,.409-3.1c.628-2.708,2.49-4.19,5.087-4.879.2-.052.426-.008.582-.187h8.67c.448.117.9.217,1.342.354a6.4,6.4,0,0,1,4.669,5.714c.386,3.494.832,6.981,1.249,10.474.157,1.312.328,2.621.451,3.936a4.349,4.349,0,0,1-1,3.15,5.225,5.225,0,0,1,3.227.78c0-1.092,0-2.1,0-3.105,0-.879.347-1.227,1.228-1.232q1.475-.009,2.95,0a1.932,1.932,0,0,1,.547.063.98.98,0,0,1,.659,1,.951.951,0,0,1-.759.919,4.235,4.235,0,0,1-.641.046,15.147,15.147,0,0,0-1.918.05,16.578,16.578,0,0,0-.032,1.927c-.009,1.337.007,2.674,0,4.012a4.576,4.576,0,0,1-3.726,4.609,6.383,6.383,0,0,1-1.238.089c-3.273.006-6.546.01-9.819-.006-.354,0-.424.094-.421.43.014,2.458.006,4.917.005,7.376Zm1.017-16.959h6.318a5.185,5.185,0,0,0,1.19-.105,2.946,2.946,0,0,0,2.421-2.892c-.133-1.346-.311-2.686-.47-4.028q-.581-4.872-1.16-9.745a5.4,5.4,0,0,0-.879-2.907,4.9,4.9,0,0,0-3.923-1.9c-2.336-.042-4.672-.014-7.009-.007a5.218,5.218,0,0,0-.824.088,4.468,4.468,0,0,0-3.865,3.823q-.823,6.932-1.653,13.863c-.223,1.855.372,2.988,1.909,3.575a4.334,4.334,0,0,0,1.583.24C2759.625,5173.689,2761.747,5173.692,2763.868,5173.692Zm-.051,7.131q5.626,0,11.251,0a6.967,6.967,0,0,0,.782-.034,2.549,2.549,0,0,0-.551-5.064q-11.437,0-22.872,0c-.092,0-.185,0-.276,0a2.556,2.556,0,1,0,.322,5.1C2756.253,5180.817,2760.035,5180.823,2763.816,5180.823Z" transform="translate(-2744.294 -5150.066)" fill="#e4122c"/>
      <path id="Path_7027" data-name="Path 7027" d="M2806.819,5479.294h2.024l8.577.012a3.56,3.56,0,0,1,3.794,3.766c0,.6.008,1.2,0,1.8a1.012,1.012,0,0,1-.978,1.066,1.025,1.025,0,0,1-1.044-1.059c-.016-.661,0-1.322-.007-1.983a1.493,1.493,0,0,0-1.535-1.555c-2.936-.008-5.872,0-8.808,0h-2.019c-2.936,0-5.872-.012-8.808,0a1.492,1.492,0,0,0-1.534,1.553c-.009.63.005,1.261,0,1.891a1.044,1.044,0,0,1-1.046,1.152,1.033,1.033,0,0,1-.98-1.159c0-.646-.008-1.292,0-1.937a3.532,3.532,0,0,1,3.562-3.53c2.752-.014,5.5,0,8.255,0C2806.45,5479.306,2806.634,5479.3,2806.819,5479.294Z" transform="translate(-2788.261 -5438.708)" fill="#e4122c"/>
      <path id="Path_7028" data-name="Path 7028" d="M2894.812,5495.93h2.019c0,1.164.01,2.329,0,3.493a1.016,1.016,0,1,1-2.026,0C2894.8,5498.259,2894.81,5497.094,2894.812,5495.93Z" transform="translate(-2876.252 -5453.293)" fill="#e4122c"/>
    </g>
    <text id="مريحة" transform="translate(17.855 72.811)" fill="#e4122c" font-size="17" font-family="SegoeUI-Bold, Segoe UI" font-weight="700"><tspan x="-21.296" y="0">مريحة</tspan></text>
  </g>
</svg>
