<svg xmlns="http://www.w3.org/2000/svg" width="65.36" height="82.982" viewBox="0 0 65.36 82.982">
  <g id="Group_6979" data-name="Group 6979" transform="translate(-702.664 -3665.451)">
    <g id="Group_6581" data-name="Group 6581" transform="translate(702.664 3665.451)">
      <g id="Group_6578" data-name="Group 6578" transform="translate(1.161 2.01)">
        <path id="Path_10077" data-name="Path 10077" d="M1558.656,1674.771s-14.716,11.446-6.541,17.169,41.7-14.717,41.7-14.717,23.71-16.352,18.8-23.71c-3.27-4.906-17.9,0-17.9,0l2.362,2.453s7.267-1.647,8.13.812-3.225,7.364-3.225,7.364-18.8,16.352-39.244,22.075c0,0-12.264,3.27-4.088-7.358l1.635-.818Z" transform="translate(-1549.643 -1651.333)" fill="#e4122c"/>
      </g>
      <g id="Group_6580" data-name="Group 6580" transform="translate(0 0)">
        <g id="Group_6579" data-name="Group 6579">
          <path id="Path_10078" data-name="Path 10078" d="M1613.559,1654.529a3.126,3.126,0,0,1-.114-.368,4.206,4.206,0,0,0-2.175-2.739,8.853,8.853,0,0,0-3.794-.989,24.4,24.4,0,0,0-6.132.441,50.147,50.147,0,0,0-6.565,1.693,2.029,2.029,0,0,1-1.9-.237,21.766,21.766,0,0,0-7.538-3.025,22.921,22.921,0,0,0-8.953.025,22.021,22.021,0,0,0-6.23,2.248,22.507,22.507,0,0,0-5.461,4.1,22.862,22.862,0,0,0-4.554,6.672,21.991,21.991,0,0,0-1.856,7.072c-.074.85-.09,1.7-.115,2.6-.008.417-.016.834-.033,1.259l-.008.164-.834.785c-.531.49-1.079,1.005-1.61,1.537a38.393,38.393,0,0,0-5.265,6.246,12.706,12.706,0,0,0-2.134,5.085,4.28,4.28,0,0,0,1.938,4.521,7.745,7.745,0,0,0,2.984,1.047,18.863,18.863,0,0,0,5.42-.073,38.247,38.247,0,0,0,8.511-1.954,2.012,2.012,0,0,1,.67-.123,1.961,1.961,0,0,1,1.055.344,21.78,21.78,0,0,0,10.416,3.442,22.768,22.768,0,0,0,24.339-23.481v-1.006l1.431-1.341a43.956,43.956,0,0,0,5.535-6.107,16.171,16.171,0,0,0,2.706-5.159l.294-1.046Zm-52.284,8.683a21.293,21.293,0,0,1,39.137-.123l.106.253-.2.2a82.088,82.088,0,0,1-13.613,10.2,97.062,97.062,0,0,1-22.467,10.653l-.27.082-.172-.221A20.943,20.943,0,0,1,1561.275,1663.211Zm36.881-6.7.556-.139a13.056,13.056,0,0,1,4.309-.417,1.463,1.463,0,0,1,1.406,2.363,12.257,12.257,0,0,1-2.314,3.352l-.36.409Zm-35.941,28.379-.523.114a15.068,15.068,0,0,1-3.09.376c-.27,0-.54-.008-.818-.033a4.325,4.325,0,0,1-.7-.123,1.471,1.471,0,0,1-.957-.613,1.441,1.441,0,0,1-.024-1.12,4.712,4.712,0,0,1,.425-1.038,15.543,15.543,0,0,1,2.256-3.041l.4-.434Zm40-12.828c-.425,8.282-4.153,14.414-11.062,18.224a20.707,20.707,0,0,1-10.138,2.731,23.153,23.153,0,0,1-10.563-2.739l-.818-.409.85-.335a117.736,117.736,0,0,0,31.068-17.815l.711-.564Zm9.934-15.951a11.532,11.532,0,0,1-1.864,4.26,38.018,38.018,0,0,1-5.919,6.851,95.677,95.677,0,0,1-15.64,11.741,111.293,111.293,0,0,1-14.822,7.693,70.079,70.079,0,0,1-12.247,4.039,29.31,29.31,0,0,1-6.091.768h-.18a9.576,9.576,0,0,1-3.532-.556,3.184,3.184,0,0,1-2.167-3.924,10.9,10.9,0,0,1,1.562-3.679,34.981,34.981,0,0,1,5.028-6.173c.327-.335.654-.679.973-1.022l.63-.662.621.229.36,1.594-.671.744c-.376.425-.752.834-1.112,1.259a11.775,11.775,0,0,0-2.224,3.589,3.093,3.093,0,0,0-.115,2.011,2.609,2.609,0,0,0,2.117,1.725,10.543,10.543,0,0,0,4.268-.073,46.39,46.39,0,0,0,8.519-2.592l.27-.106a97.231,97.231,0,0,0,18.109-9.271,86.962,86.962,0,0,0,11.356-8.3,31.22,31.22,0,0,0,5.453-5.788,7.148,7.148,0,0,0,1.21-2.706,2.44,2.44,0,0,0-1.594-2.845,7.41,7.41,0,0,0-3.442-.3c-.662.065-1.325.172-1.946.286-.441.082-.891.18-1.357.278l-.858.188-1.693-1.5.719-.2c.311-.082.605-.172.9-.262.638-.188,1.243-.368,1.864-.507a33.084,33.084,0,0,1,7.284-1.112,11.4,11.4,0,0,1,3.319.3,7.812,7.812,0,0,1,.907.3A3.151,3.151,0,0,1,1612.145,1656.115Z" transform="translate(-1548.223 -1648.875)"/>
        </g>
      </g>
    </g>
    <text id="واسعة" transform="translate(733.531 3741.434)" fill="#1c1c1e" font-size="18" font-family="Linaround-Bold, Lina round" font-weight="700"><tspan x="-20.862" y="0">واسعة</tspan></text>
  </g>
</svg>
