<svg xmlns="http://www.w3.org/2000/svg" width="47.318" height="76.811" viewBox="0 0 47.318 76.811">
  <g id="Group_4793" data-name="Group 4793" transform="translate(0 0)">
    <g id="Group_4791" data-name="Group 4791" transform="translate(0 0)">
      <path id="Path_7033" data-name="Path 7033" d="M2793.326,3873.391c-.141-.177-.36-.13-.541-.171a5.906,5.906,0,0,1-4.539-4.737c-.046-.266-.135-.342-.409-.346a3.692,3.692,0,0,1-2.82-6.128c.139-.167.177-.247.015-.438a3.7,3.7,0,0,1,.264-5.188.432.432,0,0,0,.18-.392.288.288,0,0,1,0-.046,9.281,9.281,0,0,0-.03-1.979c-.151-.673-.929-.858-1.411-1.278a14.312,14.312,0,0,1-5.181-9.477,15.352,15.352,0,0,1,13.92-17.05c.073-.006.157.012.185-.089h2.125a9.363,9.363,0,0,0,1.6.254,15.219,15.219,0,0,1,12.323,11.766c1.3,6.321-.761,11.441-5.894,15.325a.9.9,0,0,0-.463.936,2.694,2.694,0,0,1,0,.6,2.413,2.413,0,0,0,.614,1.942,3.6,3.6,0,0,1-.127,4.629c-.173.2-.187.293-.008.511a3.69,3.69,0,0,1-2.786,6.1c-.257.008-.407.017-.464.336a5.846,5.846,0,0,1-5.128,4.825c-.064.008-.12.016-.135.09Zm-2.854-17.973a14.991,14.991,0,0,0,2.012,0h3.158a15.114,15.114,0,0,0,2.012,0c.893.006,1.786,0,2.678.024.267.006.3-.113.293-.332-.011-.462.037-.928-.013-1.385a1.645,1.645,0,0,1,.875-1.666c4.451-3.06,6.438-7.264,5.707-12.661a13.247,13.247,0,0,0-11.722-11.181c-5.452-.453-9.819,1.609-12.687,6.26a12.343,12.343,0,0,0,.01,13.775,12.049,12.049,0,0,0,3.877,3.833,1.513,1.513,0,0,1,.844,1.543c-.048.5,0,1.016-.014,1.524-.006.223.07.292.29.288C2788.686,3855.425,2789.579,3855.424,2790.472,3855.418Zm3.571,10.683c2.095,0,4.19,0,6.284,0a1.58,1.58,0,0,0,1.6-1.147,1.647,1.647,0,0,0-1.693-2.156c-2.618-.008-5.237,0-7.855,0h-4.436a1.655,1.655,0,1,0-.136,3.3C2789.884,3866.11,2791.964,3866.1,2794.043,3866.1Zm.02-5.342c2.063,0,4.126,0,6.19,0a1.584,1.584,0,0,0,1.659-1.124,1.613,1.613,0,0,0-1.564-2.164c-4.188-.012-8.376,0-12.563,0a2.209,2.209,0,0,0-.23.015,1.458,1.458,0,0,0-1.264.936,1.624,1.624,0,0,0,1.539,2.337C2789.906,3860.771,2791.985,3860.759,2794.063,3860.759Zm.049,7.376c-1.17,0-2.34.009-3.51-.007-.3,0-.373.061-.293.358a3.9,3.9,0,0,0,7.509,0c.08-.294.011-.365-.289-.36C2796.391,3868.145,2795.251,3868.135,2794.112,3868.135Z" transform="translate(-2770.406 -3826.072)" fill="#e4122c"/>
      <path id="Path_7034" data-name="Path 7034" d="M2711.084,3936.688a1.381,1.381,0,0,1,1.389-.677c.828.043,1.659.005,2.489.012a1.024,1.024,0,0,1,1.1.992,1.036,1.036,0,0,1-1.033,1.03c-.968.027-1.936.013-2.9,0a1.2,1.2,0,0,1-1.041-.716Z" transform="translate(-2711.084 -3922.455)" fill="#e4122c"/>
      <path id="Path_7035" data-name="Path 7035" d="M3059.536,3937.418a1.374,1.374,0,0,1-1.41.729c-.829-.031-1.66,0-2.49-.014a1.022,1.022,0,0,1-1.018-.72.954.954,0,0,1,.277-1.048.907.907,0,0,1,.669-.259c.984,0,1.968.01,2.951,0,.5-.007.758.327,1.02.668Z" transform="translate(-3012.218 -3922.538)" fill="#e4122c"/>
      <path id="Path_7036" data-name="Path 7036" d="M3051.849,3878.766a.939.939,0,0,1-.557.885c-.9.429-1.8.856-2.715,1.251a.977.977,0,0,1-1.319-.489.993.993,0,0,1,.5-1.354c.883-.428,1.771-.845,2.673-1.231A1,1,0,0,1,3051.849,3878.766Z" transform="translate(-3005.728 -3871.369)" fill="#e4122c"/>
      <path id="Path_7037" data-name="Path 7037" d="M3050.434,3987.587a1.266,1.266,0,0,1-.331-.07c-.921-.418-1.846-.829-2.75-1.281a.969.969,0,0,1-.435-1.3.986.986,0,0,1,1.313-.5q1.368.6,2.711,1.257a.957.957,0,0,1,.539,1.146A.994.994,0,0,1,3050.434,3987.587Z" transform="translate(-3005.43 -3964.83)" fill="#e4122c"/>
      <path id="Path_7038" data-name="Path 7038" d="M2721.754,3987.521a1,1,0,0,1-.538-1.853q1.444-.709,2.925-1.341a1,1,0,0,1,.949,1.7,17.868,17.868,0,0,1-3.2,1.488A.507.507,0,0,1,2721.754,3987.521Z" transform="translate(-2719.542 -3964.763)" fill="#e4122c"/>
      <path id="Path_7039" data-name="Path 7039" d="M2725.75,3879.9a.986.986,0,0,1-1.358.922c-.961-.4-1.9-.849-2.836-1.315a1,1,0,0,1,.825-1.812c.973.413,1.928.87,2.879,1.331A.891.891,0,0,1,2725.75,3879.9Z" transform="translate(-2719.831 -3871.265)" fill="#e4122c"/>
      <path id="Path_7040" data-name="Path 7040" d="M2915.712,3981.195q-.006-3.625-.012-7.25a1,1,0,0,1,.324-.738c1.107-1.091,2.209-2.188,3.327-3.269a1.007,1.007,0,0,1,1.546-.081,1.057,1.057,0,0,1-.148,1.553q-1.359,1.351-2.739,2.682a.858.858,0,0,0-.282.686c.008,2.14,0,4.279,0,6.418A15.114,15.114,0,0,1,2915.712,3981.195Z" transform="translate(-2890.476 -3951.848)" fill="#e4122c"/>
      <path id="Path_7041" data-name="Path 7041" d="M2849.56,3981.194c0-2.107-.016-4.213,0-6.32a1.1,1.1,0,0,0-.372-.88c-.909-.874-1.794-1.773-2.679-2.671a1.009,1.009,0,0,1,1.318-1.528c1.183,1.143,2.338,2.316,3.5,3.486a.982.982,0,0,1,.265.717q-.01,3.6-.012,7.2A15,15,0,0,1,2849.56,3981.194Z" transform="translate(-2829.494 -3951.848)" fill="#e4122c"/>
    </g>
    <text id="ذكية" transform="translate(22.654 72.811)" fill="#e4122c" font-size="17" font-family="SegoeUI-Bold, Segoe UI" font-weight="700"><tspan x="-15.614" y="0">ذكية</tspan></text>
  </g>
</svg>
