<svg xmlns="http://www.w3.org/2000/svg" width="46.705" height="88.902" viewBox="0 0 46.705 88.902">
  <g id="Group_6978" data-name="Group 6978" transform="translate(-901.985 -3659.532)">
    <g id="Group_6586" data-name="Group 6586" transform="translate(901.984 3659.531)">
      <ellipse id="Ellipse_219" data-name="Ellipse 219" cx="9.033" cy="9.033" rx="9.033" ry="9.033" transform="translate(14.27 17.278)" fill="#e4122c"/>
      <g id="Group_6582" data-name="Group 6582" transform="translate(0.001 0)">
        <path id="Path_10079" data-name="Path 10079" d="M1519.578,1648.931a6.2,6.2,0,0,1-5.7-5.69c-.05-.912-.231-1.084-1.125-1.084H1481.87c-.912,0-1.075.164-1.133,1.084a6.181,6.181,0,0,1-5.69,5.69c-.912.057-1.084.23-1.084,1.133v4.754q-.012,6.554,0,13.114a32.66,32.66,0,0,0,6.849,20.127,32.145,32.145,0,0,0,15.4,10.872c.222.074.435.164.64.246a1.92,1.92,0,0,0,.2.082h.509a.43.43,0,0,0,.09-.041,4,4,0,0,1,.428-.173,32.944,32.944,0,0,0,7.973-3.826,32.422,32.422,0,0,0,14.6-27.28q.012-6.614.008-13.212v-4.664C1520.662,1649.168,1520.489,1648.988,1519.578,1648.931Zm-.362,18.9a31.713,31.713,0,0,1-2.4,12.333A30.758,30.758,0,0,1,1497.8,1697.6a1.484,1.484,0,0,1-.476.074,1.811,1.811,0,0,1-.526-.074,30.569,30.569,0,0,1-12.129-7.357,30.883,30.883,0,0,1-7.128-10.831,31.34,31.34,0,0,1-2.135-11.348c-.016-3.95-.008-7.957-.008-11.841V1650.4l.329-.066a7.658,7.658,0,0,0,6.4-6.388l.074-.329h30.251l.058.344a7.541,7.541,0,0,0,6.355,6.339l.345.066Z" transform="translate(-1473.957 -1642.156)"/>
      </g>
      <g id="Group_6583" data-name="Group 6583" transform="translate(4.515 4.517)">
        <path id="Path_10080" data-name="Path 10080" d="M1516.5,1653.486a10.472,10.472,0,0,1-5.165-5.166,1,1,0,0,0-1.043-.64c-1.109.008-2.2.016-3.284.016l-1.815-.008h-4.18c-2.061.008-4.713.008-7.2.008-4.073,0-6.471-.008-7.325-.016h-.049a1.157,1.157,0,0,0-1.215.764,10.158,10.158,0,0,1-4.977,4.977,1.19,1.19,0,0,0-.772,1.264c.024,4.024.024,8.277.016,13.812a28.917,28.917,0,0,0,1.88,10.749,27.451,27.451,0,0,0,6.061,9.443,27.937,27.937,0,0,0,10.363,6.668,1.436,1.436,0,0,0,.526.106,1.34,1.34,0,0,0,.492-.09,29.291,29.291,0,0,0,6.815-3.621,27.48,27.48,0,0,0,8.606-10.141,28.189,28.189,0,0,0,2.9-12.531c.008-2.5.008-4.985.008-7.481v-7.053A1,1,0,0,0,1516.5,1653.486Zm-.8,6.052c0,3.014-.008,6.027,0,9.041a27.547,27.547,0,0,1-1.724,10.06,25.784,25.784,0,0,1-5.6,8.876,26.727,26.727,0,0,1-9.492,6.29,1.342,1.342,0,0,1-.55.115,1.681,1.681,0,0,1-.608-.123,27.1,27.1,0,0,1-7.908-4.8,25.865,25.865,0,0,1-7.111-10.223,27.534,27.534,0,0,1-1.773-10.167c.008-3.03.008-6.052.008-9.082V1654.8l.172-.123c3.154-2.167,3.154-2.167,5.371-5.37l.123-.172h23.5l.115.213a12.275,12.275,0,0,0,5.255,5.264l.222.115Z" transform="translate(-1479.478 -1647.68)"/>
      </g>
      <g id="Group_6584" data-name="Group 6584" transform="translate(13.58 16.522)">
        <path id="Path_10081" data-name="Path 10081" d="M1500.33,1662.364a9.768,9.768,0,1,0,.025,0m-.008,18.1h-.066a8.331,8.331,0,0,1,.05-16.661h.066a8.33,8.33,0,0,1-.049,16.661Z" transform="translate(-1490.566 -1662.364)"/>
      </g>
      <g id="Group_6585" data-name="Group 6585" transform="translate(19.248 22.5)">
        <path id="Path_10082" data-name="Path 10082" d="M1506.727,1670.735a2.481,2.481,0,0,1-.337.411q-2.574,2.575-5.156,5.149a1.219,1.219,0,0,1-.756.459,1.3,1.3,0,0,1-.78-.468c-.583-.583-1.174-1.166-1.749-1.757a3.259,3.259,0,0,1-.345-.4.665.665,0,0,1,.107-.845.719.719,0,0,1,.492-.214.619.619,0,0,1,.337.1,4.742,4.742,0,0,1,.657.584c.205.205.4.419.616.657l.3.328.279.3.3-.279.2-.181c.115-.107.214-.2.3-.288l1.543-1.535c.863-.862,1.717-1.716,2.579-2.571a2.551,2.551,0,0,1,.452-.386.691.691,0,0,1,.386-.123.663.663,0,0,1,.484.222A.64.64,0,0,1,1506.727,1670.735Z" transform="translate(-1497.498 -1669.676)"/>
      </g>
    </g>
    <text id="آمنة" transform="translate(924.193 3741.434)" fill="#1c1c1e" font-size="18" font-family="Linaround-Bold, Lina round" font-weight="700"><tspan x="-13.032" y="0">آمنة</tspan></text>
  </g>
</svg>
