<svg xmlns="http://www.w3.org/2000/svg" width="57.23" height="87.902" viewBox="0 0 57.23 87.902">
  <g id="Group_6980" data-name="Group 6980" transform="translate(-517.158 -3659.532)">
    <g id="Group_6577" data-name="Group 6577" transform="translate(517.158 3659.531)">
      <rect id="Rectangle_7483" data-name="Rectangle 7483" width="21.48" height="6.537" rx="3.269" transform="translate(18.239 37.152)" fill="#e4122c"/>
      <rect id="Rectangle_7484" data-name="Rectangle 7484" width="21.48" height="6.537" rx="3.269" transform="translate(18.239 43.689)" fill="#e4122c"/>
      <g id="Group_6576" data-name="Group 6576" transform="translate(0 0)">
        <g id="Group_4791" data-name="Group 4791">
          <g id="Path_7033" data-name="Path 7033" transform="translate(10.26)">
            <path id="Path_10068" data-name="Path 10068" d="M1686.719,1674.753c6.21-4.707,8.582-10.88,7.042-18.342a18.151,18.151,0,0,0-14.765-14.1,10.429,10.429,0,0,1-1.952-.308H1674.7a.71.71,0,0,1-.383.112c-.186.019-.355.029-.523.056a18.391,18.391,0,0,0-16.175,20.378,17.049,17.049,0,0,0,6.192,11.347,6.042,6.042,0,0,0,.6.392,2.335,2.335,0,0,1,1.3,1.429,11.374,11.374,0,0,1,.047,2.578.964.964,0,0,1-.383.859,4.1,4.1,0,0,0-.28,5.706.79.79,0,0,1,0,1.149,4.062,4.062,0,0,0,3.045,6.761h.056a.888.888,0,0,1,.971.813,6.742,6.742,0,0,0,5.212,5.445.359.359,0,0,0,.14.019,1.235,1.235,0,0,1,.607.186h1.2a.745.745,0,0,1,.318-.1,6.75,6.75,0,0,0,5.9-5.548.9.9,0,0,1,1.018-.8,4.086,4.086,0,0,0,2.671-.99,4.091,4.091,0,0,0,.42-5.744.825.825,0,0,1,.01-1.233,3.956,3.956,0,0,0,.14-5.1,3.4,3.4,0,0,1-.85-2.737,3.5,3.5,0,0,0,0-.625A1.567,1.567,0,0,1,1686.719,1674.753Zm-5.809,19.033a5.255,5.255,0,0,1-10.124.01.861.861,0,0,1,.084-.766.819.819,0,0,1,.691-.271c.7.009,1.364.009,2.027.009h5.64c.29,0,.58,0,.869-.009h.019a.861.861,0,0,1,.719.271A.838.838,0,0,1,1680.91,1693.786Zm5.043-4.314a2.413,2.413,0,0,1-2.307,1.737.506.506,0,0,1-.121-.01c-.831.01-1.691.01-2.549.01l-2.578-.01h-2.867l-2.466.01h-2.456c-.822,0-1.634,0-2.456-.01l-.01-.233h-.018v.233a2.237,2.237,0,0,1-.243-.009,2.5,2.5,0,0,1,.243-4.987,2.271,2.271,0,0,1,.243.009H1677l3.213-.009c1.073,0,2.148,0,3.222.009a.732.732,0,0,1,.159-.009,2.749,2.749,0,0,1,.775.121,2.568,2.568,0,0,1,1.448,1.243A2.5,2.5,0,0,1,1685.953,1689.472Zm-.019-6.529a2.421,2.421,0,0,1-2.306,1.7,1.786,1.786,0,0,1-.215-.009c-.8,0-1.644.009-2.494.009l-2.54-.009h-2.531l-2.3.009h-2.3c-1.027,0-2.055,0-3.073-.009h-.093a2.435,2.435,0,0,1-1.083-.252,2.464,2.464,0,0,1-1.13-3.3,2.256,2.256,0,0,1,1.943-1.41,2.928,2.928,0,0,1,.308-.019h8.536q3.446,0,6.911.01l.056-.01a2.574,2.574,0,0,1,.84.15A2.46,2.46,0,0,1,1685.934,1682.943Zm-17.781-4.838h-.038a.806.806,0,0,1-.6-.224.781.781,0,0,1-.2-.616c0-.233,0-.467-.009-.71a10.18,10.18,0,0,1,.028-1.2,1.414,1.414,0,0,0-.775-1.429l-.028-.009-.019-.019a15.251,15.251,0,0,1-4.913-4.857,16.684,16.684,0,0,1,14.2-25.412c.6,0,1.205.019,1.822.074a16.746,16.746,0,0,1,14.821,14.14c.915,6.715-1.513,12.1-7.21,16.016l-.018.01-.029.019a1.566,1.566,0,0,0-.831,1.569,7.768,7.768,0,0,1,.028,1.13c0,.205-.01.41,0,.625a.88.88,0,0,1-.215.663.765.765,0,0,1-.588.224c-.832-.019-1.625-.028-2.41-.028" transform="translate(-1657.492 -1642)"/>
          </g>
          <g id="Path_7034" data-name="Path 7034" transform="translate(0 16.652)">
            <path id="Path_10069" data-name="Path 10069" d="M1650.136,1663.142a.82.82,0,0,1-.823.8c-.513.009-1.037.019-1.559.019s-1.046-.01-1.569-.01h-.4a1.014,1.014,0,0,1-.841-.523v-.55a1.257,1.257,0,0,1,1.009-.514,1.918,1.918,0,0,1,.215.01c.392.019.775.028,1.168.028h.812c.262-.009.533-.009.794-.009h.4A.8.8,0,0,1,1650.136,1663.142Z" transform="translate(-1644.943 -1662.367)"/>
          </g>
          <g id="Path_7035" data-name="Path 7035" transform="translate(52.051 16.438)">
            <path id="Path_10070" data-name="Path 10070" d="M1713.788,1662.852v.513a1.212,1.212,0,0,1-1.037.57,1.058,1.058,0,0,1-.168-.009h-.047c-.346-.019-.7-.019-1.046-.019h-2.083a.784.784,0,0,1-.756-.579.725.725,0,0,1,.224-.8.691.691,0,0,1,.495-.177h2.12c.5,0,1.009,0,1.513-.01l.009-.233h.01v.233C1713.34,1662.338,1713.517,1662.516,1713.788,1662.852Z" transform="translate(-1708.609 -1662.105)"/>
          </g>
          <g id="Path_7036" data-name="Path 7036" transform="translate(50.927 7.827)">
            <path id="Path_10071" data-name="Path 10071" d="M1707.709,1653.151c1.3-.626,2.307-1.093,3.278-1.5a.8.8,0,0,1,.317-.074.768.768,0,0,1,.692.438.807.807,0,0,1,.065.374.691.691,0,0,1-.41.654c-1.121.532-2.213,1.055-3.344,1.541a.723.723,0,0,1-.318.075.756.756,0,0,1-.663-.42l-.019-.047a.841.841,0,0,1-.074-.336.661.661,0,0,1,.038-.234.766.766,0,0,1,.382-.439" transform="translate(-1707.233 -1651.573)"/>
          </g>
          <g id="Path_7037" data-name="Path 7037" transform="translate(50.872 23.983)">
            <path id="Path_10072" data-name="Path 10072" d="M1711.984,1673.819a.761.761,0,0,1-.738.579h-.065a1.389,1.389,0,0,1-.252-.047l-.57-.262c-.925-.42-1.877-.85-2.793-1.307a.708.708,0,0,1-.364-.42.752.752,0,0,1,.028-.532h.01l.019-.047a.735.735,0,0,1,.681-.448.682.682,0,0,1,.318.075c1.1.486,2.222,1,3.334,1.54A.717.717,0,0,1,1711.984,1673.819Z" transform="translate(-1707.166 -1671.334)"/>
          </g>
          <g id="Path_7038" data-name="Path 7038" transform="translate(1.466 23.993)">
            <path id="Path_10073" data-name="Path 10073" d="M1651.341,1672.644a21.391,21.391,0,0,1-3.792,1.756h-.056a.767.767,0,0,1-.42-1.4c1.158-.569,2.353-1.12,3.539-1.625a.715.715,0,0,1,.2-.028.757.757,0,0,1,.532,1.3Z" transform="translate(-1646.737 -1671.346)"/>
          </g>
          <g id="Path_7039" data-name="Path 7039" transform="translate(1.519 7.836)">
            <path id="Path_10074" data-name="Path 10074" d="M1651.624,1653.891a.746.746,0,0,1-.747.757.668.668,0,0,1-.271-.057c-1.046-.439-2.148-.943-3.427-1.588a.763.763,0,0,1-.271-1.046.771.771,0,0,1,.663-.374.544.544,0,0,1,.2.028c1.214.513,2.409,1.083,3.511,1.625A.632.632,0,0,1,1651.624,1653.891Z" transform="translate(-1646.801 -1651.584)"/>
          </g>
          <g id="Path_7040" data-name="Path 7040" transform="translate(31.007 21.742)">
            <path id="Path_10075" data-name="Path 10075" d="M1688.658,1669.433a.849.849,0,0,1-.271.579c-.019.019-.047.028-.065.046l-.019.019-.029.019c-.98.971-2.138,2.129-3.343,3.287a1.473,1.473,0,0,0-.5,1.186c.01,2.008,0,4.016,0,6.033l-.009,2.345c-.253.009-.513.019-.766.019s-.513-.01-.766-.019l-.009-4.333-.009-5.071a.794.794,0,0,1,.261-.57l1.131-1.121c.98-.962,1.96-1.933,2.951-2.9l.028-.028.028-.028a.755.755,0,0,1,.616-.308.79.79,0,0,1,.458.149,1.07,1.07,0,0,1,.1.094A.83.83,0,0,1,1688.658,1669.433Z" transform="translate(-1682.868 -1668.593)"/>
          </g>
          <g id="Path_7041" data-name="Path 7041" transform="translate(20.508 21.779)">
            <path id="Path_10076" data-name="Path 10076" d="M1675.744,1673.625c-.009,2.793-.009,6.528-.019,9.33-.252.019-.513.019-.766.019s-.513,0-.775-.019v-2.4c-.009-1.951-.009-3.9,0-5.837a1.8,1.8,0,0,0-.6-1.438c-1.046-1.009-2.091-2.064-3.091-3.082l-.214-.215a.777.777,0,0,1-.057-1.092.783.783,0,0,1,1.037-.1c1.3,1.261,2.6,2.568,3.847,3.839l.439.429A.8.8,0,0,1,1675.744,1673.625Z" transform="translate(-1670.027 -1668.638)"/>
          </g>
        </g>
      </g>
    </g>
    <text id="ذكية" transform="translate(544.316 3740.434)" fill="#1c1c1e" font-size="17" font-family="Linaround-Bold, Lina round" font-weight="700"><tspan x="-13.702" y="0">ذكية</tspan></text>
  </g>
</svg>
