<svg xmlns="http://www.w3.org/2000/svg" width="49.872" height="84.955" viewBox="0 0 49.872 84.955">
  <g id="Group_6983" data-name="Group 6983" transform="translate(-330.995 -3663.479)">
    <g id="Group_6575" data-name="Group 6575" transform="translate(330.996 3663.479)">
      <path id="Path_10063" data-name="Path 10063" d="M1755.5,1676.486l-1.7-1.044-3.887,1.044-1.746,2.136,4.846,18.827,2.49,1.659c-.132-.087,4.585-1.659,4.585-1.659l.786-2.358Z" transform="translate(-1747.331 -1651.078)" fill="#e4122c"/>
    </g>
    <g id="Group_6981" data-name="Group 6981">
      <g id="Group_6574" data-name="Group 6574" transform="translate(330.995 3663.479)">
        <path id="Path_10064" data-name="Path 10064" d="M1747.144,1674.7c.037-.1.083-.2.11-.309a3.327,3.327,0,0,1,2.382-2.476c.978-.3,1.967-.553,2.955-.818a3.655,3.655,0,0,1,2.2.138c.136.047.268.105.414.163a25.349,25.349,0,0,1,4.636-2.359,12.076,12.076,0,0,0,1.511-.778,2.977,2.977,0,0,0,1.4-2.286,13.369,13.369,0,0,0-.157-3.4,16.209,16.209,0,0,1-.148-4.414,7.138,7.138,0,0,1,1.478-3.451,4.4,4.4,0,0,1,5.179-1.119,3.516,3.516,0,0,1,1.827,2.292q.794,2.809,1.562,5.627c.446,1.642.869,3.29,1.315,4.981.786-.209,1.578-.419,2.37-.632q7.776-2.09,15.554-4.181a4.045,4.045,0,0,1,5.016,2.5,4.1,4.1,0,0,1-2.786,5.462c-1.969.548-3.955,1.032-5.933,1.545-.105.028-.208.07-.328.11a4.166,4.166,0,0,1-.907,7.223,4.057,4.057,0,0,1,1.5,4.582,4.307,4.307,0,0,1-3.827,3.045l-.021.148a1.238,1.238,0,0,1,.243.132,3.858,3.858,0,0,1,1.415,3.825,3.915,3.915,0,0,1-2.766,3.178c-1.327.424-2.69.734-4.037,1.1a45.279,45.279,0,0,1-6.432,1.312,18.113,18.113,0,0,1-7.181-.632c-1.5-.428-2.99-.871-4.485-1.306-.168-.049-.341-.087-.527-.134a4.2,4.2,0,0,1-2.223,1.158c-.74.183-1.469.411-2.2.609a3.507,3.507,0,0,1-4.421-2.534q-2.276-8.332-4.535-16.668c-.043-.155-.094-.306-.141-.459Zm14.3,17.675c.078.059.1.088.127.1,1.679.5,3.347,1.028,5.04,1.473a15.876,15.876,0,0,0,5.456.481,32.546,32.546,0,0,0,5.034-.854c1.919-.476,3.823-1.014,5.729-1.545a2.517,2.517,0,0,0,1.835-2.226,2.589,2.589,0,0,0-1.317-2.522,2.689,2.689,0,0,0-1.917-.313.7.7,0,0,1-.936-.461.788.788,0,0,1,.6-1c.343-.1.688-.186,1.033-.28,1.08-.292,2.177-.531,3.235-.889a2.582,2.582,0,0,0,1.548-3.177,2.754,2.754,0,0,0-3.065-1.812c-.822.249-1.663.437-2.5.651-.581.151-1.158.316-1.743.447a.67.67,0,0,1-.8-.317.761.761,0,0,1,.088-.863,1.331,1.331,0,0,1,.541-.294c1.062-.3,2.129-.573,3.195-.856,1.128-.3,2.263-.578,3.384-.9a2.553,2.553,0,0,0,1.876-2.643,2.444,2.444,0,0,0-2.086-2.452,4.064,4.064,0,0,0-1.537.057c-1.979.505-3.943,1.071-5.913,1.612a3.828,3.828,0,0,1-.616.138.656.656,0,0,1-.751-.474.814.814,0,0,1,.4-.955,3.194,3.194,0,0,1,.467-.136l12.884-3.416c.971-.258,1.947-.5,2.913-.781a2.7,2.7,0,0,0,1.875-3.109,2.649,2.649,0,0,0-3.381-1.93c-4.194,1.138-8.4,2.233-12.6,3.345l-5.88,1.552c-.636.168-.941,0-1.133-.63-.146-.481-.3-.961-.424-1.447q-1.237-4.7-2.464-9.413a2.311,2.311,0,0,0-1.916-1.836,2.594,2.594,0,0,0-2.538.885,4.986,4.986,0,0,0-1.078,1.943,9.72,9.72,0,0,0-.146,4.2,17.851,17.851,0,0,1,.246,4.363,4.325,4.325,0,0,1-2.025,3.383,16.965,16.965,0,0,1-1.809.943c-.867.4-1.758.754-2.623,1.162-.463.218-.891.511-1.3.746a12.484,12.484,0,0,1,.62,1.491q2.1,7.819,4.176,15.649A4.757,4.757,0,0,1,1761.444,1692.376Zm-8.067-19.95c-.238.042-.479.068-.712.128-.752.2-1.5.4-2.251.616a3.65,3.65,0,0,0-.765.305,1.992,1.992,0,0,0-.973,2.192q2.215,8.342,4.431,16.685a2.48,2.48,0,0,0,.774,1.322,1.85,1.85,0,0,0,1.712.474c.972-.254,1.937-.532,2.9-.814a1.98,1.98,0,0,0,1.484-2.618c-1.467-5.527-2.957-11.048-4.405-16.58A2.182,2.182,0,0,0,1753.377,1672.426Z" transform="translate(-1747.144 -1647.016)"/>
        <path id="Path_10065" data-name="Path 10065" d="M1798.236,1646.912c-.03.1-.054.21-.1.314q-1.708,4.138-3.419,8.273a.837.837,0,0,1-.729.561.659.659,0,0,1-.728-.9c.209-.579.46-1.143.7-1.713q1.356-3.282,2.719-6.561a1.882,1.882,0,0,1,.317-.539.6.6,0,0,1,.756-.13A.811.811,0,0,1,1798.236,1646.912Z" transform="translate(-1755.549 -1645.732)"/>
        <path id="Path_10066" data-name="Path 10066" d="M1777.881,1647.027a.786.786,0,0,1,.578-.864.7.7,0,0,1,.768.385,4.068,4.068,0,0,1,.221.487q1.61,3.888,3.218,7.776c.025.06.051.119.075.18a.741.741,0,0,1-.263,1.016.883.883,0,0,1-1.06-.362,2.647,2.647,0,0,1-.183-.4q-1.6-3.866-3.2-7.733A5.024,5.024,0,0,1,1777.881,1647.027Z" transform="translate(-1752.751 -1645.733)"/>
        <path id="Path_10067" data-name="Path 10067" d="M1787.687,1650.829q0-2.071,0-4.142a2.608,2.608,0,0,1,.016-.437.705.705,0,0,1,.714-.608.676.676,0,0,1,.714.6,2.581,2.581,0,0,1,.017.438q0,4.166,0,8.333c0,.1,0,.2,0,.292a.674.674,0,0,1-.691.67.7.7,0,0,1-.762-.657,3.862,3.862,0,0,1-.005-.389Q1787.687,1652.875,1787.687,1650.829Z" transform="translate(-1754.54 -1645.641)"/>
      </g>
      <text id="سهلة" transform="translate(353.916 3741.434)" fill="#1c1c1e" font-size="18" font-family="Linaround-Bold, Lina round" font-weight="700"><tspan x="-17.154" y="0">سهلة</tspan></text>
    </g>
  </g>
</svg>
