<svg xmlns="http://www.w3.org/2000/svg" width="516.567" height="520.85" viewBox="0 0 516.567 520.85">
  <g id="Group_6777" data-name="Group 6777" transform="translate(-865.46 -1932.15)">
    <g id="Group_3857" data-name="Group 3857">
      <g id="Group_3842" data-name="Group 3842">
        <g id="Path_22" data-name="Path 22">
          <path id="Path_10860" data-name="Path 10860" d="M1333.732,2210.241h-.039a6.251,6.251,0,0,1-6.239-6.255h0a6.238,6.238,0,0,1,.235-1.7,6.059,6.059,0,0,1,.98-2.007,5.949,5.949,0,0,1,.747-.842,6.259,6.259,0,0,1,5.307-1.626,6.28,6.28,0,0,1,5,4.476,4.674,4.674,0,0,1,.136.6,6.129,6.129,0,0,1,.1,1.1,6.247,6.247,0,0,1-5.237,6.172A5.928,5.928,0,0,1,1333.732,2210.241Zm-.027-1a4.729,4.729,0,0,0,.837-.065,5.257,5.257,0,0,0,4.417-5.19,5.17,5.17,0,0,0-.084-.929,3.609,3.609,0,0,0-.111-.487,5.278,5.278,0,0,0-4.2-3.768,5.44,5.44,0,0,0-.856-.069h-.007a5.2,5.2,0,0,0-3.6,1.436,5.2,5.2,0,0,0-1.449,2.39,5.227,5.227,0,0,0-.2,1.426v0a5.25,5.25,0,0,0,5.242,5.254Z" fill="#e4122c"/>
        </g>
        <g id="Group_51" data-name="Group 51">
          <g id="Path_2" data-name="Path 2">
            <path id="Path_10861" data-name="Path 10861" d="M1347.911,2222.881H1333.79a1.536,1.536,0,0,1-1.524-1.5v-6.572a1.522,1.522,0,0,1,1.518-1.518h9.325v-9.33a1.526,1.526,0,0,1,1.517-1.516h6.566a1.515,1.515,0,0,1,1.514,1.514v14.126a4.792,4.792,0,0,1-4.8,4.8Zm-14.645-1.512a.513.513,0,0,0,.154.353.52.52,0,0,0,.37.159h14.121a3.792,3.792,0,0,0,3.8-3.8v-14.127a.514.514,0,0,0-.514-.514h-6.565a.5.5,0,0,0-.362.152.518.518,0,0,0-.156.366v10.328h-10.325a.509.509,0,0,0-.362.151.518.518,0,0,0-.156.367Z" fill="#e4122c"/>
          </g>
        </g>
      </g>
      <g id="Group_3844" data-name="Group 3844">
        <g id="Path_22-2" data-name="Path 22-2">
          <path id="Path_10862" data-name="Path 10862" d="M1333.7,2252.119a6.2,6.2,0,0,1-4.285-1.711,5.924,5.924,0,0,1-.745-.842,6.059,6.059,0,0,1-.979-2.007,6.25,6.25,0,0,1,6.019-7.948,8.669,8.669,0,0,1,.995.077,6.375,6.375,0,0,1,1.734.549,6.287,6.287,0,0,1,3.523,5.629,6.164,6.164,0,0,1-.1,1.109,4.548,4.548,0,0,1-.137.594,6.274,6.274,0,0,1-5,4.467A6.868,6.868,0,0,1,1333.7,2252.119Zm0-11.508a5.249,5.249,0,0,0-5.246,5.253v0a5.219,5.219,0,0,0,.2,1.423,5.062,5.062,0,0,0,.821,1.684,4.951,4.951,0,0,0,.625.706,5.251,5.251,0,0,0,4.466,1.37,5.273,5.273,0,0,0,4.2-3.759,3.777,3.777,0,0,0,.112-.484,5.256,5.256,0,0,0-2.875-5.669,5.211,5.211,0,0,0-1.438-.456,4.5,4.5,0,0,0-.853-.07Z" fill="#e4122c"/>
        </g>
        <g id="Group_51-2" data-name="Group 51-2">
          <g id="Path_2-2" data-name="Path 2-2">
            <path id="Path_10863" data-name="Path 10863" d="M1351.191,2247.408h-6.565a1.513,1.513,0,0,1-1.073-.449,1.5,1.5,0,0,1-.445-1.066v-9.331h-9.324a1.524,1.524,0,0,1-1.518-1.518v-6.572a1.534,1.534,0,0,1,1.521-1.5h14.123a4.792,4.792,0,0,1,4.795,4.8v14.125A1.515,1.515,0,0,1,1351.191,2247.408Zm-17.925-18.925v6.561a.5.5,0,0,0,.151.361.51.51,0,0,0,.367.157h10.324v10.33a.524.524,0,0,0,.518.516h6.565a.514.514,0,0,0,.514-.514v-14.126a3.792,3.792,0,0,0-3.795-3.8h-14.122a.534.534,0,0,0-.522.512Z" fill="#e4122c"/>
          </g>
        </g>
      </g>
      <g id="Group_3843" data-name="Group 3843">
        <g id="Path_22-3" data-name="Path 22-3">
          <path id="Path_10864" data-name="Path 10864" d="M1375.748,2210.241a6.166,6.166,0,0,1-.967-.077,6.26,6.26,0,0,1-5.259-6.179,6.162,6.162,0,0,1,.1-1.108,4.647,4.647,0,0,1,.136-.594,6.274,6.274,0,0,1,5-4.467,4.256,4.256,0,0,1,1.025-.083,6.193,6.193,0,0,1,4.287,1.712,5.791,5.791,0,0,1,.746.842,6.018,6.018,0,0,1,.978,2.006,6.163,6.163,0,0,1,.234,1.693,6.247,6.247,0,0,1-6.241,6.255Zm.034-11.508a4.631,4.631,0,0,0-.864.07,5.271,5.271,0,0,0-4.2,3.759,3.686,3.686,0,0,0-.112.485,5.18,5.18,0,0,0-.086.938,5.253,5.253,0,0,0,4.4,5.187,5.068,5.068,0,0,0,.853.069h.009a5.246,5.246,0,0,0,5.244-5.254v0a5.236,5.236,0,0,0-.2-1.423,5.092,5.092,0,0,0-.821-1.683,5.016,5.016,0,0,0-.626-.706A5.206,5.206,0,0,0,1375.782,2198.733Z" fill="#e4122c"/>
        </g>
        <g id="Group_51-3" data-name="Group 51-3">
          <g id="Path_2-3" data-name="Path 2-3">
            <path id="Path_10865" data-name="Path 10865" d="M1375.69,2222.881h-14.121a4.792,4.792,0,0,1-4.795-4.8v-14.125a1.516,1.516,0,0,1,1.514-1.514h6.566a1.524,1.524,0,0,1,1.517,1.515v9.331h9.325a1.5,1.5,0,0,1,1.074.448,1.516,1.516,0,0,1,.444,1.07v6.572a1.536,1.536,0,0,1-1.524,1.5Zm-17.4-19.437a.514.514,0,0,0-.514.514v14.126a3.792,3.792,0,0,0,3.795,3.8h14.121a.509.509,0,0,0,.362-.151.519.519,0,0,0,.162-.361v-6.561a.524.524,0,0,0-.518-.518h-10.325v-10.33a.524.524,0,0,0-.518-.516Z" fill="#e4122c"/>
          </g>
        </g>
      </g>
      <g id="Group_3845" data-name="Group 3845">
        <g id="Path_22-4" data-name="Path 22-4">
          <path id="Path_10866" data-name="Path 10866" d="M1375.783,2252.119h-.011a6.429,6.429,0,0,1-1.015-.082,6.281,6.281,0,0,1-5-4.475,4.564,4.564,0,0,1-.136-.6,6.143,6.143,0,0,1-.1-1.1,6.253,6.253,0,0,1,5.238-6.172,7.458,7.458,0,0,1,1.018-.082,6.416,6.416,0,0,1,4.292,1.706,6.265,6.265,0,0,1,1.723,6.245,6.208,6.208,0,0,1-1.727,2.849A6.2,6.2,0,0,1,1375.783,2252.119Zm-.033-11.508a5.1,5.1,0,0,0-.812.064,5.355,5.355,0,0,0-1.457.462,5.281,5.281,0,0,0-2.96,4.728,5.168,5.168,0,0,0,.084.93,3.779,3.779,0,0,0,.111.487,5.279,5.279,0,0,0,4.2,3.768,3.87,3.87,0,0,0,.863.069,5.2,5.2,0,0,0,3.6-1.437,4.98,4.98,0,0,0,.626-.706,5.074,5.074,0,0,0,.823-1.683,5.241,5.241,0,0,0,.2-1.427v0a5.249,5.249,0,0,0-5.242-5.253Z" fill="#e4122c"/>
        </g>
        <g id="Group_51-4" data-name="Group 51-4">
          <g id="Path_2-4" data-name="Path 2-4">
            <path id="Path_10867" data-name="Path 10867" d="M1364.854,2247.408h-6.566a1.516,1.516,0,0,1-1.514-1.514v-14.126a4.792,4.792,0,0,1,4.795-4.8h14.124a1.517,1.517,0,0,1,1.071.449,1.489,1.489,0,0,1,.45,1.052v6.572a1.519,1.519,0,0,1-.448,1.074,1.5,1.5,0,0,1-1.07.444h-9.325v9.33a1.525,1.525,0,0,1-1.517,1.516Zm-3.285-19.437a3.792,3.792,0,0,0-3.795,3.8v14.127a.515.515,0,0,0,.514.514h6.566a.524.524,0,0,0,.517-.517v-10.329H1375.7a.523.523,0,0,0,.518-.518v-6.561a.5.5,0,0,0-.154-.353.515.515,0,0,0-.368-.159h-14.123Z" fill="#e4122c"/>
          </g>
        </g>
      </g>
    </g>
    <g id="Rectangle_3699" data-name="Rectangle 3699">
      <path id="Path_10868" data-name="Path 10868" d="M1032,2114h138v325a14,14,0,0,1-14,14H1046a14,14,0,0,1-14-14V2114Z" fill="#efefef"/>
    </g>
    <g id="Group_6656" data-name="Group 6656">
      <g id="Group_6652" data-name="Group 6652">
        <path id="Path_10869" data-name="Path 10869" d="M1278.654,2412.364h-185.8a22.925,22.925,0,0,1-22.9-22.9V1955.049a22.925,22.925,0,0,1,22.9-22.9h185.8a22.924,22.924,0,0,1,22.9,22.9v434.416A22.924,22.924,0,0,1,1278.654,2412.364Zm-185.8-478.514a21.223,21.223,0,0,0-21.2,21.2v434.416a21.223,21.223,0,0,0,21.2,21.2h185.8a21.223,21.223,0,0,0,21.2-21.2V1955.049a21.223,21.223,0,0,0-21.2-21.2Z" fill="#1c1c1e"/>
      </g>
      <g id="Group_6653" data-name="Group 6653">
        <path id="Path_10870" data-name="Path 10870" d="M1275.012,2388.471H1096.5a18.086,18.086,0,0,1-18.065-18.066V1980.567A18.086,18.086,0,0,1,1096.5,1962.5h178.511a18.087,18.087,0,0,1,18.066,18.066v389.838A18.087,18.087,0,0,1,1275.012,2388.471ZM1096.5,1964.2a16.385,16.385,0,0,0-16.365,16.366v389.838a16.385,16.385,0,0,0,16.365,16.366h178.511a16.384,16.384,0,0,0,16.365-16.366V1980.567a16.384,16.384,0,0,0-16.365-16.366Z" fill="#1c1c1e"/>
      </g>
      <g id="Group_6654" data-name="Group 6654">
        <path id="Path_10871" data-name="Path 10871" d="M1115.072,1952.227a4.133,4.133,0,1,1,4.132-4.132A4.137,4.137,0,0,1,1115.072,1952.227Zm0-7.265a3.133,3.133,0,1,0,3.132,3.133A3.137,3.137,0,0,0,1115.072,1944.962Z" fill="#1c1c1e"/>
      </g>
      <g id="Group_6655" data-name="Group 6655">
        <path id="Path_10872" data-name="Path 10872" d="M1200.649,1952.577h-29.786a4.482,4.482,0,0,1,0-8.965h29.786a4.482,4.482,0,1,1,0,8.965Zm-29.786-7.264a2.782,2.782,0,0,0,0,5.564h29.786a2.782,2.782,0,1,0,0-5.564Z" fill="#1c1c1e"/>
      </g>
    </g>
    <g id="Group_6657" data-name="Group 6657">
      <rect id="Rectangle_9758" data-name="Rectangle 9758" width="127.877" height="111.214" rx="18" transform="translate(1095.864 2237.234)" fill="#fff"/>
      <path id="Path_10873" data-name="Path 10873" d="M1205.741,2349.3h-91.877a18.871,18.871,0,0,1-18.85-18.85v-75.214a18.871,18.871,0,0,1,18.85-18.85h91.877a18.871,18.871,0,0,1,18.85,18.85v75.214A18.871,18.871,0,0,1,1205.741,2349.3Zm-91.877-111.214a17.17,17.17,0,0,0-17.15,17.15v75.214a17.169,17.169,0,0,0,17.15,17.15h91.877a17.169,17.169,0,0,0,17.15-17.15v-75.214a17.169,17.169,0,0,0-17.15-17.15Z" fill="#1c1c1e"/>
    </g>
    <g id="Group_6658" data-name="Group 6658">
      <rect id="Rectangle_9759" data-name="Rectangle 9759" width="178.232" height="118.527" rx="19.992" transform="translate(1178.23 2105.953)" fill="#fff"/>
      <path id="Path_10874" data-name="Path 10874" d="M1336.471,2225.33H1198.222a20.866,20.866,0,0,1-20.842-20.842v-78.543a20.866,20.866,0,0,1,20.842-20.842h138.249a20.866,20.866,0,0,1,20.842,20.842v78.543A20.866,20.866,0,0,1,1336.471,2225.33ZM1198.222,2106.8a19.163,19.163,0,0,0-19.141,19.142v78.543a19.163,19.163,0,0,0,19.141,19.142h138.249a19.163,19.163,0,0,0,19.141-19.142v-78.543a19.163,19.163,0,0,0-19.141-19.142Z" fill="#1c1c1e"/>
    </g>
    <g id="Group_6661" data-name="Group 6661">
      <g id="Group_6659" data-name="Group 6659">
        <rect id="Rectangle_9760" data-name="Rectangle 9760" width="168.415" height="113.868" rx="13.63" transform="translate(1036.576 2043.178)" fill="#1c1c1e"/>
      </g>
      <g id="Group_6660" data-name="Group 6660">
        <rect id="Rectangle_9761" data-name="Rectangle 9761" width="168.415" height="113.868" rx="15.802" transform="translate(1032.026 2037.986)" fill="#fff"/>
        <path id="Path_10875" data-name="Path 10875" d="M1184.64,2152.705H1047.828a16.672,16.672,0,0,1-16.652-16.652v-82.265a16.671,16.671,0,0,1,16.652-16.652H1184.64a16.671,16.671,0,0,1,16.651,16.652v82.265A16.671,16.671,0,0,1,1184.64,2152.705Zm-136.812-113.869a14.968,14.968,0,0,0-14.952,14.952v82.265A14.968,14.968,0,0,0,1047.828,2151H1184.64a14.968,14.968,0,0,0,14.951-14.951v-82.265a14.968,14.968,0,0,0-14.951-14.952Z" fill="#1c1c1e"/>
      </g>
    </g>
    <g id="Group_6764" data-name="Group 6764">
      <g id="Group_6662" data-name="Group 6662">
        <path id="Path_10876" data-name="Path 10876" d="M966.811,2391.48l4.188-.018-.092,9.543,13.6-.845-.541,2.96-1.48,3.225-2.674,1.929-1.977.616-4.667.146-2.626-.438-.583-.292-1.75-1.6-.73-1.313-.146-.437-.129-.5s.129-.373-.016-.373-.163-.437-.163-.437l-.048-.178v-.114l-.251-1.28-.122-3.679Z" fill="#fff"/>
      </g>
      <g id="Group_6663" data-name="Group 6663">
        <path id="Path_10877" data-name="Path 10877" d="M935.533,2400.722v2.658l.472,3.511.986,1.707,1.459,1.313,1.75.729,3.209.438,3.792.146,2.334-.292,1.9-.875,1.313-1.313,1.459-3.209.583-4.23v-3.063l-.292-1.75-.146-2.333.138-2.7-.993.02-.165,1.511.146,7.147-.292,3.646-1.167,2.917-1.313,1.458-4.376.875-4.23-.292-3.063-1.021-2.334-2.771-.583-2.625-.146-1.6Z" fill="#e4122c"/>
      </g>
      <g id="Group_6664" data-name="Group 6664">
        <path id="Path_10878" data-name="Path 10878" d="M953.441,2391.48h-.72l-3.478.053v3.209l-.373,5.332-13.046-1.248.129,2.747.43,1.847.9,2.406,1.021,1.167,1.021.583,1.75,1.021,2.334.292,3.063.146,2.625-.438,1.313-.437,1.9-1.75.567-1.815.492-2.393.254-5.126Z" fill="#fff"/>
      </g>
      <g id="Group_6665" data-name="Group 6665">
        <path id="Path_10879" data-name="Path 10879" d="M915.659,2115.419l-5.943,27.284-5.078,22.9-1.777,8.167-.146,1.6.438,2.334.875,1.75L908.4,2185l1.75,2.042,1.6.583,1.6-.146,1.167-.438,8.712-4.342-35.7,211.6,34.13,3.209,27.292,2.572.2-8.66H971l-.092,9.58,68.475-4.075-31.272-194.017.642.467,3.792,4.084,1.021-.292.146,3.938-.064,2.161.939,3.09,1.893.916.295,5.21,7.293,2.042,4.084-11.522-2.382-9.863,1.215-.347,1.458-9.918-13.565-47.986-10.341-37.13-39.76-26.333Z" fill="#fff"/>
      </g>
      <g id="Group_6666" data-name="Group 6666">
        <path id="Path_10880" data-name="Path 10880" d="M965.811,2391.48v3.624l-.232,2.409-.292,1.75.146,2.48.583,3.354,1.021,3.209,1.75,1.6,2.771,1.167,3.209.146,4.23-.292,1.459-.437,1.9-1.021,1.458-1.75,1.021-2.917-.146-4.084v-.583h-.438v1.6l-.438,1.9-.583,1.9-2.042,2.042L979,2408.6l-3.912.519-3.381-.227-2.188-1.021-1.313-1.312-1.167-2.334-.315-3.218v-9.58Z" fill="#e4122c"/>
      </g>
      <g id="Group_6667" data-name="Group 6667">
        <path id="Path_10881" data-name="Path 10881" d="M956.016,2165.6l-6.992,225.858,21.894,0,.252-238.444-10.221,4.56.839,1.609-4.667,5.1Z" fill="#e4122c"/>
      </g>
      <g id="Group_6668" data-name="Group 6668">
        <path id="Path_10882" data-name="Path 10882" d="M1006.176,2104.462l-1.679-2.511-3.162-2.808-1.48-.779-2.684-1.062-2.664-.125-.5.061-3.975-3.817.486-1.183-.437-1.459-2.334-12.252-.292-15.336,3,.081-.957-14.061h-4.672s-6.558-10.648-19.394-10.5-19.96,10.515-19.96,10.515l-4.106-.013-1.507,14.061,2.615.005-.385,14.391-4.617,11.5-.668,2.02,1.233,4.35-4.3,3.334-.578.193-.691.032-5.688,1.021-4.376.292-1.6.437-1.6,1.021-1.053,1.065-.843,1.533-.908,2.527-.551,3.481-.145,2.625-.049,3.014.194,2.091,3.475,12.447,7.186,25.2,18.365-8.622,8.168-1.458.732,1.183.31-2.491.27-2.339.146-1.312,1.864-3.479.032-.751,17.665.243,16.465-15.266,8.731-8.029,2.444-2.412,2.843-3.352S1006.662,2105.165,1006.176,2104.462Z" fill="#fff"/>
      </g>
      <g id="Group_6669" data-name="Group 6669">
        <path id="Path_10883" data-name="Path 10883" d="M949.222,2063.272l-4.439,9.373-2.539-.746-2.217,64.89h50.666l-3.2-64.39-3.532.8-3.458-9.924Z" fill="#fff"/>
      </g>
      <g id="Group_6670" data-name="Group 6670">
        <path id="Path_10884" data-name="Path 10884" d="M941.367,2049.21l-1.507,14.062h50.6l-1.167-14.062Z" fill="#fff"/>
      </g>
      <g id="Group_6763" data-name="Group 6763">
        <g id="Group_6672" data-name="Group 6672" opacity="0.09">
          <g id="Group_6671" data-name="Group 6671">
            <path id="Path_10885" data-name="Path 10885" d="M990.694,2136.788l-.081,1-49.978,3.154-3.83.219,5.147-62.4-.637,19.218-1.287,38.805Z" fill="#1c1c1e"/>
          </g>
        </g>
        <g id="Group_6674" data-name="Group 6674">
          <g id="Group_6673" data-name="Group 6673">
            <path id="Path_10886" data-name="Path 10886" d="M1012.383,2207.788l-7.8-8.247-.011-.074-10.406-65.912.483-.076,10.394,65.838,7.479,7.913,14.194-4.567,1.5-9.6-23.915-85.235.47-.132,23.946,85.336-.009.053-1.552,9.949-.144.047Z" fill="#1c1c1e"/>
          </g>
        </g>
        <g id="Group_6676" data-name="Group 6676">
          <g id="Group_6675" data-name="Group 6675">
            <path id="Path_10887" data-name="Path 10887" d="M1019.994,2208" fill="none" stroke="#020000" stroke-miterlimit="10" stroke-width="0.5"/>
          </g>
        </g>
        <g id="Group_6678" data-name="Group 6678">
          <g id="Group_6677" data-name="Group 6677">
            <path id="Path_10888" data-name="Path 10888" d="M970.659,2401.264V2401l.266-249.339h.489l-.266,249.079,67.934-4.081-.606-3.768-30.607-189.944.483-.078,31.3,194.247Z" fill="#1c1c1e"/>
          </g>
        </g>
        <g id="Group_6680" data-name="Group 6680">
          <g id="Group_6679" data-name="Group 6679">
            <path id="Path_10889" data-name="Path 10889" d="M935.908,2399.082l-48.643-4.549.516-3.061L923,2182.233l.481.081L887.834,2394.1l.21.019,47.909,4.48Z" fill="#1c1c1e"/>
          </g>
        </g>
        <g id="Group_6682" data-name="Group 6682">
          <g id="Group_6681" data-name="Group 6681">
            <rect id="Rectangle_9762" data-name="Rectangle 9762" width="21.761" height="0.489" transform="translate(949.023 2391.236)" fill="#1c1c1e"/>
          </g>
        </g>
        <g id="Group_6684" data-name="Group 6684">
          <g id="Group_6683" data-name="Group 6683">
            <path id="Path_10890" data-name="Path 10890" d="M990.726,2063.516H939.574l.028-.271,1.548-14.285h48.428l.017.226Zm-50.608-.488H990.2l-1.072-13.579H941.589Z" fill="#1c1c1e"/>
          </g>
        </g>
        <g id="Group_6686" data-name="Group 6686">
          <g id="Group_6685" data-name="Group 6685">
            <path id="Path_10891" data-name="Path 10891" d="M965.653,2075.3a80.357,80.357,0,0,1-23.4-3.171l-.166-.057v-8.8h.489v8.452c1.968.623,21.08,6.323,44.651.484v-8.936h.489v9.318l-.185.046A90.289,90.289,0,0,1,965.653,2075.3Z" fill="#1c1c1e"/>
          </g>
        </g>
        <g id="Group_6688" data-name="Group 6688">
          <g id="Group_6687" data-name="Group 6687">
            <rect id="Rectangle_9763" data-name="Rectangle 9763" width="10.054" height="0.488" transform="translate(944.786 2072.298) rotate(-65.241)" fill="#1c1c1e"/>
          </g>
        </g>
        <g id="Group_6690" data-name="Group 6690">
          <g id="Group_6689" data-name="Group 6689">
            <rect id="Rectangle_9764" data-name="Rectangle 9764" width="0.49" height="10.517" transform="translate(980.273 2063.353) rotate(-19.335)" fill="#1c1c1e"/>
          </g>
        </g>
        <g id="Group_6692" data-name="Group 6692">
          <g id="Group_6691" data-name="Group 6691">
            <path id="Path_10892" data-name="Path 10892" d="M990.95,2137.032H939.774l.009-.253,2.308-64.886.489.017-2.3,64.633h50.156l-3.206-64.132.489-.025Z" fill="#1c1c1e"/>
          </g>
        </g>
        <g id="Group_6694" data-name="Group 6694">
          <g id="Group_6693" data-name="Group 6693">
            <path id="Path_10893" data-name="Path 10893" d="M945.642,2049.351l-.391-.292a26.784,26.784,0,0,1,3.412-3.7,25.085,25.085,0,0,1,10.412-5.988,24.693,24.693,0,0,1,13.923.289c4.074,1.341,8.015,4.36,12.05,9.229l-.376.311c-3.975-4.8-7.844-7.764-11.827-9.076a24.2,24.2,0,0,0-13.644-.281,24.612,24.612,0,0,0-10.207,5.876A26.367,26.367,0,0,0,945.642,2049.351Z" fill="#1c1c1e"/>
          </g>
        </g>
        <g id="Group_6696" data-name="Group 6696">
          <g id="Group_6695" data-name="Group 6695">
            <path id="Path_10894" data-name="Path 10894" d="M923.9,2107.272l-.309-.378,14.069-11.478-1.1-4.4.028-.072,5.334-13.954.456.174-5.306,13.882,1.139,4.557-.12.1Z" fill="#1c1c1e"/>
          </g>
        </g>
        <g id="Group_6698" data-name="Group 6698">
          <g id="Group_6697" data-name="Group 6697">
            <path id="Path_10895" data-name="Path 10895" d="M956.325,2150.759l-.331-.361c6.3-5.77,11.589-10.7,11.641-10.752l.335.357C967.916,2140.053,962.627,2144.987,956.325,2150.759Z" fill="#1c1c1e"/>
          </g>
        </g>
        <g id="Group_6700" data-name="Group 6700">
          <g id="Group_6699" data-name="Group 6699">
            <path id="Path_10896" data-name="Path 10896" d="M926.268,2155.913l-10.679-37.643c-.059-.5-1.186-11.269,2.86-16a5.926,5.926,0,0,1,4.374-2.153c8.717-.405,11.292-1.809,11.317-1.823l.243.424c-.1.06-2.66,1.475-11.537,1.888a5.449,5.449,0,0,0-4.025,1.982c-3.91,4.571-2.766,15.478-2.755,15.587l10.672,37.6Z" fill="#1c1c1e"/>
          </g>
        </g>
        <g id="Group_6702" data-name="Group 6702">
          <g id="Group_6701" data-name="Group 6701">
            <path id="Path_10897" data-name="Path 10897" d="M990.011,2122.538l-.357-.334c1.861-1.986,3.92-3.822,5.912-5.6.987-.881,2.008-1.792,2.99-2.707a51.722,51.722,0,0,0,4.155-4.308c.711-.837,1.374-1.689,1.973-2.532.091-.128.191-.261.295-.4a3.609,3.609,0,0,0,.975-2.013,2.471,2.471,0,0,0-.824-1.357c-.666-.678-1.331-1.354-2.011-2.019a15.107,15.107,0,0,0-4.639-3.362,8.9,8.9,0,0,0-4.472-.43l-.287.04a7.2,7.2,0,0,0-2.712.758l-.2-.443a7.728,7.728,0,0,1,2.849-.8l.286-.04a9.423,9.423,0,0,1,4.717.46,15.259,15.259,0,0,1,4.8,3.468c.682.666,1.351,1.344,2.018,2.026a2.81,2.81,0,0,1,.964,1.682,4.014,4.014,0,0,1-1.073,2.325c-.1.134-.2.263-.287.387-.607.856-1.279,1.719-2,2.567a52.419,52.419,0,0,1-4.194,4.348c-.987.92-2.01,1.832-3,2.714C993.907,2118.74,991.857,2120.568,990.011,2122.538Z" fill="#1c1c1e"/>
          </g>
        </g>
        <g id="Group_6704" data-name="Group 6704">
          <g id="Group_6703" data-name="Group 6703">
            <rect id="Rectangle_9765" data-name="Rectangle 9765" width="0.489" height="5.589" transform="translate(989.919 2093.507) rotate(-45.921)" fill="#1c1c1e"/>
          </g>
        </g>
        <g id="Group_6706" data-name="Group 6706">
          <g id="Group_6705" data-name="Group 6705">
            <path id="Path_10898" data-name="Path 10898" d="M990.069,2094.081l-.458-.172.6-1.591-2.714-14.116.479-.092,2.74,14.251Z" fill="#1c1c1e"/>
          </g>
        </g>
        <g id="Group_6708" data-name="Group 6708">
          <g id="Group_6707" data-name="Group 6707">
            <path id="Path_10899" data-name="Path 10899" d="M1024.219,2224.968l-7.7-2.231-.009-.175-.443-9.737.489-.023.434,9.562,6.92,2,3.9-11.3-2.293-9.816.475-.111,2.326,9.954Z" fill="#1c1c1e"/>
          </g>
        </g>
        <g id="Group_6710" data-name="Group 6710">
          <g id="Group_6709" data-name="Group 6709">
            <path id="Path_10900" data-name="Path 10900" d="M962.083,2155.621" fill="none" stroke="#000" stroke-miterlimit="10" stroke-width="0.5"/>
          </g>
        </g>
        <g id="Group_6713" data-name="Group 6713">
          <g id="Group_6711" data-name="Group 6711">
            <path id="Rectangle_9766" data-name="Rectangle 9766" d="M5.842,0h5.1a5.842,5.842,0,0,1,5.842,5.842V23.358a7.424,7.424,0,0,1-7.424,7.424H7.424A7.424,7.424,0,0,1,0,23.358V5.842A5.842,5.842,0,0,1,5.842,0Z" transform="translate(956.387 2121.397)" fill="#fff"/>
          </g>
          <g id="Group_6712" data-name="Group 6712">
            <path id="Path_10901" data-name="Path 10901" d="M966.577,2152.338h-3.6a6.76,6.76,0,0,1-6.753-6.752v-21.759a2.591,2.591,0,0,1,2.589-2.589H970.74a2.591,2.591,0,0,1,2.589,2.589v21.759A6.76,6.76,0,0,1,966.577,2152.338Zm-7.761-30.782a2.273,2.273,0,0,0-2.27,2.271v21.759a6.441,6.441,0,0,0,6.434,6.433h3.6a6.441,6.441,0,0,0,6.433-6.433v-21.759a2.274,2.274,0,0,0-2.27-2.271Z" fill="#1c1c1e"/>
          </g>
        </g>
        <g id="Group_6716" data-name="Group 6716">
          <g id="Group_6714" data-name="Group 6714">
            <path id="Path_10902" data-name="Path 10902" d="M953.768,2147.679l.746-6.145,1.759-3.3,2.233,5.152,8.216-4.317,7.929,2.267.31,10.713-14.144,6.311" fill="#fff"/>
          </g>
          <g id="Group_6715" data-name="Group 6715">
            <path id="Path_10903" data-name="Path 10903" d="M960.864,2158.469l-.094-.21,14.074-6.279-.306-10.552-7.8-2.231-8.285,4.353-.05-.114-2.138-4.934-1.637,3.066-.744,6.124-.229-.029.76-6.185,1.87-3.505.1.219,2.184,5.039,8.147-4.281.044.012,8.01,2.29,0,.085.312,10.79Z" fill="#1c1c1e"/>
          </g>
        </g>
        <g id="Group_6718" data-name="Group 6718">
          <g id="Group_6717" data-name="Group 6717">
            <path id="Path_10904" data-name="Path 10904" d="M912.382,2187.931a3.927,3.927,0,0,1-3.079-1.486l-5.233-6.616a7.447,7.447,0,0,1-1.44-6.227l12.783-58.693.477.1-12.783,58.694a6.962,6.962,0,0,0,1.347,5.82l5.233,6.616a3.435,3.435,0,0,0,4.259.921l40.4-20.141c.432-.425,5.745-5.666,7.226-7.714-.82-1.211-5.671-8.575-8.71-13.19l-8.079,1.424L918,2160.151l-.21-.441,26.872-12.743,8.427-1.486.089.134c2.992,4.545,8.7,13.2,8.879,13.445l.134.144-.124.146c-1.408,2.05-7.165,7.708-7.41,7.949l-.062.043L914.166,2187.5A3.882,3.882,0,0,1,912.382,2187.931Z" fill="#1c1c1e"/>
          </g>
        </g>
        <g id="Group_6720" data-name="Group 6720">
          <g id="Group_6719" data-name="Group 6719">
            <path id="Path_10905" data-name="Path 10905" d="M1016.4,2217.435l-2.141-1.133-.844-3.381-.008-5.89h.489v5.831l.784,3.11,1.949,1.032Z" fill="#1c1c1e"/>
          </g>
        </g>
        <g id="Group_6722" data-name="Group 6722">
          <g id="Group_6721" data-name="Group 6721">
            <path id="Path_10906" data-name="Path 10906" d="M945.254,2409.329a11.831,11.831,0,0,1-5.714-1.238,7.005,7.005,0,0,1-3.557-5.036,10.947,10.947,0,0,1-.242-3.676,4.5,4.5,0,0,1,.084-.553h.583a1.33,1.33,0,0,0-.182.616,10.484,10.484,0,0,0,.236,3.512,6.541,6.541,0,0,0,3.313,4.708,12.884,12.884,0,0,0,6.868,1.137,8.995,8.995,0,0,0,3.466-.682c2.192-1.065,2.9-4.059,3.116-6.383a42.525,42.525,0,0,0,.044-5.245c-.04-1.246-.082-2.534-.043-3.8.005-.131.006-.3.007-.475,0-.266,0-.546.015-.745l.489.031c-.012.191-.013.461-.015.717,0,.18,0,.353-.007.488-.039,1.254,0,2.535.043,3.773a43.113,43.113,0,0,1-.046,5.3c-.319,3.513-1.492,5.857-3.389,6.778a9.426,9.426,0,0,1-3.653.732C946.222,2409.311,945.747,2409.329,945.254,2409.329Z" fill="#1c1c1e"/>
          </g>
        </g>
        <g id="Group_6724" data-name="Group 6724">
          <g id="Group_6723" data-name="Group 6723">
            <path id="Path_10907" data-name="Path 10907" d="M946.269,2411.514a24.754,24.754,0,0,1-3.513-.291l-.264-.037c-1.667-.239-3.555-.509-4.91-1.637a5.91,5.91,0,0,1-1.765-2.678,16.68,16.68,0,0,1-.177-8.071c.022-.116.132.014.185-.12h.437c-.041.1-.125.125-.143.214a16.19,16.19,0,0,0,.162,7.82,5.4,5.4,0,0,0,1.614,2.459c1.248,1.04,3.064,1.3,4.666,1.529l.266.038c2.858.412,6.438.645,8.77-1.24a6.374,6.374,0,0,0,1.864-2.681,15.357,15.357,0,0,0,.8-3.269,18.421,18.421,0,0,0,.186-5.742,32.668,32.668,0,0,1-.288-5.619c0-.132.025-.548.039-.727l.487.036c-.012.173-.035.572-.037.7a32.109,32.109,0,0,0,.283,5.535,18.885,18.885,0,0,1-.187,5.9,15.761,15.761,0,0,1-.831,3.373,6.855,6.855,0,0,1-2.011,2.881A8.805,8.805,0,0,1,946.269,2411.514Z" fill="#1c1c1e"/>
          </g>
        </g>
        <g id="Group_6726" data-name="Group 6726">
          <g id="Group_6725" data-name="Group 6725">
            <path id="Path_10908" data-name="Path 10908" d="M949.125,2400.318l-13.068-1.222.046-.487,12.548,1.175,7.12-234.187.489.015Z" fill="#1c1c1e"/>
          </g>
        </g>
        <g id="Group_6728" data-name="Group 6728">
          <g id="Group_6727" data-name="Group 6727">
            <path id="Path_10909" data-name="Path 10909" d="M936.056,2399.1l-.149-.014.048-.487.149.014Z" fill="#1c1c1e"/>
          </g>
        </g>
        <g id="Group_6730" data-name="Group 6730">
          <g id="Group_6729" data-name="Group 6729">
            <path id="Path_10910" data-name="Path 10910" d="M971.115,2202.387" fill="#fff" stroke="#020000" stroke-miterlimit="10" stroke-width="0.256"/>
          </g>
        </g>
        <g id="Group_6732" data-name="Group 6732">
          <g id="Group_6731" data-name="Group 6731">
            <path id="Path_10911" data-name="Path 10911" d="M943.048,2394.148" fill="none" stroke="#020000" stroke-miterlimit="10" stroke-width="0.5"/>
          </g>
        </g>
        <g id="Group_6734" data-name="Group 6734">
          <g id="Group_6733" data-name="Group 6733">
            <path id="Path_10912" data-name="Path 10912" d="M949.045,2395.1l-.076-.483a5.35,5.35,0,0,0,3.705-3.156l.45.191C952.994,2391.959,951.775,2394.667,949.045,2395.1Z" fill="#1c1c1e"/>
          </g>
        </g>
        <g id="Group_6736" data-name="Group 6736">
          <g id="Group_6735" data-name="Group 6735">
            <path id="Path_10913" data-name="Path 10913" d="M974.989,2409.329c-.492,0-.968-.018-1.416-.041a9.413,9.413,0,0,1-3.652-.732c-1.9-.921-3.07-3.265-3.39-6.778a43.223,43.223,0,0,1-.046-5.3c.041-1.241.082-2.523.043-3.779,0-.123-.006-.268-.008-.42,0-.254-.006-.527-.019-.729l.489-.031c.012.21.016.491.019.754,0,.149,0,.292.008.411.04,1.271,0,2.561-.043,3.809a42.619,42.619,0,0,0,.044,5.239c.212,2.324.924,5.317,3.117,6.383a8.986,8.986,0,0,0,3.465.682,12.87,12.87,0,0,0,6.869-1.137,6.54,6.54,0,0,0,3.312-4.709,10.746,10.746,0,0,0,.322-2.96l.291.145a9.249,9.249,0,0,1-.133,2.917,7.006,7.006,0,0,1-3.557,5.036A11.832,11.832,0,0,1,974.989,2409.329Z" fill="#1c1c1e"/>
          </g>
        </g>
        <g id="Group_6738" data-name="Group 6738">
          <g id="Group_6737" data-name="Group 6737">
            <path id="Path_10914" data-name="Path 10914" d="M973.975,2411.514a8.81,8.81,0,0,1-5.637-1.634,6.876,6.876,0,0,1-2.011-2.881,15.928,15.928,0,0,1-.831-3.373,18.892,18.892,0,0,1-.186-5.9,32.058,32.058,0,0,0,.283-5.535v-.162c0-.154,0-.359-.008-.478l.487-.038c.011.129.01.352.01.517v.154a32.618,32.618,0,0,1-.289,5.619,18.459,18.459,0,0,0,.186,5.742,15.558,15.558,0,0,0,.8,3.269,6.386,6.386,0,0,0,1.864,2.681c2.331,1.883,5.912,1.651,8.771,1.24l.265-.038c1.6-.23,3.418-.489,4.667-1.529a5.4,5.4,0,0,0,1.613-2.459,14.684,14.684,0,0,0,.287-6.721h.583a15,15,0,0,1-.406,6.878,5.9,5.9,0,0,1-1.764,2.678c-1.357,1.128-3.244,1.4-4.91,1.637l-.264.037A24.766,24.766,0,0,1,973.975,2411.514Z" fill="#1c1c1e"/>
          </g>
        </g>
        <g id="Group_6740" data-name="Group 6740">
          <g id="Group_6739" data-name="Group 6739">
            <path id="Path_10915" data-name="Path 10915" d="M970.923,2394.809a4.9,4.9,0,0,1-3.629-3.036l.448-.192a4.351,4.351,0,0,0,3.257,2.745Z" fill="#1c1c1e"/>
          </g>
        </g>
        <g id="Group_6742" data-name="Group 6742" opacity="0.09">
          <g id="Group_6741" data-name="Group 6741">
            <path id="Path_10916" data-name="Path 10916" d="M981,2064.7H948.563l.659-1.427H980.5Z" fill="#1c1c1e"/>
          </g>
        </g>
        <g id="Group_6744" data-name="Group 6744" opacity="0.09">
          <g id="Group_6743" data-name="Group 6743">
            <path id="Path_10917" data-name="Path 10917" d="M923.748,2106.989l-.5-.73,10.491-7.39Z" fill="#1c1c1e"/>
          </g>
        </g>
        <g id="Group_6746" data-name="Group 6746" opacity="0.09">
          <g id="Group_6745" data-name="Group 6745">
            <path id="Path_10918" data-name="Path 10918" d="M923.242,2182.7l-.8,4.243,33.492-18.659.083-2.683-1.525,1.52Z" fill="#1c1c1e"/>
          </g>
        </g>
        <g id="Group_6748" data-name="Group 6748" opacity="0.09">
          <g id="Group_6747" data-name="Group 6747">
            <path id="Path_10919" data-name="Path 10919" d="M970.2,2153.409l-.142,14.25-3.33,226.658,4.185,6.834.262-248.316Z" fill="#1c1c1e"/>
          </g>
        </g>
        <g id="Group_6750" data-name="Group 6750">
          <g id="Group_6749" data-name="Group 6749">
            <path id="Path_10920" data-name="Path 10920" d="M994.411,2134.509" fill="none" stroke="#020000" stroke-miterlimit="10" stroke-width="0.5"/>
          </g>
        </g>
        <g id="Group_6752" data-name="Group 6752" opacity="0.09">
          <g id="Group_6751" data-name="Group 6751">
            <path id="Path_10921" data-name="Path 10921" d="M994.411,2134.967l7.937,65.231,6.2,5.859-.435-3.145-3.294-3.484Z" fill="#1c1c1e"/>
          </g>
        </g>
        <g id="Group_6754" data-name="Group 6754" opacity="0.09">
          <g id="Group_6753" data-name="Group 6753">
            <path id="Path_10922" data-name="Path 10922" d="M995.348,2117.108l-5.609,5.45.094,1.118,15.617-12.662-.913-3.253-2.967,3.5-3.249,3.174-2.974,2.675" fill="#1c1c1e"/>
          </g>
        </g>
        <g id="Group_6756" data-name="Group 6756" opacity="0.09">
          <g id="Group_6755" data-name="Group 6755">
            <path id="Path_10923" data-name="Path 10923" d="M990.883,2098.1l.3,1.044s4.41-3.133,8.425-.743C999.61,2098.4,996.8,2095.754,990.883,2098.1Z" fill="#1c1c1e"/>
          </g>
        </g>
        <g id="Group_6758" data-name="Group 6758" opacity="0.09">
          <g id="Group_6757" data-name="Group 6757">
            <path id="Path_10924" data-name="Path 10924" d="M1025.893,2203.814l-12.245,6.341v-3.089l12.025-3.832Z" fill="#1c1c1e"/>
          </g>
        </g>
        <g id="Group_6760" data-name="Group 6760" opacity="0.09">
          <g id="Group_6759" data-name="Group 6759">
            <path id="Path_10925" data-name="Path 10925" d="M914.856,2118.392l9.53,38.46,2.117-1-10.656-37.37-.2-3.174Z" fill="#1c1c1e"/>
          </g>
        </g>
        <g id="Group_6762" data-name="Group 6762" opacity="0.09">
          <g id="Group_6761" data-name="Group 6761">
            <path id="Path_10926" data-name="Path 10926" d="M938.038,2095.534l-.556-5.951-.575,1.407Z" fill="#1c1c1e"/>
          </g>
        </g>
      </g>
    </g>
    <g id="Group_1153" data-name="Group 1153">
      <g id="Group_1146" data-name="Group 1146">
        <g id="Path_3612" data-name="Path 3612">
          <path id="Path_10927" data-name="Path 10927" d="M1283.444,2159.622h-32.195a7.149,7.149,0,0,0-7.14,7.14v13.981a7.149,7.149,0,0,0,7.14,7.14h32.195a7.149,7.149,0,0,0,7.14-7.14v-13.984A7.149,7.149,0,0,0,1283.444,2159.622Zm4.65,21.12a4.664,4.664,0,0,1-4.65,4.65h-32.195a4.664,4.664,0,0,1-4.65-4.65v-13.983a4.663,4.663,0,0,1,4.65-4.65h32.195a4.663,4.663,0,0,1,4.65,4.65Z"/>
        </g>
      </g>
      <g id="Group_1147" data-name="Group 1147">
        <g id="Path_3613" data-name="Path 3613">
          <path id="Path_10928" data-name="Path 10928" d="M1267.339,2168.156a5.6,5.6,0,1,0,5.6,5.6A5.6,5.6,0,0,0,1267.339,2168.156Zm0,7.871a2.275,2.275,0,1,1,2.274-2.275h0A2.279,2.279,0,0,1,1267.339,2176.027Z"/>
        </g>
      </g>
      <g id="Group_1148" data-name="Group 1148">
        <g id="Ellipse_50" data-name="Ellipse 50">
          <circle id="Ellipse_227" data-name="Ellipse 227" cx="1.773" cy="1.773" r="1.773" transform="translate(1279.374 2171.981)"/>
        </g>
      </g>
      <g id="Group_1149" data-name="Group 1149">
        <g id="Ellipse_51" data-name="Ellipse 51">
          <circle id="Ellipse_228" data-name="Ellipse 228" cx="1.773" cy="1.773" r="1.773" transform="translate(1251.769 2171.981)"/>
        </g>
      </g>
      <g id="Group_1150" data-name="Group 1150">
        <g id="Path_3614" data-name="Path 3614">
          <path id="Path_10929" data-name="Path 10929" d="M1267.345,2157.284a1.245,1.245,0,0,1-1.245-1.245h0v-12.244a1.245,1.245,0,0,1,2.49,0v12.242A1.247,1.247,0,0,1,1267.345,2157.284Z" fill="#e4122c"/>
        </g>
      </g>
      <g id="Group_1151" data-name="Group 1151">
        <g id="Path_3615" data-name="Path 3615">
          <path id="Path_10930" data-name="Path 10930" d="M1273.986,2157.284a1.247,1.247,0,0,1-1.245-1.245v-8.581a1.246,1.246,0,0,1,2.491,0v8.581A1.247,1.247,0,0,1,1273.986,2157.284Z" fill="#e4122c"/>
        </g>
      </g>
      <g id="Group_1152" data-name="Group 1152">
        <g id="Path_3616" data-name="Path 3616">
          <path id="Path_10931" data-name="Path 10931" d="M1260.7,2157.284a1.246,1.246,0,0,1-1.245-1.245v-6.922a1.245,1.245,0,0,1,2.49,0v6.922A1.247,1.247,0,0,1,1260.7,2157.284Z" fill="#e4122c"/>
        </g>
      </g>
    </g>
    <g id="Group_6775" data-name="Group 6775">
      <g id="Group_6771" data-name="Group 6771">
        <g id="Group_6765" data-name="Group 6765">
          <path id="Path_10932" data-name="Path 10932" d="M1097.991,2096.282l-2.083-1.277-4.753,1.277-2.136,2.613,5.928,23.028,3.044,2.029c-.16-.107,5.608-2.029,5.608-2.029l.961-2.884Z" fill="#e4122c"/>
        </g>
        <g id="Group_6770" data-name="Group 6770">
          <g id="Group_6766" data-name="Group 6766">
            <path id="Path_10933" data-name="Path 10933" d="M1088,2099.065c.045-.126.1-.249.134-.378a4.071,4.071,0,0,1,2.913-3.028c1.2-.362,2.407-.678,3.614-1a4.474,4.474,0,0,1,2.692.167c.167.059.329.129.508.2a31.021,31.021,0,0,1,5.67-2.885,14.878,14.878,0,0,0,1.849-.952,3.644,3.644,0,0,0,1.707-2.8,16.365,16.365,0,0,0-.192-4.154,19.742,19.742,0,0,1-.181-5.4,8.73,8.73,0,0,1,1.807-4.22,5.382,5.382,0,0,1,6.336-1.37,4.312,4.312,0,0,1,2.235,2.8q.969,3.438,1.91,6.882c.545,2.009,1.063,4.025,1.608,6.094q1.443-.384,2.9-.773,9.513-2.557,19.025-5.114a4.946,4.946,0,0,1,6.136,3.054,5.013,5.013,0,0,1-3.409,6.679c-2.407.671-4.837,1.262-7.256,1.891-.13.034-.255.085-.4.135a5.1,5.1,0,0,1-1.109,8.835c1.718,1.514,2.586,3.317,1.833,5.6a5.265,5.265,0,0,1-4.681,3.724l-.027.181a1.609,1.609,0,0,1,.3.162,4.717,4.717,0,0,1,1.73,4.678,4.785,4.785,0,0,1-3.382,3.888c-1.624.517-3.291.9-4.938,1.341a55.459,55.459,0,0,1-7.868,1.6,22.174,22.174,0,0,1-8.784-.773c-1.831-.524-3.656-1.066-5.485-1.6-.207-.06-.417-.107-.645-.164a5.148,5.148,0,0,1-2.72,1.417c-.905.223-1.8.5-2.7.745a4.289,4.289,0,0,1-5.407-3.1q-2.784-10.191-5.548-20.388c-.051-.188-.114-.373-.172-.56Zm17.49,21.619c.094.072.121.107.155.117,2.054.606,4.095,1.257,6.165,1.8a19.459,19.459,0,0,0,6.672.589,39.842,39.842,0,0,0,6.158-1.045c2.347-.583,4.677-1.24,7.007-1.89a3.079,3.079,0,0,0,2.244-2.724,3.167,3.167,0,0,0-1.61-3.085,3.293,3.293,0,0,0-2.344-.383.854.854,0,0,1-1.146-.563.965.965,0,0,1,.729-1.224c.419-.122.842-.229,1.263-.342,1.321-.357,2.664-.65,3.958-1.087a3.158,3.158,0,0,0,1.893-3.886,3.368,3.368,0,0,0-3.748-2.216c-1.006.3-2.034.534-3.052.8-.71.184-1.416.387-2.132.546a.82.82,0,0,1-.976-.387.931.931,0,0,1,.108-1.056,1.621,1.621,0,0,1,.661-.359c1.3-.363,2.6-.7,3.907-1.047,1.381-.367,2.768-.708,4.139-1.106a3.122,3.122,0,0,0,2.3-3.233,2.991,2.991,0,0,0-2.551-3,4.985,4.985,0,0,0-1.88.071c-2.421.618-4.823,1.31-7.233,1.971a4.705,4.705,0,0,1-.753.17.8.8,0,0,1-.919-.581,1,1,0,0,1,.487-1.167,3.947,3.947,0,0,1,.57-.167l15.759-4.178c1.189-.315,2.383-.612,3.564-.954a3.3,3.3,0,0,0,2.292-3.8,3.239,3.239,0,0,0-4.135-2.36c-5.13,1.392-10.275,2.731-15.414,4.09q-3.6.951-7.192,1.9c-.777.2-1.151,0-1.385-.77-.18-.588-.362-1.176-.519-1.77q-1.512-5.755-3.013-11.513a2.825,2.825,0,0,0-2.343-2.245,3.172,3.172,0,0,0-3.1,1.083,6.077,6.077,0,0,0-1.318,2.377,11.908,11.908,0,0,0-.18,5.137,21.78,21.78,0,0,1,.3,5.336,5.291,5.291,0,0,1-2.476,4.139,20.838,20.838,0,0,1-2.213,1.153c-1.06.493-2.151.922-3.208,1.421-.567.267-1.091.624-1.585.912a15.3,15.3,0,0,1,.757,1.824q2.576,9.565,5.108,19.142A5.819,5.819,0,0,1,1105.49,2120.684Zm-9.868-24.4c-.29.051-.586.082-.87.157-.921.241-1.84.489-2.753.754a4.362,4.362,0,0,0-.936.373,2.434,2.434,0,0,0-1.19,2.68q2.709,10.2,5.42,20.408a3.036,3.036,0,0,0,.945,1.617,2.268,2.268,0,0,0,2.095.579c1.189-.31,2.37-.65,3.55-1a2.423,2.423,0,0,0,1.815-3.2c-1.8-6.76-3.618-13.513-5.389-20.279A2.667,2.667,0,0,0,1095.622,2096.282Z"/>
          </g>
          <g id="Group_6767" data-name="Group 6767">
            <path id="Path_10934" data-name="Path 10934" d="M1140.211,2066.647c-.036.12-.066.257-.118.384q-2.09,5.06-4.183,10.119a1.023,1.023,0,0,1-.892.685.805.805,0,0,1-.889-1.1c.256-.708.562-1.4.85-2.094q1.661-4.014,3.327-8.026a2.277,2.277,0,0,1,.388-.658.729.729,0,0,1,.924-.159A.99.99,0,0,1,1140.211,2066.647Z"/>
          </g>
          <g id="Group_6768" data-name="Group 6768">
            <path id="Path_10935" data-name="Path 10935" d="M1118.736,2066.785a.962.962,0,0,1,.708-1.055.857.857,0,0,1,.94.47,4.915,4.915,0,0,1,.269.6q1.969,4.755,3.937,9.511c.03.074.062.146.091.22a.906.906,0,0,1-.321,1.242,1.077,1.077,0,0,1-1.3-.442,3.049,3.049,0,0,1-.224-.485q-1.957-4.728-3.91-9.458C1118.833,2067.149,1118.773,2066.9,1118.736,2066.785Z"/>
          </g>
          <g id="Group_6769" data-name="Group 6769">
            <path id="Path_10936" data-name="Path 10936" d="M1128.543,2071.549q0-2.533,0-5.067a3.3,3.3,0,0,1,.019-.535.861.861,0,0,1,.873-.743.826.826,0,0,1,.873.728,3.073,3.073,0,0,1,.022.535q0,5.1,0,10.192c0,.119.006.239,0,.357a.822.822,0,0,1-.845.819.861.861,0,0,1-.933-.8c-.015-.158-.006-.318-.006-.477Z"/>
          </g>
        </g>
      </g>
      <g id="Group_6774" data-name="Group 6774">
        <g id="Group_6772" data-name="Group 6772">
          <circle id="Ellipse_229" data-name="Ellipse 229" cx="10" cy="10" r="10" transform="translate(1069.889 2064.111)" fill="#e4122c"/>
        </g>
        <g id="Group_6773" data-name="Group 6773">
          <circle id="Ellipse_230" data-name="Ellipse 230" cx="4" cy="4" r="4" transform="translate(1159.889 2110.111)" fill="#e4122c"/>
        </g>
      </g>
    </g>
    <g id="Group_6776" data-name="Group 6776">
      <g id="users">
        <path id="Path_10937" data-name="Path 10937" d="M1169.878,2287.346a8.243,8.243,0,1,1,8.244-8.243,8.242,8.242,0,0,1-8.244,8.243Zm-2.6,3.7a12.5,12.5,0,0,0-8.556,5.187,17.469,17.469,0,0,1,9,9.43h12.23a1.832,1.832,0,0,0,1.832-1.832h0v-.071a12.839,12.839,0,0,0-14.509-12.712Z" fill="#e4122c"/>
      </g>
      <g id="users-2">
        <path id="Path_10938" data-name="Path 10938" d="M1151.56,2294.673a8.243,8.243,0,1,1,8.243-8.243h0A8.243,8.243,0,0,1,1151.56,2294.673Zm11.906,20.149h-23.812a1.832,1.832,0,0,1-1.832-1.832h0v-.916a13.738,13.738,0,1,1,27.476,0v.916a1.832,1.832,0,0,1-1.832,1.832Z" fill="#1c1c1e"/>
      </g>
    </g>
    <g id="Group_4716" data-name="Group 4716">
      <g id="Path_22-2-2" data-name="Path 22">
        <path id="Path_10939" data-name="Path 10939" d="M894,2075.134a7.712,7.712,0,0,1-1.512-.121,9.257,9.257,0,0,1-7.374-6.6,6.842,6.842,0,0,1-.2-.876,9.039,9.039,0,0,1-.147-1.624,9.206,9.206,0,0,1,7.721-9.1,9.71,9.71,0,0,1,1.5-.122h.016a9.209,9.209,0,0,1,8.854,11.717,8.917,8.917,0,0,1-1.444,2.961,8.751,8.751,0,0,1-1.1,1.241A9.136,9.136,0,0,1,894,2075.134Zm-.053-17.439a8.037,8.037,0,0,0-1.269.1,8.364,8.364,0,0,0-2.28.72,8.263,8.263,0,0,0-4.631,7.4,8.154,8.154,0,0,0,.132,1.454,6.054,6.054,0,0,0,.175.766,8.256,8.256,0,0,0,6.576,5.891,6.376,6.376,0,0,0,1.349.108,8.142,8.142,0,0,0,5.631-2.248,7.775,7.775,0,0,0,.98-1.106,7.92,7.92,0,0,0,1.287-2.638,8.147,8.147,0,0,0,.311-2.231h0a8.22,8.22,0,0,0-8.2-8.215Z" fill="#e4122c"/>
      </g>
      <g id="Group_51-2-2" data-name="Group 51">
        <g id="Path_2-2-2" data-name="Path 2">
          <path id="Path_10940" data-name="Path 10940" d="M877.449,2067.985H867.5a2.037,2.037,0,0,1-2.036-2.035v-21.41a7.037,7.037,0,0,1,2.047-4.961,6.967,6.967,0,0,1,4.951-2.046h21.4a2.069,2.069,0,0,1,2.054,2.019v9.958a2.043,2.043,0,0,1-.6,1.443,2.291,2.291,0,0,1-1.441.6h-14.39v14.4a2.037,2.037,0,0,1-2.035,2.036Zm-9.952-1h9.952a1.037,1.037,0,0,0,1.035-1.036v-15.4h15.391a1.017,1.017,0,0,0,.733-.3,1.038,1.038,0,0,0,.306-.734v-9.948a1.035,1.035,0,0,0-.313-.719,1.048,1.048,0,0,0-.739-.311h-21.4a5.987,5.987,0,0,0-6,6.006v21.41a1.037,1.037,0,0,0,1.037,1.036Z" fill="#e4122c"/>
        </g>
      </g>
    </g>
  </g>
</svg>
