<svg xmlns="http://www.w3.org/2000/svg" width="516.753" height="526.364" viewBox="0 0 516.753 526.364">
  <g id="Group_6952" data-name="Group 6952" transform="translate(-855.454 -1299)">
    <g id="Group_3857" data-name="Group 3857">
      <g id="Group_3842" data-name="Group 3842">
        <g id="Path_22" data-name="Path 22">
          <path id="Path_10941" data-name="Path 10941" d="M861.732,1711.241h-.039a6.25,6.25,0,0,1-6.239-6.255h0a6.237,6.237,0,0,1,.235-1.7,6.057,6.057,0,0,1,.98-2.007,5.948,5.948,0,0,1,.747-.842,6.2,6.2,0,0,1,4.283-1.708,8.677,8.677,0,0,1,1.024.082,6.28,6.28,0,0,1,5,4.476,4.68,4.68,0,0,1,.136.6,6.134,6.134,0,0,1,.1,1.1,6.247,6.247,0,0,1-5.237,6.172A5.939,5.939,0,0,1,861.732,1711.241Zm-.027-1a5.191,5.191,0,0,0,.837-.065,5.258,5.258,0,0,0,4.417-5.19,5.167,5.167,0,0,0-.084-.929,3.609,3.609,0,0,0-.111-.487,5.278,5.278,0,0,0-4.2-3.768,7.91,7.91,0,0,0-.863-.069,5.2,5.2,0,0,0-3.6,1.436,5.2,5.2,0,0,0-1.449,2.39,5.229,5.229,0,0,0-.2,1.426v0a5.249,5.249,0,0,0,5.242,5.254Z" fill="#e4122c"/>
        </g>
        <g id="Group_51" data-name="Group 51">
          <g id="Path_2" data-name="Path 2">
            <path id="Path_10942" data-name="Path 10942" d="M875.911,1723.881H861.79a1.535,1.535,0,0,1-1.524-1.5v-6.572a1.523,1.523,0,0,1,1.518-1.518h9.325v-9.33a1.526,1.526,0,0,1,1.517-1.516h6.566a1.516,1.516,0,0,1,1.514,1.514v14.126a4.792,4.792,0,0,1-4.795,4.8Zm-14.645-1.512a.514.514,0,0,0,.154.353.52.52,0,0,0,.37.159h14.121a3.791,3.791,0,0,0,3.795-3.8v-14.127a.514.514,0,0,0-.514-.514h-6.565a.5.5,0,0,0-.362.152.518.518,0,0,0-.156.366v10.328H861.784a.508.508,0,0,0-.362.151.517.517,0,0,0-.156.367Z" fill="#e4122c"/>
          </g>
        </g>
      </g>
      <g id="Group_3844" data-name="Group 3844">
        <g id="Path_22-2" data-name="Path 22-2">
          <path id="Path_10943" data-name="Path 10943" d="M861.7,1753.119a6.2,6.2,0,0,1-4.285-1.711,5.933,5.933,0,0,1-.745-.842,6.057,6.057,0,0,1-.979-2.007,6.25,6.25,0,0,1,6.008-7.948h.04a6.127,6.127,0,0,1,.966.077,6.37,6.37,0,0,1,1.734.549,6.287,6.287,0,0,1,3.523,5.629,6.163,6.163,0,0,1-.1,1.109,4.534,4.534,0,0,1-.137.594,6.274,6.274,0,0,1-5,4.467A6.633,6.633,0,0,1,861.7,1753.119Zm0-11.508a5.249,5.249,0,0,0-5.246,5.253v0a5.216,5.216,0,0,0,.2,1.423,5.066,5.066,0,0,0,.821,1.684,4.967,4.967,0,0,0,.625.706,5.122,5.122,0,0,0,3.609,1.44,5.353,5.353,0,0,0,.857-.07,5.273,5.273,0,0,0,4.2-3.759,3.8,3.8,0,0,0,.112-.484,5.256,5.256,0,0,0-2.875-5.669,5.207,5.207,0,0,0-1.438-.456,4.314,4.314,0,0,0-.853-.07Z" fill="#e4122c"/>
        </g>
        <g id="Group_51-2" data-name="Group 51-2">
          <g id="Path_2-2" data-name="Path 2-2">
            <path id="Path_10944" data-name="Path 10944" d="M879.191,1748.408h-6.565a1.514,1.514,0,0,1-1.073-.449,1.5,1.5,0,0,1-.445-1.066v-9.331h-9.324a1.524,1.524,0,0,1-1.518-1.518v-6.572a1.534,1.534,0,0,1,1.521-1.5H875.91a4.792,4.792,0,0,1,4.8,4.8v14.125A1.515,1.515,0,0,1,879.191,1748.408Zm-17.925-18.925v6.561a.5.5,0,0,0,.151.361.51.51,0,0,0,.367.157h10.324v10.33a.524.524,0,0,0,.518.516h6.565a.514.514,0,0,0,.514-.514v-14.126a3.792,3.792,0,0,0-3.8-3.8H861.788a.533.533,0,0,0-.522.512Z" fill="#e4122c"/>
          </g>
        </g>
      </g>
      <g id="Group_3843" data-name="Group 3843">
        <g id="Path_22-3" data-name="Path 22-3">
          <path id="Path_10945" data-name="Path 10945" d="M903.748,1711.241a6.167,6.167,0,0,1-.967-.077,6.26,6.26,0,0,1-5.259-6.179,6.167,6.167,0,0,1,.1-1.108,4.663,4.663,0,0,1,.136-.594,6.274,6.274,0,0,1,5-4.467,4.339,4.339,0,0,1,1.025-.083,6.193,6.193,0,0,1,4.287,1.712,5.818,5.818,0,0,1,.746.842,6.022,6.022,0,0,1,.978,2.006,6.162,6.162,0,0,1,.234,1.693,6.247,6.247,0,0,1-6.241,6.255Zm.034-11.508a4.411,4.411,0,0,0-.864.07,5.272,5.272,0,0,0-4.2,3.759,3.68,3.68,0,0,0-.112.485,5.182,5.182,0,0,0-.086.938,5.253,5.253,0,0,0,4.4,5.187,6.526,6.526,0,0,0,.853.069h.009a5.246,5.246,0,0,0,5.244-5.254v0a5.235,5.235,0,0,0-.2-1.423,5.09,5.09,0,0,0-.821-1.683,5.018,5.018,0,0,0-.626-.706A5.206,5.206,0,0,0,903.782,1699.733Z" fill="#e4122c"/>
        </g>
        <g id="Group_51-3" data-name="Group 51-3">
          <g id="Path_2-3" data-name="Path 2-3">
            <path id="Path_10946" data-name="Path 10946" d="M903.69,1723.881H889.569a4.792,4.792,0,0,1-4.795-4.8v-14.125a1.516,1.516,0,0,1,1.514-1.514h6.566a1.524,1.524,0,0,1,1.517,1.515v9.331H903.7a1.5,1.5,0,0,1,1.074.448,1.516,1.516,0,0,1,.444,1.07v6.572a1.535,1.535,0,0,1-1.524,1.5Zm-17.4-19.437a.514.514,0,0,0-.514.514v14.126a3.791,3.791,0,0,0,3.795,3.8H903.69a.509.509,0,0,0,.362-.151.519.519,0,0,0,.162-.361v-6.561a.524.524,0,0,0-.518-.518H893.371v-10.33a.524.524,0,0,0-.518-.516Z" fill="#e4122c"/>
          </g>
        </g>
      </g>
      <g id="Group_3845" data-name="Group 3845">
        <g id="Path_22-4" data-name="Path 22-4">
          <path id="Path_10947" data-name="Path 10947" d="M903.783,1753.119h-.011a6.427,6.427,0,0,1-1.015-.082,6.281,6.281,0,0,1-5-4.475,4.566,4.566,0,0,1-.136-.6,6.137,6.137,0,0,1-.1-1.1,6.253,6.253,0,0,1,5.238-6.172,6.27,6.27,0,0,1,5.31,1.624,6.265,6.265,0,0,1,1.723,6.245,6.213,6.213,0,0,1-1.727,2.849A6.2,6.2,0,0,1,903.783,1753.119Zm-.033-11.508a5.082,5.082,0,0,0-.812.064,5.354,5.354,0,0,0-1.457.462,5.281,5.281,0,0,0-2.96,4.728,5.175,5.175,0,0,0,.084.93,3.772,3.772,0,0,0,.111.487,5.279,5.279,0,0,0,4.2,3.768,5.086,5.086,0,0,0,.863.069,5.2,5.2,0,0,0,3.6-1.437,4.989,4.989,0,0,0,.626-.706,5.072,5.072,0,0,0,.823-1.683,5.237,5.237,0,0,0,.2-1.427v0a5.25,5.25,0,0,0-5.242-5.253Z" fill="#e4122c"/>
        </g>
        <g id="Group_51-4" data-name="Group 51-4">
          <g id="Path_2-4" data-name="Path 2-4">
            <path id="Path_10948" data-name="Path 10948" d="M892.854,1748.408h-6.566a1.516,1.516,0,0,1-1.514-1.514v-14.126a4.792,4.792,0,0,1,4.795-4.8h14.124a1.517,1.517,0,0,1,1.071.449,1.488,1.488,0,0,1,.45,1.052v6.572a1.52,1.52,0,0,1-.448,1.074,1.5,1.5,0,0,1-1.07.444h-9.325v9.33a1.524,1.524,0,0,1-1.517,1.516Zm-3.285-19.437a3.792,3.792,0,0,0-3.795,3.8v14.127a.515.515,0,0,0,.514.514h6.566a.524.524,0,0,0,.517-.517v-10.329H903.7a.522.522,0,0,0,.518-.518v-6.561a.5.5,0,0,0-.154-.353.515.515,0,0,0-.368-.159H889.569Z" fill="#e4122c"/>
          </g>
        </g>
      </g>
    </g>
    <g id="Rectangle_3699" data-name="Rectangle 3699">
      <path id="Path_10949" data-name="Path 10949" d="M1332,1585H1194V1313a14,14,0,0,1,14-14h110a14,14,0,0,1,14,14v272Z" fill="#efefef"/>
    </g>
    <g id="Group_6782" data-name="Group 6782">
      <g id="Group_6778" data-name="Group 6778">
        <path id="Path_10950" data-name="Path 10950" d="M1278.654,1825.364h-185.8a22.925,22.925,0,0,1-22.9-22.9V1368.049a22.925,22.925,0,0,1,22.9-22.9h185.8a22.924,22.924,0,0,1,22.9,22.9v434.416A22.924,22.924,0,0,1,1278.654,1825.364Zm-185.8-478.514a21.223,21.223,0,0,0-21.2,21.2v434.416a21.222,21.222,0,0,0,21.2,21.2h185.8a21.223,21.223,0,0,0,21.2-21.2V1368.049a21.223,21.223,0,0,0-21.2-21.2Z" fill="#1c1c1e"/>
      </g>
      <g id="Group_6779" data-name="Group 6779">
        <path id="Path_10951" data-name="Path 10951" d="M1275.012,1801.471H1096.5a18.086,18.086,0,0,1-18.065-18.066V1393.567A18.086,18.086,0,0,1,1096.5,1375.5h178.511a18.087,18.087,0,0,1,18.066,18.066v389.838A18.087,18.087,0,0,1,1275.012,1801.471ZM1096.5,1377.2a16.385,16.385,0,0,0-16.365,16.366v389.838a16.385,16.385,0,0,0,16.365,16.366h178.511a16.384,16.384,0,0,0,16.365-16.366V1393.567a16.384,16.384,0,0,0-16.365-16.366Z" fill="#1c1c1e"/>
      </g>
      <g id="Group_6780" data-name="Group 6780">
        <path id="Path_10952" data-name="Path 10952" d="M1115.072,1365.227a4.133,4.133,0,1,1,4.132-4.132A4.137,4.137,0,0,1,1115.072,1365.227Zm0-7.265a3.133,3.133,0,1,0,3.132,3.133A3.137,3.137,0,0,0,1115.072,1357.962Z" fill="#1c1c1e"/>
      </g>
      <g id="Group_6781" data-name="Group 6781">
        <path id="Path_10953" data-name="Path 10953" d="M1200.649,1365.577h-29.786a4.482,4.482,0,0,1,0-8.965h29.786a4.482,4.482,0,1,1,0,8.965Zm-29.786-7.264a2.782,2.782,0,0,0,0,5.564h29.786a2.782,2.782,0,1,0,0-5.564Z" fill="#1c1c1e"/>
      </g>
    </g>
    <g id="Group_6922" data-name="Group 6922">
      <g id="Group_6783" data-name="Group 6783">
        <path id="Path_10954" data-name="Path 10954" d="M966.14,1783.156l.728,7.694.034,17.367-.095,1.67.374.8.893.893,3.572,1.042,4.018.6h4.613l3.869-.744,1.637-.6,1.191-1.042.446-2.381-.14-.62-3.55-10.347-3.454-9.536.181-.145.15-5.466Z" fill="#fff"/>
      </g>
      <g id="Group_6784" data-name="Group 6784">
        <path id="Path_10955" data-name="Path 10955" d="M967.033,1802.353l-.071,3.052,1.559-1.713,1.637-1.19,1.488-.893,2.827-.893,3.423.149,3.571.893,3.125,1.637,1.592,1.164-1-2.8-1.935-1.488-1.786-.893-1.984-.676-1.736-.366-2.448.066-2.761.678-2.232,1.042-2.083,1.339Z" fill="#e4122c"/>
      </g>
      <g id="Group_6785" data-name="Group 6785">
        <path id="Path_10956" data-name="Path 10956" d="M929.054,1783.33l.208,4.928-6.966,20.089v.934l.375,1.278,1.207,1.318,1.339.6,3.3.579,5.186.165,4.018-.446,3.274-1.042,1.488-.893.3-.893v-1.979l.084-18.259.213-1.042.54-4.926Z" fill="#fff"/>
      </g>
      <g id="Group_6786" data-name="Group 6786">
        <path id="Path_10957" data-name="Path 10957" d="M924.621,1801.758l-.893,2.679,1.042-.744,2.083-1.339,1.935-.744,2.232-.6,1.935-.287h1.907l1.962.435,2.083.893,1.637,1.042,1.488,1.488.744.893.044-3.257-.639-.314-2.232-1.637-1.935-.893-3.125-.893-2.232-.149-3.423.6-2.53,1.191-1.935,1.339Z" fill="#e4122c"/>
      </g>
      <g id="Group_6787" data-name="Group 6787">
        <path id="Path_10958" data-name="Path 10958" d="M933.4,1445.352l.535,8.312.011,5.594.781,2.32,1.633,3.5.452,1.2.606,1.1,5.523,5.39,2.216,2.2,10.83-.661,10.5-11.343-.735-20.751Z" fill="#fff"/>
      </g>
      <g id="Group_6788" data-name="Group 6788">
        <path id="Path_10959" data-name="Path 10959" d="M937.27,1467.079l-5.208,10.119,1.091,1.389,4.573,2.976,7.779,3.175,4.564.347,3.572-.6,3.522-1.736,7.96-14.54-1.525-2.231-7.725,8.388-10.715.447-7.292-6.845Z" fill="#fff"/>
      </g>
      <g id="Group_6789" data-name="Group 6789">
        <path id="Path_10960" data-name="Path 10960" d="M930.871,1437.316l-.446-1.339-.149-.893.3-.6-.3-.554v-.488l.446-.6v-1.488l.3-1.191.149-.6-.3-.893-.3-.893-.149-.893.149-1.339.6-.667,2.679-2.309,1.786-1.488,3.125-1.935,3.869-1.637,5.06-1.042,3.72-.3,4.018.447,5.953,2.232,3.423,2.083,1.786,1.339.6,1.339v1.146l.149,1.235v2.381l.149.6.3.6v.893l.446.6-.3,2.232-5.06.3-22.625,2.265-9.337.86Z" fill="#e4122c"/>
      </g>
      <g id="Group_6790" data-name="Group 6790">
        <path id="Path_10961" data-name="Path 10961" d="M929.383,1436.87l-.749.27-.293.325.744,1.042-.148,1.042.148.6v1.637l.149,1.041-.149.744-.148.6.644,1.09,1.737.4,9.97-1.191,16.518-1.339,10.584-1.1h1.4l.364-.243v-.3l-.149-.3-.149-.446s.3-.38.3-.339a3.986,3.986,0,0,0,.446-.405v-1.439l-.061-.487.21-.455v-.893l-.3-.595v-.3l-.3-.446v-.149l.446-.893v-.893l-.446-.446h-.744l-38.766,3.747Z" fill="#e4122c"/>
      </g>
      <g id="Group_6791" data-name="Group 6791">
        <path id="Path_10962" data-name="Path 10962" d="M918.227,1476.623l-4.023,3.4-3.72,7.143-6.7,10.119,1.34,9.524-4.762,17.857-.6,1.935.447,2.232.744,2.679.893,1.934,1.637,2.381.744.589.3.453v1.786l5.462,4.458.054.913,5.364.73-2.034,11.975,2.215.823,5.755,1.637,7.887,1.785,7.292,1.042s9.97,2.084,28.572.595l5.506-.595,5.208-1.042,5.507-1.19,3.72-1.207L991.762,1544l-1.861-3.953-7.213-24.042,1.458-14.1-6.052-26.22-2.293-1.928-5.732,8.1-10.328.7-3.125.6s-5.358,4.464-15.328.148l-5.368-2.794-3.412-2.414-11.31-2.679Z" fill="#fff"/>
      </g>
      <g id="Group_6792" data-name="Group 6792">
        <path id="Path_10963" data-name="Path 10963" d="M910.335,1574.521l-2.232,10.566-.446,1.488,1.339,4.762-1.339,4.613-1.19,15.774-3.571,49.7-4.464,59.078-4.464,60.567,6.7.6,5.506.6,6.548.446,14.01.848h2.866l16.4.3,17.764-.407,14.6-.9,19.924-1.923,15.477-2.232-3.274-35.566L996.5,1590.444l-.3-.446-2.232-2.679.893-4.018-2.121-9.3-6.362,2.011-8.185,1.935-7.143,1.191-11.347.988-10.313.186-7.937-.43-1.5-.446-12.5-1.637-17.113-4.018Z" fill="#fff"/>
      </g>
      <g id="Group_6921" data-name="Group 6921">
        <g id="Group_6793" data-name="Group 6793">
          <path id="Path_10964" data-name="Path 10964" d="M909.889,1555.622l-.3.3-2.679,16.518,3.919,1.339,9.921,2.679,7.292,1.488-1.873-4.167,3.234-1.836,9.59,7.353.788.441,1.257.363,16.287.144,7.027-.363,8.333-1.042,6.251-1.042,6.547-1.637,7.255-2.16,4.2-1.56-2.063-11.076-9.991-2.764-4.464,1.34-4.911,1.19s-7.729,1.089-7.882,1.214-8.3.682-8.3.682l-9.215.162-10.318-.718-5.8-.744-8.631-1.637-7.738-1.786Z" fill="#e4122c"/>
        </g>
        <g id="Group_6795" data-name="Group 6795">
          <g id="Group_6794" data-name="Group 6794">
            <rect id="Rectangle_9767" data-name="Rectangle 9767" width="11.477" height="0.499" transform="matrix(0.316, -0.949, 0.949, 0.316, 935.674, 1480.441)" fill="#1c1c1e"/>
          </g>
        </g>
        <g id="Group_6797" data-name="Group 6797">
          <g id="Group_6796" data-name="Group 6796">
            <path id="Path_10965" data-name="Path 10965" d="M945.093,1475.128l-5.722-5.313.339-.366,5.568,5.171,10.541-.51,10.484-11.3-.783-20.511.5-.02L966.81,1463l-.07.076L956.048,1474.6Z" fill="#1c1c1e"/>
          </g>
        </g>
        <g id="Group_6799" data-name="Group 6799">
          <g id="Group_6798" data-name="Group 6798">
            <path id="Path_10966" data-name="Path 10966" d="M920.531,1545.485l-.491-.086,4.323-24.933-3.2-8.405.466-.177,3.251,8.533Z" fill="#1c1c1e"/>
          </g>
        </g>
        <g id="Group_6801" data-name="Group 6801">
          <g id="Group_6800" data-name="Group 6800">
            <path id="Path_10967" data-name="Path 10967" d="M972.767,1476.816" fill="none" stroke="#000" stroke-miterlimit="10" stroke-width="0.5"/>
          </g>
        </g>
        <g id="Group_6803" data-name="Group 6803">
          <g id="Group_6802" data-name="Group 6802">
            <path id="Path_10968" data-name="Path 10968" d="M930.979,1480.689" fill="none" stroke="#000" stroke-miterlimit="10" stroke-width="0.5"/>
          </g>
        </g>
        <g id="Group_6805" data-name="Group 6805">
          <g id="Group_6804" data-name="Group 6804">
            <path id="Path_10969" data-name="Path 10969" d="M945.993,1475.681" fill="none" stroke="#000" stroke-miterlimit="10" stroke-width="0.5"/>
          </g>
        </g>
        <g id="Group_6807" data-name="Group 6807">
          <g id="Group_6806" data-name="Group 6806">
            <path id="Path_10970" data-name="Path 10970" d="M925.023,1526.893" fill="#1c1c1e"/>
          </g>
        </g>
        <g id="Group_6809" data-name="Group 6809">
          <g id="Group_6808" data-name="Group 6808">
            <path id="Path_10971" data-name="Path 10971" d="M933.9,1542.217" fill="none" stroke="#000" stroke-miterlimit="10" stroke-width="0.5"/>
          </g>
        </g>
        <g id="Group_6811" data-name="Group 6811">
          <g id="Group_6810" data-name="Group 6810">
            <path id="Path_10972" data-name="Path 10972" d="M938.913,1491.183" fill="#1c1c1e"/>
          </g>
        </g>
        <g id="Group_6813" data-name="Group 6813">
          <g id="Group_6812" data-name="Group 6812">
            <path id="Path_10973" data-name="Path 10973" d="M943.976,1537.781" fill="#1c1c1e"/>
          </g>
        </g>
        <g id="Group_6815" data-name="Group 6815">
          <g id="Group_6814" data-name="Group 6814">
            <path id="Path_10974" data-name="Path 10974" d="M943.714,1784.056c-29.891,0-49.457-2.82-49.778-2.868l-.229-.034.017-.231,13.711-185.092,1.257-4.464-1.265-4.772.013-.059,2.772-12.686c-2.152-.676-3.355-1.13-3.424-1.156l-.19-.073,2.855-17.138.493.082-2.789,16.734c3.142,1.152,44.087,15.559,85.533,1.54l.264-.09,2.087,9.6-.011.051-.783,3.914,2.392,2.79.008.08,17.362,188.551-.232.037A459.843,459.843,0,0,1,943.714,1784.056Zm-49.475-3.328c3.888.541,55.851,7.393,119.23-2.416l-17.311-188.006-2.447-2.854.819-4.1-1.944-8.95c-35.428,11.882-70.43,3.138-81.9-.4l-2.752,12.586,1.27,4.787-1.286,4.547Z" fill="#1c1c1e"/>
          </g>
        </g>
        <g id="Group_6818" data-name="Group 6818">
          <g id="Group_6816" data-name="Group 6816">
            <path id="Path_10975" data-name="Path 10975" d="M933.4,1445.384c.2,2.177.185,4.345.411,6.527a60.507,60.507,0,0,1,.17,6.2,7.444,7.444,0,0,0,0,1.424,9.627,9.627,0,0,0,.631,1.653c.664,1.627,1.541,3.172,2.1,4.834.51,1.53,1.89,2.511,3.022,3.594,0,0-1.943,9.865-2.876,10.891-1.165,1.282-3.475-3.557-3.81-4.137-1.379-2.394-1.819-5.294-3.2-7.75a21.058,21.058,0,0,1-1.036-1.917,20.435,20.435,0,0,1-.715-2.221c-.438-1.449-1.04-2.849-1.4-4.321a8.49,8.49,0,0,1-.228-3.231c.128-.869.531-1.767.589-2.626a4.972,4.972,0,0,0-.718-2.028.326.326,0,0,1-.038-.135.311.311,0,0,1,.08-.167,16.114,16.114,0,0,1,1.073-1.258,2.85,2.85,0,0,0,.278-.324c.572-.833.124-2.143.358-3.1.221-.907.6-1.765.885-2.652" fill="#e4122c"/>
          </g>
          <g id="Group_6817" data-name="Group 6817">
            <path id="Path_10976" data-name="Path 10976" d="M936.407,1480.9a.681.681,0,0,1-.1-.007c-1.024-.13-2.263-2.257-3.229-4.094-.082-.156-.143-.273-.18-.337a22.1,22.1,0,0,1-1.628-3.926,22.841,22.841,0,0,0-1.571-3.827c-.092-.166-.189-.331-.284-.5a10.241,10.241,0,0,1-1.315-3.107c-.054-.19-.108-.379-.166-.568-.175-.582-.382-1.166-.581-1.732-.3-.842-.6-1.712-.821-2.6a8.534,8.534,0,0,1-.23-3.3,9.384,9.384,0,0,1,.283-1.19,7.224,7.224,0,0,0,.3-1.422,3.452,3.452,0,0,0-.509-1.546c-.07-.14-.137-.274-.193-.4a.445.445,0,0,1-.054-.213.461.461,0,0,1,.115-.264c.335-.437.7-.864,1.084-1.273a2.274,2.274,0,0,0,.26-.3,2.87,2.87,0,0,0,.267-1.733,4.977,4.977,0,0,1,.067-1.311,16.567,16.567,0,0,1,.549-1.7c.118-.32.235-.642.339-.966l.327.1c-.106.329-.225.654-.344.979a16.021,16.021,0,0,0-.537,1.662,4.648,4.648,0,0,0-.058,1.218,3.154,3.154,0,0,1-.326,1.938,2.556,2.556,0,0,1-.28.329q-.585.623-1.075,1.26a.336.336,0,0,0-.045.069.417.417,0,0,0,.022.058c.056.121.121.252.189.389a3.677,3.677,0,0,1,.545,1.722,7.414,7.414,0,0,1-.317,1.491,9.228,9.228,0,0,0-.274,1.148,8.208,8.208,0,0,0,.225,3.166c.212.869.516,1.731.81,2.565.2.569.409,1.157.588,1.747q.086.285.166.572a13.6,13.6,0,0,0,.542,1.63,13.43,13.43,0,0,0,.739,1.4c.1.167.194.333.289.5a23.133,23.133,0,0,1,1.594,3.883,21.794,21.794,0,0,0,1.6,3.865c.038.067.1.188.186.349.493.937,1.991,3.79,2.969,3.914a.415.415,0,0,0,.378-.155c.731-.8,2.263-7.919,2.816-10.717-.2-.189-.406-.375-.613-.562a7.5,7.5,0,0,1-2.385-3.037,26.664,26.664,0,0,0-1.224-2.891c-.295-.629-.6-1.278-.867-1.932-.057-.139-.12-.283-.186-.429a6.212,6.212,0,0,1-.455-1.256,3.863,3.863,0,0,1-.022-.991c.011-.157.02-.313.02-.466l0-.936a49.923,49.923,0,0,0-.17-5.249c-.121-1.161-.175-2.335-.226-3.47-.045-1-.093-2.039-.185-3.058l.341-.031c.094,1.027.141,2.067.187,3.074.051,1.13.1,2.3.224,3.45a50.134,50.134,0,0,1,.172,5.285l0,.935c0,.16-.009.324-.02.488a3.5,3.5,0,0,0,.016.9,5.937,5.937,0,0,0,.432,1.184c.066.149.131.3.19.437.264.647.567,1.292.86,1.917a27.465,27.465,0,0,1,1.238,2.928,7.246,7.246,0,0,0,2.29,2.891c.233.211.466.42.689.633l.067.065-.017.092c-.08.406-1.964,9.926-2.919,10.975A.761.761,0,0,1,936.407,1480.9Z" fill="#1c1c1e"/>
          </g>
        </g>
        <g id="Group_6820" data-name="Group 6820">
          <g id="Group_6819" data-name="Group 6819">
            <path id="Path_10977" data-name="Path 10977" d="M932.234,1810.966c-.237,0-.476,0-.714-.01-.415-.012-8.519-.92-9.4-2.205a.522.522,0,0,1-.078-.487l6.972-20.043-.2-4.444.5-.024.207,4.542-.015.045s-6.947,19.968-6.988,20.087c.666.984,7.89,2,9.025,2.03a24.063,24.063,0,0,0,10.161-1.907c.851-.367.842-.868.826-1.7l0-.327V1790.9l.807-7.161.495.056-.806,7.133.006,15.918c.016.855.03,1.664-1.128,2.164A24.508,24.508,0,0,1,932.234,1810.966Z" fill="#1c1c1e"/>
          </g>
        </g>
        <g id="Group_6822" data-name="Group 6822">
          <g id="Group_6821" data-name="Group 6821">
            <path id="Path_10978" data-name="Path 10978" d="M942.684,1790.3a6.593,6.593,0,0,0-1.644-3.839,5.234,5.234,0,0,0-1.138-.982,9.107,9.107,0,0,0-2.764-.978c-3.037-.716-6.036,1.438-7.669,3.9l-.415-.276c1.728-2.6,4.934-4.883,8.2-4.1a9.657,9.657,0,0,1,2.914,1.04,5.8,5.8,0,0,1,1.246,1.073,7.107,7.107,0,0,1,1.768,4.132Z" fill="#1c1c1e"/>
          </g>
        </g>
        <g id="Group_6824" data-name="Group 6824">
          <g id="Group_6823" data-name="Group 6823">
            <path id="Path_10979" data-name="Path 10979" d="M932.247,1813.514a29.216,29.216,0,0,1-6.867-.818c-2.384-.582-3.356-1.841-3.356-4.349h.5c0,2.259.834,3.343,2.976,3.864,5.447,1.328,11.442.995,15.648-.868.6-.264,1.244-.595,1.38-1.175a6.416,6.416,0,0,0,.03-1.711c-.02-.3-.039-.592-.039-.853h.5c0,.251.019.531.038.821a6.624,6.624,0,0,1-.042,1.856c-.2.872-1.153,1.292-1.662,1.518A22.927,22.927,0,0,1,932.247,1813.514Z" fill="#1c1c1e"/>
          </g>
        </g>
        <g id="Group_6826" data-name="Group 6826">
          <g id="Group_6825" data-name="Group 6825">
            <path id="Path_10980" data-name="Path 10980" d="M942.6,1802.636c-5.237-4.582-9.909-4.463-12.9-3.557a9.5,9.5,0,0,0-4.988,3.134l-.492-.085c.1-.594,2.014-2.352,4.726-3.326,3.246-1.162,8.306-1.51,13.988,3.458Z" fill="#1c1c1e"/>
          </g>
        </g>
        <g id="Group_6828" data-name="Group 6828">
          <g id="Group_6827" data-name="Group 6827">
            <path id="Path_10981" data-name="Path 10981" d="M942.533,1805.594a11.305,11.305,0,0,0-8.937-4.677l0-.5c3.606.023,6.742,1.658,9.321,4.862Z" fill="#1c1c1e"/>
          </g>
        </g>
        <g id="Group_6830" data-name="Group 6830">
          <g id="Group_6829" data-name="Group 6829">
            <path id="Path_10982" data-name="Path 10982" d="M923.8,1804.783l-.378-.326a15.819,15.819,0,0,1,10.1-4.039h.076l0,.5h-.07A15.515,15.515,0,0,0,923.8,1804.783Z" fill="#1c1c1e"/>
          </g>
        </g>
        <g id="Group_6832" data-name="Group 6832">
          <g id="Group_6831" data-name="Group 6831">
            <path id="Path_10983" data-name="Path 10983" d="M942.533,1808.454c-2.494-3.1-5.494-4.688-8.92-4.728l.006-.5c3.582.042,6.712,1.695,9.3,4.914Z" fill="#1c1c1e"/>
          </g>
        </g>
        <g id="Group_6834" data-name="Group 6834">
          <g id="Group_6833" data-name="Group 6833">
            <path id="Path_10984" data-name="Path 10984" d="M922.53,1808.46l-.378-.325c.662-.77,5.539-4.909,11.327-4.909h.14l-.006.5h-.131C927.89,1803.725,923.068,1807.834,922.53,1808.46Z" fill="#1c1c1e"/>
          </g>
        </g>
        <g id="Group_6836" data-name="Group 6836">
          <g id="Group_6835" data-name="Group 6835">
            <path id="Path_10985" data-name="Path 10985" d="M942.594,1798.7c-9.934-6.271-16.2-.9-16.265-.842l-.331-.372c.064-.058,6.6-5.687,16.862.793Z" fill="#1c1c1e"/>
          </g>
        </g>
        <g id="Group_6838" data-name="Group 6838">
          <g id="Group_6837" data-name="Group 6837">
            <path id="Path_10986" data-name="Path 10986" d="M977.493,1810.966a24.5,24.5,0,0,1-9.657-1.958c-1.158-.5-1.143-1.309-1.128-2.164l0-.318V1790.9l-.806-7.51.5-.053.807,7.537v15.654l0,.327c-.016.829-.024,1.33.826,1.7a23.967,23.967,0,0,0,10.162,1.907c1.134-.033,8.358-1.046,9.008-1.989-.025-.157-6.689-19.313-6.972-20.128l-.015-.042.127-5.749.5.012-.124,5.657c.359,1.034,6.933,19.93,6.973,20.045a.523.523,0,0,1-.077.488c-.886,1.285-8.99,2.193-9.4,2.205Q977.851,1810.966,977.493,1810.966Z" fill="#1c1c1e"/>
          </g>
        </g>
        <g id="Group_6840" data-name="Group 6840">
          <g id="Group_6839" data-name="Group 6839">
            <path id="Path_10987" data-name="Path 10987" d="M967.21,1790.64l-.5-.039a8.126,8.126,0,0,1,1.6-4.472,5.828,5.828,0,0,1,1.245-1.073,9.649,9.649,0,0,1,2.915-1.04c3.264-.78,6.472,1.5,8.2,4.1l-.415.276c-1.634-2.458-4.643-4.614-7.669-3.9a9.125,9.125,0,0,0-2.765.978,5.286,5.286,0,0,0-1.137.982A7.64,7.64,0,0,0,967.21,1790.64Z" fill="#1c1c1e"/>
          </g>
        </g>
        <g id="Group_6842" data-name="Group 6842">
          <g id="Group_6841" data-name="Group 6841">
            <path id="Path_10988" data-name="Path 10988" d="M977.481,1813.514a22.9,22.9,0,0,1-9.1-1.715c-.51-.225-1.459-.644-1.664-1.517a6.622,6.622,0,0,1-.041-1.856c.02-.29.038-.571.038-.822h.5c0,.262-.02.554-.039.855a6.325,6.325,0,0,0,.028,1.709c.131.554.741.892,1.38,1.175,4.207,1.863,10.2,2.2,15.65.868,2.142-.522,2.976-1.606,2.976-3.864h.5c0,2.508-.972,3.767-3.356,4.349A29.217,29.217,0,0,1,977.481,1813.514Z" fill="#1c1c1e"/>
          </g>
        </g>
        <g id="Group_6844" data-name="Group 6844">
          <g id="Group_6843" data-name="Group 6843">
            <path id="Path_10989" data-name="Path 10989" d="M967.126,1802.636l-.329-.376c5.68-4.968,10.743-4.62,13.987-3.458,2.712.974,4.628,2.732,4.727,3.326l-.493.08.246-.04-.245.045a9.507,9.507,0,0,0-4.99-3.135C977.031,1798.175,972.36,1798.055,967.126,1802.636Z" fill="#1c1c1e"/>
          </g>
        </g>
        <g id="Group_6846" data-name="Group 6846">
          <g id="Group_6845" data-name="Group 6845">
            <path id="Path_10990" data-name="Path 10990" d="M967.2,1805.593l-.388-.312c2.578-3.2,5.714-4.84,9.32-4.863l0,.5A11.306,11.306,0,0,0,967.2,1805.593Z" fill="#1c1c1e"/>
          </g>
        </g>
        <g id="Group_6848" data-name="Group 6848">
          <g id="Group_6847" data-name="Group 6847">
            <path id="Path_10991" data-name="Path 10991" d="M985.925,1804.783a15.522,15.522,0,0,0-9.724-3.866h-.07l0-.5h.076a15.823,15.823,0,0,1,10.1,4.039Z" fill="#1c1c1e"/>
          </g>
        </g>
        <g id="Group_6850" data-name="Group 6850">
          <g id="Group_6849" data-name="Group 6849">
            <path id="Path_10992" data-name="Path 10992" d="M967.2,1808.453l-.388-.311c2.59-3.22,5.72-4.873,9.3-4.915l.006.5C972.69,1803.766,969.688,1805.356,967.2,1808.453Z" fill="#1c1c1e"/>
          </g>
        </g>
        <g id="Group_6852" data-name="Group 6852">
          <g id="Group_6851" data-name="Group 6851">
            <path id="Path_10993" data-name="Path 10993" d="M987.2,1808.46c-.539-.626-5.362-4.735-10.953-4.735h-.13l-.006-.5h.139c5.79,0,10.665,4.139,11.328,4.909Z" fill="#1c1c1e"/>
          </g>
        </g>
        <g id="Group_6854" data-name="Group 6854">
          <g id="Group_6853" data-name="Group 6853">
            <path id="Path_10994" data-name="Path 10994" d="M967.135,1798.7l-.267-.421c10.267-6.481,16.8-.851,16.863-.793l-.331.372C983.338,1797.806,977.069,1792.431,967.135,1798.7Z" fill="#1c1c1e"/>
          </g>
        </g>
        <g id="Group_6856" data-name="Group 6856">
          <g id="Group_6855" data-name="Group 6855">
            <path id="Path_10995" data-name="Path 10995" d="M929.261,1784.73" fill="none" stroke="#000" stroke-miterlimit="10" stroke-width="0.5"/>
          </g>
        </g>
        <g id="Group_6858" data-name="Group 6858">
          <g id="Group_6857" data-name="Group 6857">
            <path id="Path_10996" data-name="Path 10996" d="M930.4,1436.71a4.657,4.657,0,0,0-.151-.443,1.846,1.846,0,0,1-.12-1.51l.048-.093a.515.515,0,0,0,.071-.179.5.5,0,0,0-.076-.187c-.027-.051-.054-.1-.075-.152a1.014,1.014,0,0,1,.1-.964,1.893,1.893,0,0,1,.127-.157c.033-.038.066-.075.095-.116a.775.775,0,0,0,.042-.561,3.04,3.04,0,0,1-.032-.326,3.425,3.425,0,0,1,.169-1.332c.029-.077.061-.154.093-.23a2.063,2.063,0,0,0,.2-.645,1.282,1.282,0,0,0-.174-.677c-.027-.048-.057-.1-.086-.145a1.964,1.964,0,0,1-.219-.437,2.024,2.024,0,0,1-.075-.487c-.011-.148-.025-.3-.04-.453a3.918,3.918,0,0,1,.347-2.6,4.844,4.844,0,0,1,.819-.917c7.511-7.081,17.136-9.737,25.751-7.109a30.279,30.279,0,0,1,8.014,3.908,4.582,4.582,0,0,1,2.266,3.114,5.47,5.47,0,0,1,.015,1.061,6.864,6.864,0,0,0-.012.756l.009.137c.044.678.087,1.357.119,2.036a2.745,2.745,0,0,1-.017.37,1.624,1.624,0,0,0-.012.343.778.778,0,0,0,.147.3,1.273,1.273,0,0,1,.212.439.926.926,0,0,1,0,.323.846.846,0,0,0,.019.509.464.464,0,0,0,.066.076,1.31,1.31,0,0,1,.118.14,2.239,2.239,0,0,1,.155,1.668,2.575,2.575,0,0,0-.037,1.054l-.481.135a2.974,2.974,0,0,1,.026-1.269,1.822,1.822,0,0,0-.076-1.307.549.549,0,0,0-.067-.077,1.3,1.3,0,0,1-.118-.14,1.128,1.128,0,0,1-.1-.8.771.771,0,0,0,.01-.2.911.911,0,0,0-.14-.268,1.156,1.156,0,0,1-.227-.514,2.06,2.06,0,0,1,.01-.452,2.142,2.142,0,0,0,.015-.3c-.031-.676-.075-1.352-.118-2.027l-.007-.138a7.067,7.067,0,0,1,.009-.812,5.09,5.09,0,0,0-.009-.966,4.081,4.081,0,0,0-2.052-2.771,29.776,29.776,0,0,0-7.881-3.844c-8.44-2.575-17.883.038-25.262,6.994a4.455,4.455,0,0,0-.741.822,3.5,3.5,0,0,0-.271,2.282c.014.157.029.312.04.466a1.568,1.568,0,0,0,.053.369,1.644,1.644,0,0,0,.17.329c.033.055.066.108.1.164a1.738,1.738,0,0,1,.235.952,2.5,2.5,0,0,1-.235.805c-.03.071-.06.143-.087.215a2.915,2.915,0,0,0-.136,1.14,2.493,2.493,0,0,0,.027.272,1.231,1.231,0,0,1-.123.906,1.524,1.524,0,0,1-.133.167,1.382,1.382,0,0,0-.09.111.528.528,0,0,0-.05.486c.016.037.036.073.056.11a.865.865,0,0,1,.136.431.884.884,0,0,1-.129.405l-.039.075a1.442,1.442,0,0,0,.136,1.118c.063.167.125.332.168.493Z" fill="#1c1c1e"/>
          </g>
        </g>
        <g id="Group_6860" data-name="Group 6860">
          <g id="Group_6859" data-name="Group 6859">
            <path id="Path_10997" data-name="Path 10997" d="M931.373,1434.284a35.517,35.517,0,0,0,3.663-.115c1.218-.1,2.435-.19,3.651-.309,2.435-.216,4.865-.492,7.318-.657-1.2.279-2.405.5-3.617.692s-2.432.341-3.655.461-2.451.19-3.682.194A17.922,17.922,0,0,1,931.373,1434.284Z" fill="#1c1c1e"/>
          </g>
        </g>
        <g id="Group_6862" data-name="Group 6862">
          <g id="Group_6861" data-name="Group 6861">
            <path id="Path_10998" data-name="Path 10998" d="M966.669,1428.96a26.8,26.8,0,0,1-3.435.686c-1.155.173-2.318.275-3.482.36s-2.331.118-3.5.113-2.333-.034-3.5-.131c2.326-.2,4.644-.32,6.961-.48S964.347,1429.191,966.669,1428.96Z" fill="#1c1c1e"/>
          </g>
        </g>
        <g id="Group_6864" data-name="Group 6864">
          <g id="Group_6863" data-name="Group 6863">
            <path id="Path_10999" data-name="Path 10999" d="M969.381,1472.589" fill="none" stroke="#000" stroke-miterlimit="10" stroke-width="0.5"/>
          </g>
        </g>
        <g id="Group_6867" data-name="Group 6867">
          <g id="Group_6865" data-name="Group 6865">
            <rect id="Rectangle_9768" data-name="Rectangle 9768" width="1.457" height="12.885" transform="translate(931.302 1456.944) rotate(-20.539)" fill="#fcfafa"/>
          </g>
          <g id="Group_6866" data-name="Group 6866">
            <path id="Path_11000" data-name="Path 11000" d="M935.75,1469.169l-.044-.116-4.564-12.182,1.6-.6.044.116,4.564,12.182Zm-4.288-12.152,4.434,11.833,1.132-.425-4.434-11.832Z" fill="#1c1c1e"/>
          </g>
        </g>
        <g id="Group_6870" data-name="Group 6870">
          <g id="Group_6868" data-name="Group 6868">
            <path id="Path_11001" data-name="Path 11001" d="M910.047,1544.029l10.916,1.523,8.27-20.949-.1-40.7s1.66-3.612,3.766-5.24l2.469-5.261,1.559-3.923-.65-1.556-6.384,5.355s-4.712.624-3.618-5.149,4.411-6.752,4.411-6.752l3.213-.621-.807-4.435-5.645-3.226-11.291,15.726,2.783,10.457s-3.315,23.758-11.1,39.151Z" fill="#fcfafa"/>
          </g>
          <g id="Group_6869" data-name="Group 6869">
            <path id="Path_11002" data-name="Path 11002" d="M921.083,1545.756l-11.209-1.563-.013-.148-2.215-25.649.024-.047c7.539-14.908,10.921-37.983,11.075-39.055l-2.8-10.506,11.441-15.935,5.866,3.353.855,4.7-3.4.656c-.013.005-3.205,1.026-4.261,6.6-.352,1.851-.133,3.21.65,4.04a3.5,3.5,0,0,0,2.707.894l6.534-5.482.779,1.86-1.588,3.994-2.527,5.339c-1.933,1.495-3.513,4.752-3.694,5.134l.1,40.69-.013.033Zm-10.864-1.891,10.624,1.482,8.2-20.779-.1-40.7.017-.037c.068-.148,1.685-3.632,3.786-5.282l2.449-5.22,1.526-3.842-.523-1.252-6.232,5.226-.053.008a3.864,3.864,0,0,1-3.077-1c-.871-.923-1.123-2.393-.748-4.371,1.1-5.818,4.4-6.855,4.541-6.9l3.05-.59-.758-4.168-5.424-3.1-11.143,15.518,2.771,10.408-.006.037c-.033.238-3.4,23.917-11.093,39.163Z" fill="#1c1c1e"/>
          </g>
        </g>
        <g id="Group_6872" data-name="Group 6872">
          <g id="Group_6871" data-name="Group 6871">
            <path id="Path_11003" data-name="Path 11003" d="M909.868,1543.331l-5.66-4.6-.006-1.92c-.66-.467-3.75-3.02-4.579-10.36l-.006-.048.013-.045,5.3-19.681-1.314-9.4,6.677-10.442,3.723-7.035,3.851-3.18.318.384-3.812,3.149-3.649,6.932-6.588,10.3,1.3,9.316-.014.049-5.306,19.684c.888,7.75,4.421,10,4.457,10.023l.118.073.008,1.96,5.33,4.326Z" fill="#1c1c1e"/>
          </g>
        </g>
        <g id="Group_6874" data-name="Group 6874">
          <g id="Group_6873" data-name="Group 6873">
            <path id="Path_11004" data-name="Path 11004" d="M949.513,1485.4c-8.37,0-16.471-6.608-16.583-6.7l.317-.383c.154.126,15.505,12.643,25.474,2.836l.351.355A13.179,13.179,0,0,1,949.513,1485.4Z" fill="#1c1c1e"/>
          </g>
        </g>
        <g id="Group_6876" data-name="Group 6876">
          <g id="Group_6875" data-name="Group 6875">
            <path id="Path_11005" data-name="Path 11005" d="M918.031,1476.816" fill="none" stroke="#000" stroke-miterlimit="10" stroke-width="0.5"/>
          </g>
        </g>
        <g id="Group_6878" data-name="Group 6878">
          <g id="Group_6877" data-name="Group 6877">
            <path id="Path_11006" data-name="Path 11006" d="M907.684,1543.023" fill="none" stroke="#000" stroke-miterlimit="10" stroke-width="0.5"/>
          </g>
        </g>
        <g id="Group_6880" data-name="Group 6880">
          <g id="Group_6879" data-name="Group 6879">
            <path id="Path_11007" data-name="Path 11007" d="M937.121,1605.528" fill="none" stroke="#000" stroke-miterlimit="10" stroke-width="0.5"/>
          </g>
        </g>
        <g id="Group_6882" data-name="Group 6882">
          <g id="Group_6881" data-name="Group 6881">
            <path id="Path_11008" data-name="Path 11008" d="M953.136,1563.49a124.049,124.049,0,0,1-43.534-7.736l.2-.46c.358.152,36.15,14.961,75.3,3.1l.145.477A110.694,110.694,0,0,1,953.136,1563.49Z" fill="#1c1c1e"/>
          </g>
        </g>
        <g id="Group_6884" data-name="Group 6884">
          <g id="Group_6883" data-name="Group 6883">
            <path id="Path_11009" data-name="Path 11009" d="M992.863,1574.306l-.185-.464,3.843-1.537-1.948-10.855.491-.088,2.02,11.255Z" fill="#1c1c1e"/>
          </g>
        </g>
        <g id="Group_6886" data-name="Group 6886">
          <g id="Group_6885" data-name="Group 6885">
            <rect id="Rectangle_9769" data-name="Rectangle 9769" width="9.871" height="0.499" transform="translate(904.202 1536.645) rotate(-82.376)" fill="#1c1c1e"/>
          </g>
        </g>
        <g id="Group_6888" data-name="Group 6888">
          <g id="Group_6887" data-name="Group 6887">
            <path id="Path_11010" data-name="Path 11010" d="M910.477,1556.734" fill="none" stroke="#000" stroke-miterlimit="10" stroke-width="0.5"/>
          </g>
        </g>
        <g id="Group_6890" data-name="Group 6890">
          <g id="Group_6889" data-name="Group 6889">
            <rect id="Rectangle_9770" data-name="Rectangle 9770" width="12.662" height="0.499" transform="translate(913.078 1557.097) rotate(-80.795)" fill="#1c1c1e"/>
          </g>
        </g>
        <g id="Group_6893" data-name="Group 6893">
          <g id="Group_6891" data-name="Group 6891">
            <path id="Path_11011" data-name="Path 11011" d="M942.766,1562.783l.491-12.5H959.3v12.9" fill="#fff"/>
          </g>
          <g id="Group_6892" data-name="Group 6892">
            <path id="Path_11012" data-name="Path 11012" d="M959.49,1563.186h-.38v-12.714h-15.67l-.482,12.318-.38-.016.5-12.683H959.49Z" fill="#1c1c1e"/>
          </g>
        </g>
        <g id="Group_6896" data-name="Group 6896">
          <g id="Group_6894" data-name="Group 6894">
            <path id="Path_11013" data-name="Path 11013" d="M959.3,1580.13c-.055,5.774-2.789,11.527-9.548,12.875a23.163,23.163,0,0,1-11.362-.635,11.6,11.6,0,0,1-6.018-5.738c-.531-.966-6.347-12.77-6.262-12.819l3.252-1.872q2.8,2.167,5.608,4.333c.95.734,1.905,1.463,2.844,2.207a3.354,3.354,0,0,0,2.405,1.082,2.776,2.776,0,0,0,.7-.129l.387.046,7.125.845,10.674-.192Z" fill="#fff"/>
          </g>
          <g id="Group_6895" data-name="Group 6895">
            <path id="Path_11014" data-name="Path 11014" d="M959.485,1580.127c-.075,5.473-2.593,11.646-9.7,13.064a23.355,23.355,0,0,1-4.531.429,21.294,21.294,0,0,1-6.932-1.07c-2.442-.873-4.445-2.778-6.121-5.827-.284-.517-1.968-3.911-3.366-6.761-3.037-6.191-3.037-6.191-2.824-6.314l3.363-1.935,6.481,5.008c.693.534,1.387,1.068,2.073,1.613l.166.132a2.919,2.919,0,0,0,2.111.907c.04,0,.08-.005.119-.009l.592.07.387.046a2.792,2.792,0,0,1-1.076.272,3.255,3.255,0,0,1-2.369-.989l-.165-.131c-.685-.544-1.377-1.076-2.07-1.611l-6.28-4.852-3.006,1.73c.565,1.313,5.678,11.7,6.2,12.641,1.629,2.964,3.564,4.811,5.915,5.651a22.769,22.769,0,0,0,11.262.628c6.872-1.373,9.314-7.364,9.39-12.686l.194,0Z" fill="#1c1c1e"/>
          </g>
        </g>
        <g id="Group_6899" data-name="Group 6899">
          <g id="Group_6897" data-name="Group 6897">
            <path id="Path_11015" data-name="Path 11015" d="M944.56,1550.282a18.784,18.784,0,0,0,3.263-4.482c1.2-2.332,2.006-6.609-1.131-7.767-.37-.136-.763-.186-1.132-.328a1.625,1.625,0,0,1-.77-.563,1.014,1.014,0,0,1-.127-.954.992.992,0,0,1,.585-.51,7.336,7.336,0,0,1,2.006-.169c1-.052,2-.1,3-.115a44.416,44.416,0,0,1,7.207.277.994.994,0,0,1,.933.644c.1.431-.26.749-.559.959a14.653,14.653,0,0,1-2.089.973,3.7,3.7,0,0,0-1.771,2.244c-1.213,3.885,1.844,7.387,4.293,9.791" fill="#fff"/>
          </g>
          <g id="Group_6898" data-name="Group 6898">
            <path id="Path_11016" data-name="Path 11016" d="M958.137,1550.418c-2.657-2.609-5.552-6.1-4.34-9.984a3.875,3.875,0,0,1,1.867-2.358c.266-.132.542-.24.808-.344a5.725,5.725,0,0,0,1.257-.613c.391-.274.539-.509.482-.762-.091-.409-.654-.486-.766-.5a44.321,44.321,0,0,0-7.184-.277c-1.1.021-2.18.072-3,.115-.176.009-.362.009-.553.01a4.382,4.382,0,0,0-1.4.148.8.8,0,0,0-.475.407.834.834,0,0,0,.109.771,1.407,1.407,0,0,0,.682.492,4.572,4.572,0,0,0,.561.164,5.676,5.676,0,0,1,.568.164,3.277,3.277,0,0,1,2.007,1.956c.7,1.8.117,4.348-.773,6.076a19.084,19.084,0,0,1-3.3,4.528l-.271-.265a18.742,18.742,0,0,0,3.229-4.437c.85-1.652,1.414-4.076.756-5.764a2.918,2.918,0,0,0-1.783-1.738,5.172,5.172,0,0,0-.529-.151,4.893,4.893,0,0,1-.606-.178,1.793,1.793,0,0,1-.859-.631,1.213,1.213,0,0,1-.145-1.139,1.164,1.164,0,0,1,.7-.612,4.644,4.644,0,0,1,1.526-.171c.185,0,.365,0,.534-.01.82-.042,1.9-.094,3.009-.115a44.927,44.927,0,0,1,7.23.279,1.163,1.163,0,0,1,1.1.791c.138.611-.444,1.021-.635,1.155a6.134,6.134,0,0,1-1.337.657c-.258.1-.526.206-.777.331a3.49,3.49,0,0,0-1.673,2.13c-1.152,3.686,1.663,7.066,4.244,9.6Z" fill="#1c1c1e"/>
          </g>
        </g>
        <g id="Group_6902" data-name="Group 6902">
          <g id="Group_6900" data-name="Group 6900">
            <path id="Path_11017" data-name="Path 11017" d="M962.123,1534.555c-1.791-.521-3.583-1.046-5.41-1.426a23.6,23.6,0,0,0-3.288-.414c-.926-.06-4.179-.711-3.621,1.25.379,1.327,1.9,1.36,3.018,1.4a9.543,9.543,0,0,1,1.667.2c.288.06.961.239.98.628.022.452-.933.578-1.258.669a32.911,32.911,0,0,1-3.284.569c-1.345.234-2.733.441-4.066.8-.944.253-2.481.561-2.481,1.813v7.144a1.234,1.234,0,0,0,1.076,1.224l14.65,1.878" fill="#fff"/>
          </g>
          <g id="Group_6901" data-name="Group 6901">
            <path id="Path_11018" data-name="Path 11018" d="M960.082,1550.47l-14.65-1.878a1.427,1.427,0,0,1-1.243-1.412v-7.144c0-1.311,1.457-1.691,2.42-1.943l.2-.053c1.095-.294,2.232-.487,3.332-.673l.749-.129c.371-.064.741-.116,1.111-.166a16.387,16.387,0,0,0,2.155-.4c.056-.015.129-.032.213-.051.251-.056.918-.206.907-.424-.008-.169-.341-.35-.829-.452a9.319,9.319,0,0,0-1.634-.195c-1.2-.038-2.783-.087-3.194-1.533a1.158,1.158,0,0,1,.156-1.123c.6-.706,2.225-.524,3.2-.415.184.021.343.039.463.047a23.545,23.545,0,0,1,3.314.417c1.8.374,3.582.894,5.311,1.4l.112.033-.1.364-.113-.033c-1.721-.5-3.5-1.019-5.283-1.389a23.361,23.361,0,0,0-3.261-.411c-.124-.008-.289-.026-.48-.048-.837-.091-2.4-.268-2.865.284a.8.8,0,0,0-.081.773c.336,1.179,1.7,1.222,2.8,1.256a9.958,9.958,0,0,1,1.74.2c.5.1,1.108.331,1.131.8.026.537-.744.71-1.2.814-.076.017-.143.032-.194.046a16.708,16.708,0,0,1-2.2.41c-.367.05-.733.1-1.1.164l-.751.129c-1.091.185-2.22.377-3.3.665l-.2.055c-.9.234-2.136.557-2.136,1.575v7.144a1.047,1.047,0,0,0,.912,1.036l14.65,1.878Z" fill="#1c1c1e"/>
          </g>
        </g>
        <g id="Group_6905" data-name="Group 6905">
          <g id="Group_6903" data-name="Group 6903">
            <path id="Path_11019" data-name="Path 11019" d="M983.495,1507.537l-.807,8.469,7.259,24.2-27.421-6.855-4.436,17.743c7.137,1.989,13.06,3.587,20.194,5.588q5.354,1.5,10.706,3c2.516.7,5,1.556,7.534,2.18,2.253.554,4.971.16,7.312.136a8.614,8.614,0,0,0,3.328-.473,5.8,5.8,0,0,0,2.864-3.08,15.513,15.513,0,0,0,1.11-6.4c-.018-1.8-.07-3.6-.222-5.391-.356-4.188-2.282-11.224-3.063-15.34-1.373-7.242-2.983-15.077-5-22.566l-.4-7.662-5.251-12.1-3.621-7.259-3.9-2.9-13.085-5.079" fill="#fff"/>
          </g>
          <g id="Group_6904" data-name="Group 6904">
            <path id="Path_11020" data-name="Path 11020" d="M999.453,1562.342a12.488,12.488,0,0,1-2.973-.3c-1.549-.38-3.1-.852-4.6-1.309-.964-.293-1.959-.6-2.943-.872l-10.706-3c-3.92-1.1-7.473-2.078-11.064-3.066-2.945-.809-5.914-1.627-9.13-2.523l-.178-.05,4.527-18.107.184.046,27.1,6.775-7.174-23.911,0-.036.807-8.469.378.035-.8,8.433,7.344,24.478-27.561-6.891-4.345,17.38c3.147.877,6.061,1.679,8.951,2.475,3.591.988,7.146,1.966,11.066,3.064l10.706,3c.987.277,1.985.581,2.95.875,1.494.455,3.04.926,4.578,1.3a18.728,18.728,0,0,0,5.254.207c.7-.035,1.362-.07,2.01-.076a8.592,8.592,0,0,0,3.255-.458,5.573,5.573,0,0,0,2.765-2.983,15.146,15.146,0,0,0,1.094-6.318c-.02-2.16-.09-3.818-.221-5.378a87.126,87.126,0,0,0-1.965-10.295c-.426-1.859-.828-3.614-1.1-5.026-1.192-6.289-2.839-14.535-5-22.55l-.409-7.667-5.237-12.066-3.595-7.209L989.582,1479l-13.061-5.068.138-.355,13.128,5.1,3.959,2.964,3.62,7.26,5.271,12.172.4,7.662c2.157,7.987,3.8,16.243,5,22.539.267,1.405.668,3.156,1.093,5.011a87.177,87.177,0,0,1,1.973,10.349c.133,1.568.2,3.235.223,5.406a15.509,15.509,0,0,1-1.127,6.475,5.941,5.941,0,0,1-2.962,3.178,8.891,8.891,0,0,1-3.4.489c-.64,0-1.3.04-1.995.076C1001.05,1562.3,1000.246,1562.342,999.453,1562.342Z" fill="#1c1c1e"/>
          </g>
        </g>
        <g id="Group_6908" data-name="Group 6908">
          <g id="Group_6906" data-name="Group 6906">
            <path id="Path_11021" data-name="Path 11021" d="M965.752,1442.211l.4,10.888.4,12.5-17.857,32.49-.7,10.255.663,6.917,1.783,19,2.713-12.207.9-4.068a22.28,22.28,0,0,0,.487-3.332c.037-.549.053-1.1.045-1.65a1.47,1.47,0,0,1,.637-1.473q.931-.7,1.873-1.394,1.453-1.066,2.927-2.1a6.7,6.7,0,0,0,1.9-1.794,22.5,22.5,0,0,0,1.737-2.783,2.042,2.042,0,0,0,.089-.21,12.787,12.787,0,0,1,1.136-2.88,26.2,26.2,0,0,1,2.724-2.543,6.135,6.135,0,0,0,2.3-2.5,44.678,44.678,0,0,1,2.055-5.087c.483-.861,1.292-1.264,2.132-2.812s2.117-2.974,2.056-5.087-.247-5.518.438-7.213.285-7.113.285-7.113l-8.31-25.8Z" fill="#e4122c"/>
          </g>
          <g id="Group_6907" data-name="Group 6907">
            <path id="Path_11022" data-name="Path 11022" d="M950.368,1535.46l-2.558-27.1.727-10.361,17.833-32.445-.4-12.451-.41-11.08h3.153l.042.129,8.31,25.8c.024.267.4,5.525-.289,7.24-.609,1.505-.514,4.41-.445,6.531l.019.607a7.272,7.272,0,0,1-1.471,4.159c-.217.35-.42.681-.606,1.024a8.542,8.542,0,0,1-1.4,1.885,4.817,4.817,0,0,0-.737.929,44.2,44.2,0,0,0-2.041,5.053,6.233,6.233,0,0,1-2.382,2.6,26.686,26.686,0,0,0-2.67,2.492,10.707,10.707,0,0,0-1,2.474l-.112.355a1.833,1.833,0,0,1-.087.21,15.162,15.162,0,0,1-1.307,2.159c-.152.222-.3.445-.453.67a6.814,6.814,0,0,1-1.95,1.843c-.958.675-1.941,1.382-2.923,2.1q-.941.69-1.872,1.392a1.3,1.3,0,0,0-.563,1.321c.009.545-.006,1.106-.045,1.666a22.618,22.618,0,0,1-.49,3.36c-.019.082-.9,4.068-.9,4.068Zm-1.484-37.317-.7,10.213.664,6.888,1.672,17.818,2.456-11.049s.886-3.986.9-4.068a22.338,22.338,0,0,0,.483-3.3c.038-.549.052-1.1.043-1.634a1.649,1.649,0,0,1,.712-1.625q.933-.7,1.877-1.4c.983-.721,1.969-1.429,2.929-2.1a6.525,6.525,0,0,0,1.852-1.744c.149-.226.3-.451.457-.675a15.035,15.035,0,0,0,1.266-2.084,1.583,1.583,0,0,0,.08-.188l.111-.352a10.68,10.68,0,0,1,1.052-2.579,25.813,25.813,0,0,1,2.757-2.579,6.04,6.04,0,0,0,2.245-2.416,44.362,44.362,0,0,1,2.07-5.121,5.184,5.184,0,0,1,.788-1,8.143,8.143,0,0,0,1.341-1.809c.192-.352.408-.7.618-1.041a6.978,6.978,0,0,0,1.415-3.951l-.018-.607c-.07-2.154-.167-5.1.471-6.683.662-1.636.275-6.975.271-7.029l-8.26-25.624h-2.493l.4,10.693.4,12.554-.024.044Z" fill="#1c1c1e"/>
          </g>
        </g>
        <g id="Group_6910" data-name="Group 6910">
          <g id="Group_6909" data-name="Group 6909">
            <path id="Path_11023" data-name="Path 11023" d="M905.757,1571.941" fill="#fff" stroke="#000" stroke-miterlimit="10" stroke-width="0.161"/>
          </g>
        </g>
        <g id="Group_6913" data-name="Group 6913">
          <g id="Group_6911" data-name="Group 6911">
            <line id="Line_141" data-name="Line 141" x2="3.629" y2="0.627" transform="translate(989.947 1540.201)" fill="#fff"/>
          </g>
          <g id="Group_6912" data-name="Group 6912">
            <rect id="Rectangle_9771" data-name="Rectangle 9771" width="0.537" height="3.684" transform="translate(989.901 1540.465) rotate(-80.179)" fill="#1c1c1e"/>
          </g>
        </g>
        <g id="Group_6915" data-name="Group 6915">
          <g id="Group_6914" data-name="Group 6914">
            <path id="Path_11024" data-name="Path 11024" d="M952.3,1580.474c-4.216-.18-8.574-.372-12.5-.744l1.19-.3a109.27,109.27,0,0,0,19.677.367l.045.5C956.318,1580.325,959.294,1580.325,952.3,1580.474Z" fill="#1c1c1e"/>
          </g>
        </g>
        <g id="Group_6917" data-name="Group 6917">
          <g id="Group_6916" data-name="Group 6916">
            <path id="Path_11025" data-name="Path 11025" d="M964.72,1468.53,963.6,1466.2l.45-.216,1.123,2.331Z" fill="#1c1c1e"/>
          </g>
        </g>
        <g id="Group_6919" data-name="Group 6919">
          <g id="Group_6918" data-name="Group 6918">
            <path id="Path_11026" data-name="Path 11026" d="M931.022,1445.748H930.9a3.206,3.206,0,0,1-1-.173h0a1.631,1.631,0,0,1-1.18-1.268,2.813,2.813,0,0,1,.155-1.208,2.151,2.151,0,0,0,.122-1.067,1.914,1.914,0,0,0-.071-.214,1.191,1.191,0,0,1-.057-.908,1.122,1.122,0,0,0,.046-.255,1.194,1.194,0,0,0-.126-.44,1.3,1.3,0,0,1-.145-.778,1.324,1.324,0,0,1,.136-.351.783.783,0,0,0,.1-.242c.019-.175-.146-.37-.321-.576-.244-.288-.548-.646-.346-1.081a1.134,1.134,0,0,1,.886-.516,21.45,21.45,0,0,1,2.139-.245c.258-.02.519-.041.784-.066L966.7,1433.1c.265-.024.53-.046.8-.068.54-.044,1.081-.087,1.615-.158l.174-.024c.487-.075,1.153-.17,1.494.483a1.535,1.535,0,0,1-.4,1.923,3.844,3.844,0,0,1,.65,1.787,2.343,2.343,0,0,1,0,.5,2.373,2.373,0,0,1-.156.581.986.986,0,0,0-.083.634l.036.169a1.52,1.52,0,0,1-.145,1.372,1.688,1.688,0,0,1-.253.238c-.111.092-.206.17-.228.253a.84.84,0,0,0,.076.4c.084.255.213.641-.12.892a.8.8,0,0,1-.465.137c-3.212.21-6.472.521-9.626.823q-1.609.153-3.219.3l-22.17,2.045c-.4.037-.812.089-1.225.142A19.652,19.652,0,0,1,931.022,1445.748Zm-.965-.644a2.709,2.709,0,0,0,.846.144,16.088,16.088,0,0,0,2.486-.2c.418-.053.834-.106,1.242-.144l22.169-2.045q1.608-.148,3.218-.3c3.157-.3,6.421-.614,9.64-.822a.507.507,0,0,0,.2-.037c.042-.032.016-.134-.052-.337a1.194,1.194,0,0,1-.084-.693,1.012,1.012,0,0,1,.394-.509,1.356,1.356,0,0,0,.184-.17c.2-.24.123-.584.043-.948l-.038-.178a1.457,1.457,0,0,1,.1-.908,1.892,1.892,0,0,0,.128-.465,1.933,1.933,0,0,0,0-.4,3.332,3.332,0,0,0-.7-1.735l-.176-.222.242-.147a1.052,1.052,0,0,0,.434-1.424c-.16-.3-.434-.3-.978-.22l-.183.026c-.543.07-1.091.115-1.639.16-.264.022-.528.044-.79.068l-34.688,3.257c-.268.025-.531.046-.791.067a20.763,20.763,0,0,0-2.091.238c-.209.038-.457.1-.522.236s.042.273.274.547a1.3,1.3,0,0,1,.436.953,1.149,1.149,0,0,1-.145.414.925.925,0,0,0-.092.223.907.907,0,0,0,.116.487,1.6,1.6,0,0,1,.165.639,1.555,1.555,0,0,1-.063.374,1.193,1.193,0,0,0-.047.261,1.081,1.081,0,0,0,.091.35c.032.088.063.175.086.264a2.541,2.541,0,0,1-.126,1.324,2.415,2.415,0,0,0-.142,1,1.172,1.172,0,0,0,.853.874Z" fill="#1c1c1e"/>
          </g>
        </g>
        <g id="Group_6920" data-name="Group 6920">
          <path id="Path_11027" data-name="Path 11027" d="M894.5,1774.362" fill="#fff"/>
        </g>
      </g>
    </g>
    <g id="Group_6923" data-name="Group 6923">
      <rect id="Rectangle_9772" data-name="Rectangle 9772" width="135.189" height="111.214" rx="18" transform="translate(1023.689 1437.408)" fill="#fff"/>
      <path id="Path_11028" data-name="Path 11028" d="M1140.877,1549.473h-99.189a18.871,18.871,0,0,1-18.85-18.85v-75.215a18.871,18.871,0,0,1,18.85-18.85h99.189a18.872,18.872,0,0,1,18.851,18.85v75.215A18.872,18.872,0,0,1,1140.877,1549.473Zm-99.189-111.215a17.169,17.169,0,0,0-17.149,17.15v75.215a17.168,17.168,0,0,0,17.149,17.149h99.189a17.169,17.169,0,0,0,17.15-17.149v-75.215a17.169,17.169,0,0,0-17.15-17.15Z" fill="#1c1c1e"/>
    </g>
    <g id="Group_6924" data-name="Group 6924">
      <rect id="Rectangle_9773" data-name="Rectangle 9773" width="178.232" height="118.527" rx="19.992" transform="translate(1178.619 1491.3)" fill="#fff"/>
      <path id="Path_11029" data-name="Path 11029" d="M1336.859,1610.677H1198.611a20.865,20.865,0,0,1-20.842-20.842v-78.543a20.866,20.866,0,0,1,20.842-20.842h138.248a20.866,20.866,0,0,1,20.843,20.842v78.543A20.866,20.866,0,0,1,1336.859,1610.677ZM1198.611,1492.15a19.164,19.164,0,0,0-19.142,19.142v78.543a19.164,19.164,0,0,0,19.142,19.142h138.248A19.163,19.163,0,0,0,1356,1589.835v-78.543a19.163,19.163,0,0,0-19.142-19.142Z" fill="#1c1c1e"/>
    </g>
    <g id="Group_6927" data-name="Group 6927">
      <g id="Group_6925" data-name="Group 6925">
        <rect id="Rectangle_9774" data-name="Rectangle 9774" width="138.415" height="113.868" rx="13.63" transform="translate(1108.576 1607.178)" fill="#1c1c1e"/>
      </g>
      <g id="Group_6926" data-name="Group 6926">
        <rect id="Rectangle_9775" data-name="Rectangle 9775" width="138.415" height="113.868" rx="15.802" transform="translate(1102.026 1599.986)" fill="#fff"/>
        <path id="Path_11030" data-name="Path 11030" d="M1224.64,1714.7H1117.828a16.671,16.671,0,0,1-16.652-16.652v-82.265a16.671,16.671,0,0,1,16.652-16.652H1224.64a16.671,16.671,0,0,1,16.651,16.652v82.265A16.671,16.671,0,0,1,1224.64,1714.7Zm-106.812-113.869a14.968,14.968,0,0,0-14.952,14.952v82.265A14.968,14.968,0,0,0,1117.828,1713H1224.64a14.968,14.968,0,0,0,14.951-14.951v-82.265a14.968,14.968,0,0,0-14.951-14.952Z" fill="#1c1c1e"/>
      </g>
    </g>
    <g id="Group_1139" data-name="Group 1139">
      <g id="Path_3586" data-name="Path 3586">
        <path id="Path_11031" data-name="Path 11031" d="M1100.056,1506.545l.45.466h-2.565l-.116-.116-.35-.35-.2-.183a.9.9,0,0,1-.026-1.272l.01-.011c0-.016,0-.016.016-.016a.915.915,0,0,1,1.283,0Z" fill="#82959d"/>
      </g>
      <g id="Group_1138" data-name="Group 1138">
        <g id="Group_1129" data-name="Group 1129">
          <g id="Path_3592" data-name="Path 3592">
            <path id="Path_11032" data-name="Path 11032" d="M1081.855,1501.1l-2-4.713a.971.971,0,0,0-.9-.582,1.006,1.006,0,0,0-.9.582l-2,4.713a3.471,3.471,0,0,0,.016,2.765,3.079,3.079,0,0,0,1.816,1.665,3.5,3.5,0,0,0,2.127,0,3.08,3.08,0,0,0,1.815-1.665A3.4,3.4,0,0,0,1081.855,1501.1Zm-1.472,2.115a1.487,1.487,0,0,1-.865.818,1.871,1.871,0,0,1-1.133,0,1.486,1.486,0,0,1-.865-.818,1.945,1.945,0,0,1-.016-1.5l1.449-3.382,1.45,3.382a1.88,1.88,0,0,1-.013,1.5Z" fill="#e4122c"/>
          </g>
        </g>
        <g id="Group_1136" data-name="Group 1136">
          <g id="Path_3601" data-name="Path 3601">
            <path id="Path_11033" data-name="Path 11033" d="M1107.833,1502.665l-.032-.033a.889.889,0,0,0-1.248.033l-1.309,1.282-2.382,2.4-1.515,1.515-.067-.067-.766-.782-.45-.466-1.5-1.482a.915.915,0,0,0-1.283,0c-.016,0-.016,0-.016.016a.9.9,0,0,0,.006,1.273l.01.01.2.183.35.35.116.116.151.164,2.431,2.454.3.3c.016,0,.033.016.051.033a.707.707,0,0,0,1-.033l.982-.981,4.979-5a.972.972,0,0,0,.251-.634A.93.93,0,0,0,1107.833,1502.665Zm0,0-.032-.033a.889.889,0,0,0-1.248.033l-1.309,1.282-2.382,2.4-1.515,1.515-.067-.067-.766-.782-.45-.466-1.5-1.482a.915.915,0,0,0-1.283,0c-.016,0-.016,0-.016.016a.9.9,0,0,0,.006,1.273l.01.01.2.183.35.35.116.116.151.164,2.431,2.454.3.3c.016,0,.033.016.051.033a.707.707,0,0,0,1-.033l.982-.981,4.979-5a.972.972,0,0,0,.251-.634A.93.93,0,0,0,1107.833,1502.665Zm-4.979-6.544c-.327-.033-.682-.051-1.016-.051a.454.454,0,0,0-.151.017,1.71,1.71,0,0,0-.417.016,10.166,10.166,0,0,0-9.625,10.159c0,.25.016.5.032.749a10.4,10.4,0,0,0,.534,2.618,7.926,7.926,0,0,0,.716,1.582,10.192,10.192,0,1,0,9.925-15.088Zm-1.016,19.151a9,9,0,0,1-7.525-4.063,8.407,8.407,0,0,1-.818-1.582,8.228,8.228,0,0,1-.617-2.618,5.836,5.836,0,0,1-.051-.749,9.017,9.017,0,0,1,8.443-8.976,1.71,1.71,0,0,1,.417-.016.457.457,0,0,1,.151-.017,6.919,6.919,0,0,1,1.016.067,9,9,0,0,1-1.016,17.953Zm5.961-12.64a.889.889,0,0,0-1.248.033l-1.309,1.282-2.382,2.4-1.515,1.515-.067-.067-.765-.782-.45-.466-1.5-1.482a.914.914,0,0,0-1.282,0c-.017,0-.017,0-.017.016a.9.9,0,0,0,.006,1.273l.011.01.2.183.35.35.117.116.15.164,2.431,2.454.3.3c.017,0,.033.016.051.033a.71.71,0,0,0,1-.033l.981-.982,4.98-5a.966.966,0,0,0,.25-.633.932.932,0,0,0-.25-.654Z" fill="#fff"/>
          </g>
          <g id="Group_6933" data-name="Group 6933">
            <g id="Group_6928" data-name="Group 6928">
              <path id="Path_11034" data-name="Path 11034" d="M1085.124,1487.128h13.586a.792.792,0,1,0-.008-1.583h-13.578a.792.792,0,0,0,0,1.583Z" fill="#1c1c1e"/>
            </g>
            <g id="Group_6929" data-name="Group 6929">
              <path id="Path_11035" data-name="Path 11035" d="M1092.9,1489.842h-7.769a.792.792,0,0,0,0,1.582h7.769a.792.792,0,0,0,0-1.582Z" fill="#1c1c1e"/>
            </g>
            <g id="Group_6930" data-name="Group 6930">
              <path id="Path_11036" data-name="Path 11036" d="M1088.486,1500.828h-3.357a.792.792,0,0,0,0,1.583h3.357a.792.792,0,0,0,0-1.583Z" fill="#1c1c1e"/>
            </g>
            <g id="Group_6931" data-name="Group 6931">
              <path id="Path_11037" data-name="Path 11037" d="M1090.846,1496.177h-5.725a.792.792,0,0,0,0,1.583h5.733a.792.792,0,1,0-.008-1.583Z" fill="#1c1c1e"/>
            </g>
            <g id="Group_6932" data-name="Group 6932">
              <path id="Path_11038" data-name="Path 11038" d="M1112.087,1501.322a11.366,11.366,0,0,0-8.983-6.346v-24.07a2.521,2.521,0,0,0-2.514-2.513h-17.332v0h-1.889l0,0-2.1,2.081h.012l-7.85,7.817v-.007l-1.721,1.721-.357.356h0l0,0v28.581a2.523,2.523,0,0,0,2.5,2.516h19.9a11.368,11.368,0,0,0,20.346-10.142Zm-39.717-21.041,8.936-8.875,0,8.44a.443.443,0,0,1-.432.435Zm18.075,25.979a5.87,5.87,0,0,0,.033.75,10.5,10.5,0,0,0,.428,2.37h-19.065a.423.423,0,0,1-.414-.432v-26.585h9.455a2.513,2.513,0,0,0,2.506-2.516v-9.372h17.2a.436.436,0,0,1,.433.432v24.036A11.36,11.36,0,0,0,1090.445,1506.26Zm20.506.872a9,9,0,0,1-9.113,8.137v0a9,9,0,0,1-7.525-4.064,8.346,8.346,0,0,1-.818-1.582,8.223,8.223,0,0,1-.617-2.617,5.86,5.86,0,0,1-.051-.749,9.018,9.018,0,0,1,8.443-8.977,1.716,1.716,0,0,1,.417-.016.45.45,0,0,1,.151-.016,6.771,6.771,0,0,1,1.016.067A9,9,0,0,1,1110.951,1507.132Z" fill="#1c1c1e"/>
            </g>
          </g>
        </g>
        <g id="Path_3090" data-name="Path 3090">
          <g id="Group_778" data-name="Group 778">
            <g id="Path_3333" data-name="Path 3333">
              <g id="Path_3603" data-name="Path 3603">
                <path id="Path_11039" data-name="Path 11039" d="M1108.084,1503.314a.972.972,0,0,1-.251.633l-4.979,5-.982.982a.707.707,0,0,1-1,.032c-.017-.016-.033-.032-.051-.032l-.3-.3-2.431-2.454-.151-.163-.116-.116-.35-.35-.2-.184a.9.9,0,0,1-.026-1.272l.01-.01c0-.016,0-.016.016-.016a.913.913,0,0,1,1.283,0l1.5,1.482.45.466.766.782.067.067,1.515-1.515,2.382-2.4,1.309-1.283a.889.889,0,0,1,1.248-.032l.032.032A.934.934,0,0,1,1108.084,1503.314Z" fill="#e4122c"/>
              </g>
            </g>
          </g>
          <g id="Group_779" data-name="Group 779">
            <g id="Path_3334" data-name="Path 3334">
              <g id="Path_3604" data-name="Path 3604">
                <path id="Path_11040" data-name="Path 11040" d="M1108.084,1503.314a.972.972,0,0,1-.251.633l-4.979,5-.982.982a.707.707,0,0,1-1,.032c-.017-.016-.033-.032-.051-.032l-.3-.3-2.431-2.454-.151-.163-.116-.116-.35-.35-.2-.184a.9.9,0,0,1-.026-1.272l.01-.01c0-.016,0-.016.016-.016a.913.913,0,0,1,1.283,0l1.5,1.482.45.466.766.782.067.067,1.515-1.515,2.382-2.4,1.309-1.283a.889.889,0,0,1,1.248-.032l.032.032A.934.934,0,0,1,1108.084,1503.314Z" fill="#e4122c"/>
              </g>
            </g>
          </g>
        </g>
        <g id="Group_1137" data-name="Group 1137">
          <g id="Path_3605" data-name="Path 3605">
            <path id="Path_11041" data-name="Path 11041" d="M1077.373,1493.672a.792.792,0,0,1-.56-1.353l2.444-2.444h-2.388a.792.792,0,0,1-.627-1.276l3.331-4.311a.792.792,0,0,1,1.3.9c-.016.022-.033.044-.05.064l-2.345,3.035h2.687a.792.792,0,0,1,.559,1.353l-3.794,3.792A.794.794,0,0,1,1077.373,1493.672Z" fill="#e4122c"/>
          </g>
        </g>
      </g>
    </g>
    <g id="Group_6949" data-name="Group 6949">
      <g id="Group_6934" data-name="Group 6934">
        <rect id="Rectangle_9776" data-name="Rectangle 9776" width="23" height="7" rx="3.5" transform="translate(1161.009 1671.266)" fill="#e4122c"/>
      </g>
      <g id="Group_6935" data-name="Group 6935">
        <rect id="Rectangle_9777" data-name="Rectangle 9777" width="23" height="7" rx="3.5" transform="translate(1161.009 1678.266)" fill="#e4122c"/>
      </g>
      <g id="Group_6948" data-name="Group 6948">
        <g id="Group_6938" data-name="Group 6938">
          <g id="Group_6936" data-name="Group 6936">
            <circle id="Ellipse_231" data-name="Ellipse 231" cx="7" cy="7" r="7" transform="translate(1194.009 1616.266)" fill="#e4122c"/>
          </g>
          <g id="Group_6937" data-name="Group 6937">
            <circle id="Ellipse_232" data-name="Ellipse 232" cx="4" cy="4" r="4" transform="translate(1139.009 1676.266)" fill="#e4122c"/>
          </g>
        </g>
        <g id="Group_4791" data-name="Group 4791">
          <g id="Path_7033" data-name="Path 7033">
            <g id="Group_6939" data-name="Group 6939">
              <path id="Path_11042" data-name="Path 11042" d="M1183.759,1666.556c6.65-5.04,9.19-11.65,7.54-19.64a19.433,19.433,0,0,0-15.81-15.1,11.188,11.188,0,0,1-2.09-.33h-2.51a.767.767,0,0,1-.41.12c-.2.02-.38.03-.56.06a19.693,19.693,0,0,0-17.32,21.82,18.256,18.256,0,0,0,6.63,12.15,6.44,6.44,0,0,0,.64.42,2.5,2.5,0,0,1,1.39,1.53,12.181,12.181,0,0,1,.05,2.76,1.031,1.031,0,0,1-.41.92,4.386,4.386,0,0,0-.3,6.11.845.845,0,0,1,0,1.23,4.349,4.349,0,0,0,3.26,7.24h.06a.951.951,0,0,1,1.04.87,7.218,7.218,0,0,0,5.58,5.83.389.389,0,0,0,.15.02,1.333,1.333,0,0,1,.65.2h1.28a.8.8,0,0,1,.34-.11,7.227,7.227,0,0,0,6.32-5.94.969.969,0,0,1,1.09-.86,4.377,4.377,0,0,0,2.86-1.06,4.381,4.381,0,0,0,.45-6.15.883.883,0,0,1,.01-1.32,4.236,4.236,0,0,0,.15-5.46,3.641,3.641,0,0,1-.91-2.93,3.745,3.745,0,0,0,0-.67A1.677,1.677,0,0,1,1183.759,1666.556Zm-6.22,20.38a5.627,5.627,0,0,1-10.84.01.924.924,0,0,1,.09-.82.878.878,0,0,1,.74-.29c.75.01,1.46.01,2.17.01h6.04c.31,0,.62,0,.93-.01h.02a.923.923,0,0,1,.77.29A.9.9,0,0,1,1177.539,1686.936Zm5.4-4.62a2.583,2.583,0,0,1-2.47,1.86.57.57,0,0,1-.13-.01c-.89.01-1.81.01-2.73.01l-2.76-.01h-3.07l-2.64.01h-2.63c-.88,0-1.75,0-2.63-.01l-.01-.25h-.02v.25a2.258,2.258,0,0,1-.26-.01,2.676,2.676,0,0,1,.26-5.34,2.346,2.346,0,0,1,.26.01h9.24l3.44-.01c1.15,0,2.3,0,3.45.01a.762.762,0,0,1,.17-.01,2.932,2.932,0,0,1,.83.13,2.747,2.747,0,0,1,1.55,1.33A2.677,2.677,0,0,1,1182.939,1682.316Zm-.02-6.99a2.593,2.593,0,0,1-2.47,1.82,1.846,1.846,0,0,1-.23-.01c-.86,0-1.76.01-2.67.01l-2.72-.01h-2.71l-2.46.01h-2.46c-1.1,0-2.2,0-3.29-.01h-.1a2.6,2.6,0,0,1-1.16-.27,2.638,2.638,0,0,1-1.21-3.53,2.415,2.415,0,0,1,2.08-1.51,3.073,3.073,0,0,1,.33-.02h9.14q3.69,0,7.4.01l.06-.01a2.752,2.752,0,0,1,.9.16A2.634,2.634,0,0,1,1182.919,1675.326Zm-19.04-5.18h-.04a.862.862,0,0,1-.64-.24.836.836,0,0,1-.21-.66c0-.25,0-.5-.01-.76a11.081,11.081,0,0,1,.03-1.28,1.513,1.513,0,0,0-.83-1.53l-.03-.01-.02-.02a16.331,16.331,0,0,1-5.26-5.2,17.864,17.864,0,0,1,15.2-27.21c.64,0,1.29.02,1.95.08a17.929,17.929,0,0,1,15.87,15.14c.98,7.19-1.62,12.96-7.72,17.15l-.02.01-.03.02a1.678,1.678,0,0,0-.89,1.68,8.243,8.243,0,0,1,.03,1.21c0,.22-.01.44,0,.67a.941.941,0,0,1-.23.71.821.821,0,0,1-.63.24c-.89-.02-1.74-.03-2.58-.03"/>
            </g>
          </g>
          <g id="Path_7034" data-name="Path 7034">
            <g id="Group_6940" data-name="Group 6940">
              <path id="Path_11043" data-name="Path 11043" d="M1147.039,1650.146a.877.877,0,0,1-.88.86c-.55.01-1.11.02-1.67.02s-1.12-.01-1.68-.01h-.43a1.085,1.085,0,0,1-.9-.56v-.59a1.345,1.345,0,0,1,1.08-.55,2.2,2.2,0,0,1,.23.01c.42.02.83.03,1.25.03h.87c.28-.01.57-.01.85-.01h.43A.86.86,0,0,1,1147.039,1650.146Z"/>
            </g>
          </g>
          <g id="Path_7035" data-name="Path 7035">
            <g id="Group_6941" data-name="Group 6941">
              <path id="Path_11044" data-name="Path 11044" d="M1202.759,1649.886v.55a1.3,1.3,0,0,1-1.11.61,1.086,1.086,0,0,1-.18-.01h-.05c-.37-.02-.75-.02-1.12-.02h-2.23a.84.84,0,0,1-.81-.62.778.778,0,0,1,.24-.86.744.744,0,0,1,.53-.19h2.27c.54,0,1.08,0,1.62-.01l.01-.25h.01v.25C1202.279,1649.336,1202.469,1649.526,1202.759,1649.886Z"/>
            </g>
          </g>
          <g id="Path_7036" data-name="Path 7036">
            <g id="Group_6942" data-name="Group 6942">
              <path id="Path_11045" data-name="Path 11045" d="M1196.519,1641.556c1.39-.67,2.47-1.17,3.51-1.61a.843.843,0,0,1,.34-.08.821.821,0,0,1,.74.47.865.865,0,0,1,.07.4.741.741,0,0,1-.44.7c-1.2.57-2.37,1.13-3.58,1.65a.775.775,0,0,1-.34.08.81.81,0,0,1-.71-.45l-.02-.05a.9.9,0,0,1-.08-.36.728.728,0,0,1,.04-.25.827.827,0,0,1,.41-.47"/>
            </g>
          </g>
          <g id="Path_7037" data-name="Path 7037">
            <g id="Group_6943" data-name="Group 6943">
              <path id="Path_11046" data-name="Path 11046" d="M1201.109,1659.826a.814.814,0,0,1-.79.62h-.07a1.455,1.455,0,0,1-.27-.05l-.61-.28c-.99-.45-2.01-.91-2.99-1.4a.756.756,0,0,1-.39-.45.8.8,0,0,1,.03-.57h.01l.02-.05a.788.788,0,0,1,.73-.48.734.734,0,0,1,.34.08c1.18.52,2.38,1.07,3.57,1.65A.767.767,0,0,1,1201.109,1659.826Z"/>
            </g>
          </g>
          <g id="Path_7038" data-name="Path 7038">
            <g id="Group_6944" data-name="Group 6944">
              <path id="Path_11047" data-name="Path 11047" d="M1147.979,1658.566a22.966,22.966,0,0,1-4.06,1.88h-.06a.8.8,0,0,1-.81-.8.8.8,0,0,1,.36-.7c1.24-.61,2.52-1.2,3.79-1.74a.761.761,0,0,1,.21-.03.811.811,0,0,1,.57,1.39Z"/>
            </g>
          </g>
          <g id="Path_7039" data-name="Path 7039">
            <g id="Group_6945" data-name="Group 6945">
              <path id="Path_11048" data-name="Path 11048" d="M1148.269,1642.346a.8.8,0,0,1-.8.81.717.717,0,0,1-.29-.06c-1.12-.47-2.3-1.01-3.67-1.7a.817.817,0,0,1-.29-1.12.826.826,0,0,1,.71-.4.584.584,0,0,1,.21.03c1.3.55,2.58,1.16,3.76,1.74A.676.676,0,0,1,1148.269,1642.346Z"/>
            </g>
          </g>
          <g id="Path_7040" data-name="Path 7040">
            <g id="Group_6946" data-name="Group 6946">
              <path id="Path_11049" data-name="Path 11049" d="M1180.879,1655.666a.907.907,0,0,1-.29.62c-.02.02-.05.03-.07.05l-.02.02-.03.02c-1.05,1.04-2.29,2.28-3.58,3.52a1.58,1.58,0,0,0-.54,1.27c.01,2.15,0,4.3,0,6.46l-.01,2.51c-.27.01-.55.02-.82.02s-.55-.01-.82-.02l-.01-4.64-.01-5.43a.848.848,0,0,1,.28-.61l1.21-1.2c1.05-1.03,2.1-2.07,3.16-3.1l.03-.03.03-.03a.81.81,0,0,1,.66-.33.844.844,0,0,1,.49.16,1.1,1.1,0,0,1,.11.1A.889.889,0,0,1,1180.879,1655.666Z"/>
            </g>
          </g>
          <g id="Path_7041" data-name="Path 7041">
            <g id="Group_6947" data-name="Group 6947">
              <path id="Path_11050" data-name="Path 11050" d="M1169.559,1660.146c-.01,2.99-.01,6.99-.02,9.99-.27.02-.55.02-.82.02s-.55,0-.83-.02v-2.57c-.01-2.09-.01-4.18,0-6.25a1.93,1.93,0,0,0-.64-1.54c-1.12-1.08-2.24-2.21-3.31-3.3l-.23-.23a.834.834,0,0,1-.06-1.17.84.84,0,0,1,1.11-.11c1.39,1.35,2.78,2.75,4.12,4.11l.47.46A.857.857,0,0,1,1169.559,1660.146Z"/>
            </g>
          </g>
        </g>
      </g>
    </g>
    <g id="Group_6951" data-name="Group 6951">
      <g id="exchange-alt">
        <path id="Path_11051" data-name="Path 11051" d="M1247.128,1541.149a2.577,2.577,0,0,1,2.575-2.577h28.339v-4.381a1.68,1.68,0,0,1,2.861-1.2l6.889,6.8a1.864,1.864,0,0,1,.018,2.637l-.018.018-6.889,6.8a1.681,1.681,0,0,1-2.861-1.209v-4.312H1249.7A2.576,2.576,0,0,1,1247.128,1541.149Z"/>
      </g>
      <g id="Group_6950" data-name="Group 6950">
        <path id="Path_11052" data-name="Path 11052" d="M1285.771,1557.465h-28.343v-4.382a1.68,1.68,0,0,0-2.861-1.2l-6.889,6.8a1.864,1.864,0,0,0-.017,2.637l.017.018,6.889,6.8a1.68,1.68,0,0,0,2.861-1.2v-4.321h28.343a2.576,2.576,0,1,0,0-5.152Z" fill="#e4122c"/>
      </g>
    </g>
    <g id="Group_4716" data-name="Group 4716">
      <g id="Path_22-2-2" data-name="Path 22">
        <path id="Path_11053" data-name="Path 11053" d="M1363,1677.134a9.836,9.836,0,0,1-1.512-.121,9.257,9.257,0,0,1-7.374-6.6,6.839,6.839,0,0,1-.2-.876,9.047,9.047,0,0,1-.147-1.624,9.205,9.205,0,0,1,7.721-9.1,8.779,8.779,0,0,1,1.5-.122h.016a9.209,9.209,0,0,1,8.854,11.717,8.919,8.919,0,0,1-1.444,2.961,8.756,8.756,0,0,1-1.1,1.241A9.135,9.135,0,0,1,1363,1677.134Zm-.053-17.439a8.023,8.023,0,0,0-1.269.1,8.371,8.371,0,0,0-2.28.72,8.263,8.263,0,0,0-4.631,7.4,8.165,8.165,0,0,0,.132,1.454,6.079,6.079,0,0,0,.175.766,8.257,8.257,0,0,0,6.576,5.891,8.4,8.4,0,0,0,1.349.108,8.141,8.141,0,0,0,5.631-2.248,7.79,7.79,0,0,0,.98-1.106,7.917,7.917,0,0,0,1.287-2.638,8.146,8.146,0,0,0,.311-2.231h0a8.22,8.22,0,0,0-8.205-8.215Z" fill="#e4122c"/>
      </g>
      <g id="Group_51-2-2" data-name="Group 51">
        <g id="Path_2-2-2" data-name="Path 2">
          <path id="Path_11054" data-name="Path 11054" d="M1346.449,1669.985H1336.5a2.037,2.037,0,0,1-2.036-2.035v-21.41a7.037,7.037,0,0,1,2.047-4.961,6.967,6.967,0,0,1,4.951-2.046h21.405a2.068,2.068,0,0,1,2.051,2.019v9.958a2.04,2.04,0,0,1-2.036,2.039h-14.394v14.4a2.037,2.037,0,0,1-2.035,2.036Zm-9.952-1h9.952a1.036,1.036,0,0,0,1.035-1.036v-15.4h15.391a1.155,1.155,0,0,0,.733-.3,1.037,1.037,0,0,0,.306-.734v-9.948a1.034,1.034,0,0,0-.313-.719,1.047,1.047,0,0,0-.739-.311h-21.4a5.987,5.987,0,0,0-6,6.006v21.41a1.036,1.036,0,0,0,1.037,1.036Z" fill="#e4122c"/>
        </g>
      </g>
    </g>
  </g>
</svg>
