<svg xmlns="http://www.w3.org/2000/svg" xmlns:xlink="http://www.w3.org/1999/xlink" width="1929" height="1149.33" viewBox="0 0 1929 1149.33">
  <defs>
    <linearGradient id="linear-gradient" x1="0.5" y1="1.009" x2="0.5" gradientUnits="objectBoundingBox">
      <stop offset="0" stop-color="#fff"/>
      <stop offset="1" stop-color="#dfe5e9"/>
    </linearGradient>
  </defs>
  <g id="Group_6368" data-name="Group 6368" transform="translate(0 -3370.983)">
    <path id="Path_3931" data-name="Path 3931" d="M2129.728,887.374,2018.9,819.36h-.322v2.563l109.656,67.294,35.352,25.08-56.312,19.736-88.7-89.9v3.794l86.384,87.555-79.708,169.752-6.676-31.426v15.312l4.434,20.87-4.434,8.563v6.521l7.258-14.016,161.641,3.009-168.9,73.261v2.378L2191.9,1114.53l41.392,32.553-214.715,49.466v2.062l215.543-49.658-15.4,163.164-200.141-86.263v2.373l194.44,83.805-194.44-24.772v1.965l198.8,25.328-91.649,73.819-107.15-65.059v2.745l105.381,63.985L2018.579,1521.97v4.473L2126.7,1391.09l130.682,32.358-238.8,132.854v2.63l238.977-132.951-89.08,230.674-149.9-55.624v2.266l148.5,55.107-89.64,61.469-58.864-75.893v4.584l56.776,73.2-41.779,159.323-15-72.468v15.714l13.157,63.581-13.157,20.555v5.4l14.056-21.961,16.486,72.682-8.613,4.105h5.165l5.65-2.693,38.8,2.693h27.885l-62.741-4.356,199.365-82.544-23.275,86.9h3.267l23.419-87.437,250.408,87.437h6.383l-253.9-88.656,293.221-48.019,58.343,136.675h3.329l-57.955-135.77,145.611,54.476-48.156,81.293h3.423l47.529-80.236,210.921,80.236h6l-211.764-80.557,167.43,4.987,48.781,75.569h3.458l-49.021-75.942,154.982-35.129L2934.78,1968.691h3.681l101.711-110.451,54.149,103.844-104.226,6.607h30.5l75.665-4.8,23.963,4.8h10.134l-23.53-4.71,197.75,1.963.9,2.747h3.287l-.97-2.962,235.06-31.561L3436.5,1968.691h6.745l110.144-35.752,49.338,35.752h4.176l-51.326-37.193,47.742-97.11,12.523,134.3h3.233l-12.839-137.7,250.942,132.225-91.159,5.471h32.2l62.117-3.728,5.393,3.728h4.26l-6.613-4.572,84.2-36.537V1925.2l-84.649,36.731,34.056-229.3,50.593,66.568v-4.662L3897.766,1729l47.98-41.4,1.833,5.1v-11.778l-1.778,2.763L3717.227,1581.8l230.353,23.577v-1.951l-233.189-23.866,177.524-97.637,55.665,69.7v-4.475l-49-61.354,49,32.15v-2.861l-51.371-33.708,40.686.932,10.685,10.333v-3.666l-7.957-7.694,7.957-11.441v-5.022l-10.825,15.563-41.412-.949,52.237-47.55v-3.51l-55.642,50.649-99.311-36.1,154.953-52.153v-2.208l-155.838,52.449,37.326-107.149,118.511,20.73v-2l-118.061-20.652,11.889-143.708,106.172,107.912v-3.8L3842.1,1185.132l105.478-59.824v-2.654l-104.909,59.5,83.411-243.417,21.5,32.836v-5.291l-20.26-30.945,20.26-33.14v-5.618l-22.452,36.726-23.818-19.869,46.271-51.2v-4.055L3898.7,912.27l-351.517-92.91h-7.959l356.369,94.19L3297.96,1087.474,3423.393,819.36h-3.35l-124.967,267.118-104.2-136.385L3393.084,819.36H3388.7L3188.722,948.648l-63.271-25.792,244.826-103.5H3364.7L3122.59,921.708,2858.742,819.36h-5.915L3117.7,922.106l-326.879,13.255-1.411-116h-3.227l1.417,116.481-182.809,63.536L2765.631,819.36h-3.656l-161.61,180.881-258.26-173.367,101.276-7.514h-26.115l-78.347,5.813-49.913-5.813h-16.822l61.72,7.188Zm2.216,1.49L2327.9,830.486l-161.665,82.7Zm204.046-59.982-91.654,208.328-76.381-122.367ZM2236.3,1029.858l-84.2-87.333,14.033-25.084Zm-128.22-93.875,55.078-19.305-14.349,25.648-116.725,155.5Zm42.439,8.765,91.851,95.265-214.321,67.9Zm798.5,61.157,169.72,100.111-207.061,1.011Zm-39.829,98.918L2792.9,939.136l153.367,65.27ZM2326.275,1808.4l-118.71-13.754-19.785-57.958Zm-138-74,331.016-82.346L2331.6,1808.61Zm140.966,76.307-72,66.846-48.561-80.814Zm12.955-.687,226.76-21.7-14.9,41.419Zm-6.755-1.3,187.618-156.5,46.052,134.141Zm190.616-157.357L2993.7,1753.42,2572.3,1786.08Zm998.073-323.7-158.906,12.689,153.99-48.8Zm-1.588-35.457,93.367,46.038-88.538-10.55Zm.646,37.472L3457.4,1416.1l-97.833-73.365Zm-857.472-146.413,32.425,149.474-233.808-94.565Zm-200.62,52.587L2579.971,1121.1l84.471,60.393Zm721.715,417.728-40.521,51.185-53.488-14.485Zm-96.668,35.439L2975.374,1542.2l212.652,108.6Zm53.324,17.093-136.308,44.474,82.758-58.975Zm5.593-.338,41.24-52.09,42.888,94.353Zm43.452-54.578,91.629-54.594-48.314,149.886Zm-3.864-2.606-214.124-109.354,190.333-16.2Zm-20.261-124.063,88.4,51.679-65.052,71.557Zm-195.075,12.87,91.864-135.822,98.67,119.606Zm93.982-137.611,285.491-56.02-186.337,176.212Zm-1.512-1.727-79.739-83.9,363.062,28.3Zm-4.127-.44L2707.963,1335.1l274.15-21.174Zm-351.978-64.585,185.9-54.392,82.992,33.625Zm188.373-55.715,218.893-164.53-134.7,198.64Zm-5.5.066-191.034,55.9L2669.1,1183.882Zm-196.105,56.99L2542.325,1360.6l-77.9-120.076Zm-157.387,26.522-81.577,2.976,4.993-121.017Zm-.143,1.932-89.854,133.839,8.32-130.865Zm5.149-.514,154.807-26.354,44.232,183.462Zm158.1-26.232,359.061,63.464-314.393,121.81Zm359.463,65.6-91.889,135.859-219.514-15.208Zm-92.353,137.763,29.049,210.751L2748.831,1524.17Zm3.845,4.415,114.457,146.421-85.842,61.174Zm173.763,163.328,84.916,42.657-224.777,2.976Zm141.08-112.234,268.726,52.011-318.362,101.981Zm-90.545,50.6,61.733-67.9,25.326,16.032Zm63.712-69.457,132.1-67.326-106.632,83.446Zm-2.26-1.378-89.12-52.1,228.685-19.035Zm-89.374-54.017,186.186-176.068,46.119,156.731Zm189.738-175.131,96.722,72.533-51.7,80.481Zm99.493,73.6,76.181,16.774-127.52,63.151Zm1.249-1.775,64.718-85.028L3536.3,1434.2ZM2990.847,1312.53l363.345-62.72v91.045Zm22.146-5.951,321.9-78.806,19.123,19.939Zm324.341-80.135,22.284-44.256-4.458,62.844Zm-351.419,84.685,137.326-202.507,209.422,117.618Zm-88.353-36.549,13.641-165.63,208.067-1.016Zm-3.328,1.155-224.083-93.764,237.769-72.363Zm-225.18-95.59,6.419-27.73,216.659-40.161Zm-3.12-.593-79.182-56.613,85.516,29.25Zm-84.465-60.637,19.972-112.057,69.9,142.8Zm-9.761.584-239.059,31.1-69.024-66.2Zm4.75,1.35-115.664,115.535-125.87-84.118Zm-118.38,116.609-126.311,19.066,1.685-102.351Zm1.309,1.785-5.064,122.694L2332.8,1258.354Zm-6.378,124.928-86.654,7.942-33.327-110.207Zm1.122,1.842-8.354,131.387-78.515-123.424Zm87.655-2.307,200.235,158.051-292.65-20.393ZM2742,1523.695l-217.34,124.4-75.3-144.788Zm3.3.776,251.1,227.492-469.53-102.474Zm486.486,227.3-190.253,102.222-39.07-99.187Zm7.216-.86,318.635-102.068-128.481,192.909Zm188.735,92.628L3306.7,1962.368l-68.188-209.232Zm132.293-193.075,42.552,177.473-170.208,14.2Zm2.736-2.191,225.706,55.015-182.96,123.272Zm.163-2.037,22.937-30.263,193.331,82.976Zm-3.035-.667-257.2-49.782L3582.83,1615.3Zm-270.182-52.622,114.1-89.29,177.109,109.583Zm116.322-90.687,130.891-64.819,45.9,174.2Zm136.015-64.977,174.165,29.216-6.765,110.824Zm-1.622-2.269,81.338-92.889,93.2,122.168Zm-1.129-2.869-11.688-102.463,91.83,10.943Zm-15.823-141.975L3833.26,1188.3l-211.6,150.283Zm-166.058,50.242v-90.549l158.731,40.245Zm.778-92.626,5.012-70.662,152,110.471Zm-23.4-22.985L3131.18,1110.438l228.649,64.636Zm-206.869-117.405,166.571-17.042,63.935,82.2Zm-222.261.342L2675.1,1150.471l-71.728-146.53ZM2578.333,1118.3l-312.3-35.588,332.783-79.311Zm-382.259-8,48.028-66.77,14.411,39.109Zm65.4-28.574-14.943-40.561,338.715-36.6Zm-230.706,27.506,210.54-66.7-50.128,69.691Zm163.73,4.161,63.276-28.033-22.714,59.934Zm43.359,33.251,23.157-61.1,67.818,65.048Zm.749,1.96,91.642,3.971-1.667,101.262Zm-1.461,2.527,90.972,106.4-106.134,54.2Zm-14.341,162.714,106.236-54.255,33.727,111.526Zm139.531,59.426-101.007,48.146-38.72-105.319Zm-233.914,16.165,90.922-73.233,38.727,105.336Zm134.564,33.652,101.333-48.3,79.378,124.779Zm-1.646,1.662,183.207,77.534-272.242,153.024Zm184.97,79.186,75.416,145.017-347.948,8.17Zm68.685,147.1-328.407,81.7-15.234-73.629ZM2080.077,1721l88.307-60.556,14.994,72.469Zm103.808,13.929,19.7,57.716-121.5-69.454Zm19.875,60.479-132,63.522,6.768-135.111Zm-129.115-58.474-6.2,123.707-32.538,24Zm-39.566,151.382,32.76-24.166-17.16,92.945Zm217.569-8.044L2052.833,1963l18.626-100.892Zm-178.8-19.871,131.6-63.332,48.927,81.425Zm186.606,17.723,72.219-67.045,214.974,20.013Zm296.677-47.748,14.763-41.046,126.3,93.818Zm16.951-42.493,420.538-32.594-288.907,130.374Zm135.863,98.284L2995.714,1757.2l-116.676,134Zm173.431,4.232,116.49-133.782,38.831,98.578Zm159.809-34.706L3235.052,1752.6l68.525,210.264Zm54.457,106.275-54.125-103.8,257.1,105.816Zm211.624,1.594,120.8-118.6,120.794,86.165Zm243.826-33.842-120.136-85.695,169.206-14.115Zm306.595,32.257-252.523-133.059,286.881-98.257Zm32.6-232.931-280.144,95.95,179.494-120.936Zm3.054-1.325-98.57-24.471,146.212-16.64Zm47.312-43.032L3792.2,1701.81l-77.757-118.847ZM3787.7,1700.223l-199.3-85.537,121.606-33.208Zm-79.258-120.434-121.97,33.308-45.74-173.607ZM3888.832,1481l-176.189,96.9,6.777-111.033Zm-3.887-2.265-161.957-13.51,66.4-21.229Zm-98.151-36.092-68.166,21.793-91.443-119.863Zm1.685-1.727-163.005-100.156,200.362-7.082Zm37.825-109.182-200.8,7.1,212.706-151.067Zm7.883-145.943-313.169,102.981L3365.288,1175.6Zm-471.366-12.175-64.416-82.822,528.9,92.923Zm561.054-238.053-76.414,223,53.022-242.509Zm-26.45-20.41-58.718,268.563-538.825-94.666ZM3293.106,1088.54,3124.8,1105.76l64.6-152.952Zm-171.351,16.549-170.761-100.725,235.65-52.906Zm63.739-155.427-228.072,51.2,165.271-76.806Zm-68.012-25.621-169.455,78.752-154.2-65.627Zm-329.038,13.732,117.892,167.971-302.418-103.836Zm-190.856,63.5L2246.8,1039.18l92.854-211.052Z" transform="translate(-2018.579 2551.623)" fill="url(#linear-gradient)"/>
  </g>
</svg>
