<svg xmlns="http://www.w3.org/2000/svg" xmlns:xlink="http://www.w3.org/1999/xlink" width="1920" height="970" viewBox="0 0 1920 970">
  <defs>
    <clipPath id="clip-path">
      <rect id="Rectangle_3703" data-name="Rectangle 3703" width="1920" height="970" transform="translate(0 115)" fill="#fff"/>
    </clipPath>
  </defs>
  <g id="Mask_Group_21" data-name="Mask Group 21" transform="translate(0 -115)" clip-path="url(#clip-path)">
    <g id="Group_6368" data-name="Group 6368">
      <g id="Group_4707" data-name="Group 4707" transform="translate(1202.079 279.87)" opacity="0.5">
        <g id="Group_4582" data-name="Group 4582" transform="translate(666.031 386.187)" opacity="0.7">
          <path id="Path_6238" data-name="Path 6238" d="M27.938,13.972a13.782,13.782,0,0,1-.526,3.786,13.616,13.616,0,0,1-2.186,4.479,13.169,13.169,0,0,1-1.665,1.881A13.962,13.962,0,0,1,.526,17.758a10.654,10.654,0,0,1-.3-1.313A13.554,13.554,0,0,1,0,13.972,13.947,13.947,0,0,1,11.7.187.121.121,0,0,1,11.745.18,13.169,13.169,0,0,1,13.969,0,13.97,13.97,0,0,1,27.938,13.972Z" transform="translate(30.926 30.703)" fill="none" stroke="#052a3a" stroke-width="1"/>
          <g id="Group_4581" data-name="Group 4581" transform="translate(0 0)">
            <path id="Path_6239" data-name="Path 6239" d="M47.18,2.462V18.4a2.473,2.473,0,0,1-2.466,2.466H20.863V44.731A2.46,2.46,0,0,1,18.4,47.193H2.461A2.462,2.462,0,0,1,0,44.731v-34.3A10.381,10.381,0,0,1,3.053,3.058h.006A10.4,10.4,0,0,1,10.432,0H44.715A2.473,2.473,0,0,1,47.18,2.462Z" transform="translate(0)" fill="none" stroke="#052a3a" stroke-width="1"/>
          </g>
        </g>
        <g id="Group_4584" data-name="Group 4584" transform="translate(666.031 -37.219)" opacity="0.7">
          <path id="Path_6240" data-name="Path 6240" d="M27.938,13.972a13.782,13.782,0,0,1-.526,3.786,13.616,13.616,0,0,1-2.186,4.479,13.169,13.169,0,0,1-1.665,1.881A13.962,13.962,0,0,1,.526,17.758a10.654,10.654,0,0,1-.3-1.313A13.554,13.554,0,0,1,0,13.972,13.947,13.947,0,0,1,11.7.187.121.121,0,0,1,11.745.18,13.169,13.169,0,0,1,13.969,0,13.97,13.97,0,0,1,27.938,13.972Z" transform="translate(30.926 30.703)" fill="none" stroke="#052a3a" stroke-width="1"/>
          <g id="Group_4583" data-name="Group 4583" transform="translate(0 0)">
            <path id="Path_6241" data-name="Path 6241" d="M47.18,2.462V18.4a2.473,2.473,0,0,1-2.466,2.466H20.863V44.731A2.46,2.46,0,0,1,18.4,47.193H2.461A2.462,2.462,0,0,1,0,44.731v-34.3A10.381,10.381,0,0,1,3.053,3.058h.006A10.4,10.4,0,0,1,10.432,0H44.715A2.473,2.473,0,0,1,47.18,2.462Z" transform="translate(0)" fill="none" stroke="#052a3a" stroke-width="1"/>
          </g>
        </g>
        <g id="Group_4586" data-name="Group 4586" transform="translate(666.031 280.335)" opacity="0.7">
          <path id="Path_6242" data-name="Path 6242" d="M27.938,13.972a13.782,13.782,0,0,1-.526,3.786,13.616,13.616,0,0,1-2.186,4.479,13.169,13.169,0,0,1-1.665,1.881A13.962,13.962,0,0,1,.526,17.758a10.654,10.654,0,0,1-.3-1.313A13.554,13.554,0,0,1,0,13.972,13.947,13.947,0,0,1,11.7.187.121.121,0,0,1,11.745.18,13.169,13.169,0,0,1,13.969,0,13.97,13.97,0,0,1,27.938,13.972Z" transform="translate(30.926 30.703)" fill="none" stroke="#052a3a" stroke-width="1"/>
          <g id="Group_4585" data-name="Group 4585" transform="translate(0 0)">
            <path id="Path_6243" data-name="Path 6243" d="M47.18,2.462V18.4a2.473,2.473,0,0,1-2.466,2.466H20.863V44.731A2.46,2.46,0,0,1,18.4,47.193H2.461A2.462,2.462,0,0,1,0,44.731v-34.3A10.381,10.381,0,0,1,3.053,3.058h.006A10.4,10.4,0,0,1,10.432,0H44.715A2.473,2.473,0,0,1,47.18,2.462Z" transform="translate(0)" fill="none" stroke="#052a3a" stroke-width="1"/>
          </g>
        </g>
        <g id="Group_4588" data-name="Group 4588" transform="translate(666.031 -143.07)" opacity="0.7">
          <path id="Path_6244" data-name="Path 6244" d="M27.938,13.972a13.782,13.782,0,0,1-.526,3.786,13.616,13.616,0,0,1-2.186,4.479,13.169,13.169,0,0,1-1.665,1.881A13.962,13.962,0,0,1,.526,17.758a10.654,10.654,0,0,1-.3-1.313A13.554,13.554,0,0,1,0,13.972,13.947,13.947,0,0,1,11.7.187.121.121,0,0,1,11.745.18,13.169,13.169,0,0,1,13.969,0,13.97,13.97,0,0,1,27.938,13.972Z" transform="translate(30.926 30.703)" fill="none" stroke="#052a3a" stroke-width="1"/>
          <g id="Group_4587" data-name="Group 4587" transform="translate(0 0)">
            <path id="Path_6245" data-name="Path 6245" d="M47.18,2.462V18.4a2.473,2.473,0,0,1-2.466,2.466H20.863V44.731A2.46,2.46,0,0,1,18.4,47.193H2.461A2.462,2.462,0,0,1,0,44.731v-34.3A10.381,10.381,0,0,1,3.053,3.058h.006A10.4,10.4,0,0,1,10.432,0H44.715A2.473,2.473,0,0,1,47.18,2.462Z" transform="translate(0)" fill="none" stroke="#052a3a" stroke-width="1"/>
          </g>
        </g>
        <g id="Group_4590" data-name="Group 4590" transform="translate(666.031 599.301)" opacity="0.7">
          <path id="Path_6246" data-name="Path 6246" d="M27.938,13.972a13.782,13.782,0,0,1-.526,3.786,13.616,13.616,0,0,1-2.186,4.479,13.169,13.169,0,0,1-1.665,1.881A13.962,13.962,0,0,1,.526,17.758a10.654,10.654,0,0,1-.3-1.313A13.554,13.554,0,0,1,0,13.972,13.947,13.947,0,0,1,11.7.187.121.121,0,0,1,11.745.18,13.169,13.169,0,0,1,13.969,0,13.97,13.97,0,0,1,27.938,13.972Z" transform="translate(30.926 30.703)" fill="none" stroke="#052a3a" stroke-width="1"/>
          <g id="Group_4589" data-name="Group 4589" transform="translate(0 0)">
            <path id="Path_6247" data-name="Path 6247" d="M47.18,2.462V18.4a2.473,2.473,0,0,1-2.466,2.466H20.863V44.731A2.46,2.46,0,0,1,18.4,47.193H2.461A2.462,2.462,0,0,1,0,44.731v-34.3A10.381,10.381,0,0,1,3.053,3.058h.006A10.4,10.4,0,0,1,10.432,0H44.715A2.473,2.473,0,0,1,47.18,2.462Z" transform="translate(0)" fill="none" stroke="#052a3a" stroke-width="1"/>
          </g>
        </g>
        <g id="Group_4592" data-name="Group 4592" transform="translate(666.031 174.484)" opacity="0.7">
          <path id="Path_6248" data-name="Path 6248" d="M27.938,13.972a13.782,13.782,0,0,1-.526,3.786,13.616,13.616,0,0,1-2.186,4.479,13.169,13.169,0,0,1-1.665,1.881A13.962,13.962,0,0,1,.526,17.758a10.654,10.654,0,0,1-.3-1.313A13.554,13.554,0,0,1,0,13.972,13.947,13.947,0,0,1,11.7.187.121.121,0,0,1,11.745.18,13.169,13.169,0,0,1,13.969,0,13.97,13.97,0,0,1,27.938,13.972Z" transform="translate(30.926 30.703)" fill="none" stroke="#052a3a" stroke-width="1"/>
          <g id="Group_4591" data-name="Group 4591" transform="translate(0 0)">
            <path id="Path_6249" data-name="Path 6249" d="M47.18,2.462V18.4a2.473,2.473,0,0,1-2.466,2.466H20.863V44.731A2.46,2.46,0,0,1,18.4,47.193H2.461A2.462,2.462,0,0,1,0,44.731v-34.3A10.381,10.381,0,0,1,3.053,3.058h.006A10.4,10.4,0,0,1,10.432,0H44.715A2.473,2.473,0,0,1,47.18,2.462Z" transform="translate(0)" fill="none" stroke="#052a3a" stroke-width="1"/>
          </g>
        </g>
        <g id="Group_4594" data-name="Group 4594" transform="translate(666.031 492.038)" opacity="0.7">
          <path id="Path_6250" data-name="Path 6250" d="M27.938,13.972a13.782,13.782,0,0,1-.526,3.786,13.616,13.616,0,0,1-2.186,4.479,13.169,13.169,0,0,1-1.665,1.881A13.962,13.962,0,0,1,.526,17.758a10.654,10.654,0,0,1-.3-1.313A13.554,13.554,0,0,1,0,13.972,13.947,13.947,0,0,1,11.7.187.121.121,0,0,1,11.745.18,13.169,13.169,0,0,1,13.969,0,13.97,13.97,0,0,1,27.938,13.972Z" transform="translate(30.926 30.703)" fill="none" stroke="#052a3a" stroke-width="1"/>
          <g id="Group_4593" data-name="Group 4593" transform="translate(0 0)">
            <path id="Path_6251" data-name="Path 6251" d="M47.18,2.462V18.4a2.473,2.473,0,0,1-2.466,2.466H20.863V44.731A2.46,2.46,0,0,1,18.4,47.193H2.461A2.462,2.462,0,0,1,0,44.731v-34.3A10.381,10.381,0,0,1,3.053,3.058h.006A10.4,10.4,0,0,1,10.432,0H44.715A2.473,2.473,0,0,1,47.18,2.462Z" transform="translate(0)" fill="none" stroke="#052a3a" stroke-width="1"/>
          </g>
        </g>
        <g id="Group_4596" data-name="Group 4596" transform="translate(666.031 68.633)" opacity="0.7">
          <path id="Path_6252" data-name="Path 6252" d="M27.938,13.972a13.782,13.782,0,0,1-.526,3.786,13.616,13.616,0,0,1-2.186,4.479,13.169,13.169,0,0,1-1.665,1.881A13.962,13.962,0,0,1,.526,17.758a10.654,10.654,0,0,1-.3-1.313A13.554,13.554,0,0,1,0,13.972,13.947,13.947,0,0,1,11.7.187.121.121,0,0,1,11.745.18,13.169,13.169,0,0,1,13.969,0,13.97,13.97,0,0,1,27.938,13.972Z" transform="translate(30.926 30.703)" fill="none" stroke="#052a3a" stroke-width="1"/>
          <g id="Group_4595" data-name="Group 4595" transform="translate(0 0)">
            <path id="Path_6253" data-name="Path 6253" d="M47.18,2.462V18.4a2.473,2.473,0,0,1-2.466,2.466H20.863V44.731A2.46,2.46,0,0,1,18.4,47.193H2.461A2.462,2.462,0,0,1,0,44.731v-34.3A10.381,10.381,0,0,1,3.053,3.058h.006A10.4,10.4,0,0,1,10.432,0H44.715A2.473,2.473,0,0,1,47.18,2.462Z" transform="translate(0)" fill="none" stroke="#052a3a" stroke-width="1"/>
          </g>
        </g>
        <g id="Group_4598" data-name="Group 4598" transform="translate(666.031 705.152)" opacity="0.7">
          <path id="Path_6254" data-name="Path 6254" d="M27.938,13.972a13.782,13.782,0,0,1-.526,3.786,13.616,13.616,0,0,1-2.186,4.479,13.169,13.169,0,0,1-1.665,1.881A13.962,13.962,0,0,1,.526,17.758a10.654,10.654,0,0,1-.3-1.313A13.554,13.554,0,0,1,0,13.972,13.947,13.947,0,0,1,11.7.187.121.121,0,0,1,11.745.18,13.169,13.169,0,0,1,13.969,0,13.97,13.97,0,0,1,27.938,13.972Z" transform="translate(30.926 30.703)" fill="none" stroke="#052a3a" stroke-width="1"/>
          <g id="Group_4597" data-name="Group 4597" transform="translate(0 0)">
            <path id="Path_6255" data-name="Path 6255" d="M47.18,2.462V18.4a2.473,2.473,0,0,1-2.466,2.466H20.863V44.731A2.46,2.46,0,0,1,18.4,47.193H2.461A2.462,2.462,0,0,1,0,44.731v-34.3A10.381,10.381,0,0,1,3.053,3.058h.006A10.4,10.4,0,0,1,10.432,0H44.715A2.473,2.473,0,0,1,47.18,2.462Z" transform="translate(0)" fill="none" stroke="#052a3a" stroke-width="1"/>
          </g>
        </g>
        <g id="Group_4600" data-name="Group 4600" transform="translate(516.354 379.13)" opacity="0.5">
          <path id="Path_6256" data-name="Path 6256" d="M27.938,13.972a13.782,13.782,0,0,1-.526,3.786,13.616,13.616,0,0,1-2.186,4.479,13.169,13.169,0,0,1-1.665,1.881A13.962,13.962,0,0,1,.526,17.758a10.654,10.654,0,0,1-.3-1.313A13.554,13.554,0,0,1,0,13.972,13.947,13.947,0,0,1,11.7.187.121.121,0,0,1,11.745.18,13.169,13.169,0,0,1,13.969,0,13.97,13.97,0,0,1,27.938,13.972Z" transform="translate(30.926 30.703)" fill="none" stroke="#052a3a" stroke-width="1"/>
          <g id="Group_4599" data-name="Group 4599" transform="translate(0 0)">
            <path id="Path_6257" data-name="Path 6257" d="M47.18,2.462V18.4a2.473,2.473,0,0,1-2.466,2.466H20.863V44.731A2.46,2.46,0,0,1,18.4,47.193H2.461A2.462,2.462,0,0,1,0,44.731v-34.3A10.381,10.381,0,0,1,3.053,3.058h.006A10.4,10.4,0,0,1,10.432,0H44.715A2.473,2.473,0,0,1,47.18,2.462Z" transform="translate(0)" fill="none" stroke="#052a3a" stroke-width="1"/>
          </g>
        </g>
        <g id="Group_4602" data-name="Group 4602" transform="translate(516.354 -38.63)" opacity="0.5">
          <path id="Path_6258" data-name="Path 6258" d="M27.938,13.972a13.782,13.782,0,0,1-.526,3.786,13.616,13.616,0,0,1-2.186,4.479,13.169,13.169,0,0,1-1.665,1.881A13.962,13.962,0,0,1,.526,17.758a10.654,10.654,0,0,1-.3-1.313A13.554,13.554,0,0,1,0,13.972,13.947,13.947,0,0,1,11.7.187.121.121,0,0,1,11.745.18,13.169,13.169,0,0,1,13.969,0,13.97,13.97,0,0,1,27.938,13.972Z" transform="translate(30.926 30.703)" fill="none" stroke="#052a3a" stroke-width="1"/>
          <g id="Group_4601" data-name="Group 4601" transform="translate(0 0)">
            <path id="Path_6259" data-name="Path 6259" d="M47.18,2.462V18.4a2.473,2.473,0,0,1-2.466,2.466H20.863V44.731A2.46,2.46,0,0,1,18.4,47.193H2.461A2.462,2.462,0,0,1,0,44.731v-34.3A10.381,10.381,0,0,1,3.053,3.058h.006A10.4,10.4,0,0,1,10.432,0H44.715A2.473,2.473,0,0,1,47.18,2.462Z" transform="translate(0)" fill="none" stroke="#052a3a" stroke-width="1"/>
          </g>
        </g>
        <g id="Group_4604" data-name="Group 4604" transform="translate(516.354 -143.07)" opacity="0.5">
          <path id="Path_6260" data-name="Path 6260" d="M27.938,13.972a13.782,13.782,0,0,1-.526,3.786,13.616,13.616,0,0,1-2.186,4.479,13.169,13.169,0,0,1-1.665,1.881A13.962,13.962,0,0,1,.526,17.758a10.654,10.654,0,0,1-.3-1.313A13.554,13.554,0,0,1,0,13.972,13.947,13.947,0,0,1,11.7.187.121.121,0,0,1,11.745.18,13.169,13.169,0,0,1,13.969,0,13.97,13.97,0,0,1,27.938,13.972Z" transform="translate(30.926 30.703)" fill="none" stroke="#052a3a" stroke-width="1"/>
          <g id="Group_4603" data-name="Group 4603" transform="translate(0 0)">
            <path id="Path_6261" data-name="Path 6261" d="M47.18,2.462V18.4a2.473,2.473,0,0,1-2.466,2.466H20.863V44.731A2.46,2.46,0,0,1,18.4,47.193H2.461A2.462,2.462,0,0,1,0,44.731v-34.3A10.381,10.381,0,0,1,3.053,3.058h.006A10.4,10.4,0,0,1,10.432,0H44.715A2.473,2.473,0,0,1,47.18,2.462Z" transform="translate(0)" fill="none" stroke="#052a3a" stroke-width="1"/>
          </g>
        </g>
        <g id="Group_4606" data-name="Group 4606" transform="translate(366.677 379.13)" opacity="0.3">
          <path id="Path_6262" data-name="Path 6262" d="M27.938,13.972a13.782,13.782,0,0,1-.526,3.786,13.616,13.616,0,0,1-2.186,4.479,13.169,13.169,0,0,1-1.665,1.881A13.962,13.962,0,0,1,.526,17.758a10.654,10.654,0,0,1-.3-1.313A13.554,13.554,0,0,1,0,13.972,13.947,13.947,0,0,1,11.7.187.121.121,0,0,1,11.745.18,13.169,13.169,0,0,1,13.969,0,13.97,13.97,0,0,1,27.938,13.972Z" transform="translate(30.926 30.703)" fill="none" stroke="#052a3a" stroke-width="1"/>
          <g id="Group_4605" data-name="Group 4605" transform="translate(0 0)">
            <path id="Path_6263" data-name="Path 6263" d="M47.18,2.462V18.4a2.473,2.473,0,0,1-2.466,2.466H20.863V44.731A2.46,2.46,0,0,1,18.4,47.193H2.461A2.462,2.462,0,0,1,0,44.731v-34.3A10.381,10.381,0,0,1,3.053,3.058h.006A10.4,10.4,0,0,1,10.432,0H44.715A2.473,2.473,0,0,1,47.18,2.462Z" transform="translate(0)" fill="none" stroke="#052a3a" stroke-width="1"/>
          </g>
        </g>
        <g id="Group_4608" data-name="Group 4608" transform="translate(366.677 -38.63)" opacity="0.3">
          <path id="Path_6264" data-name="Path 6264" d="M27.938,13.972a13.782,13.782,0,0,1-.526,3.786,13.616,13.616,0,0,1-2.186,4.479,13.169,13.169,0,0,1-1.665,1.881A13.962,13.962,0,0,1,.526,17.758a10.654,10.654,0,0,1-.3-1.313A13.554,13.554,0,0,1,0,13.972,13.947,13.947,0,0,1,11.7.187.121.121,0,0,1,11.745.18,13.169,13.169,0,0,1,13.969,0,13.97,13.97,0,0,1,27.938,13.972Z" transform="translate(30.926 30.703)" fill="none" stroke="#052a3a" stroke-width="1"/>
          <g id="Group_4607" data-name="Group 4607" transform="translate(0 0)">
            <path id="Path_6265" data-name="Path 6265" d="M47.18,2.462V18.4a2.473,2.473,0,0,1-2.466,2.466H20.863V44.731A2.46,2.46,0,0,1,18.4,47.193H2.461A2.462,2.462,0,0,1,0,44.731v-34.3A10.381,10.381,0,0,1,3.053,3.058h.006A10.4,10.4,0,0,1,10.432,0H44.715A2.473,2.473,0,0,1,47.18,2.462Z" transform="translate(0)" fill="none" stroke="#052a3a" stroke-width="1"/>
          </g>
        </g>
        <g id="Group_4610" data-name="Group 4610" transform="translate(366.677 -143.07)" opacity="0.3">
          <path id="Path_6266" data-name="Path 6266" d="M27.938,13.972a13.782,13.782,0,0,1-.526,3.786,13.616,13.616,0,0,1-2.186,4.479,13.169,13.169,0,0,1-1.665,1.881A13.962,13.962,0,0,1,.526,17.758a10.654,10.654,0,0,1-.3-1.313A13.554,13.554,0,0,1,0,13.972,13.947,13.947,0,0,1,11.7.187.121.121,0,0,1,11.745.18,13.169,13.169,0,0,1,13.969,0,13.97,13.97,0,0,1,27.938,13.972Z" transform="translate(30.926 30.703)" fill="none" stroke="#052a3a" stroke-width="1"/>
          <g id="Group_4609" data-name="Group 4609" transform="translate(0 0)">
            <path id="Path_6267" data-name="Path 6267" d="M47.18,2.462V18.4a2.473,2.473,0,0,1-2.466,2.466H20.863V44.731A2.46,2.46,0,0,1,18.4,47.193H2.461A2.462,2.462,0,0,1,0,44.731v-34.3A10.381,10.381,0,0,1,3.053,3.058h.006A10.4,10.4,0,0,1,10.432,0H44.715A2.473,2.473,0,0,1,47.18,2.462Z" transform="translate(0)" fill="none" stroke="#052a3a" stroke-width="1"/>
          </g>
        </g>
        <g id="Group_4612" data-name="Group 4612" transform="translate(216.999 379.13)" opacity="0.1">
          <path id="Path_6268" data-name="Path 6268" d="M27.938,13.972a13.782,13.782,0,0,1-.526,3.786,13.616,13.616,0,0,1-2.186,4.479,13.169,13.169,0,0,1-1.665,1.881A13.962,13.962,0,0,1,.526,17.758a10.654,10.654,0,0,1-.3-1.313A13.554,13.554,0,0,1,0,13.972,13.947,13.947,0,0,1,11.7.187.121.121,0,0,1,11.745.18,13.169,13.169,0,0,1,13.969,0,13.97,13.97,0,0,1,27.938,13.972Z" transform="translate(30.926 30.703)" fill="none" stroke="#052a3a" stroke-width="1"/>
          <g id="Group_4611" data-name="Group 4611" transform="translate(0 0)">
            <path id="Path_6269" data-name="Path 6269" d="M47.18,2.462V18.4a2.473,2.473,0,0,1-2.466,2.466H20.863V44.731A2.46,2.46,0,0,1,18.4,47.193H2.461A2.462,2.462,0,0,1,0,44.731v-34.3A10.381,10.381,0,0,1,3.053,3.058h.006A10.4,10.4,0,0,1,10.432,0H44.715A2.473,2.473,0,0,1,47.18,2.462Z" fill="none" stroke="#052a3a" stroke-width="1"/>
          </g>
        </g>
        <g id="Group_4614" data-name="Group 4614" transform="translate(216.999 -38.63)" opacity="0.1">
          <path id="Path_6270" data-name="Path 6270" d="M27.938,13.972a13.782,13.782,0,0,1-.526,3.786,13.616,13.616,0,0,1-2.186,4.479,13.169,13.169,0,0,1-1.665,1.881A13.962,13.962,0,0,1,.526,17.758a10.654,10.654,0,0,1-.3-1.313A13.554,13.554,0,0,1,0,13.972,13.947,13.947,0,0,1,11.7.187.121.121,0,0,1,11.745.18,13.169,13.169,0,0,1,13.969,0,13.97,13.97,0,0,1,27.938,13.972Z" transform="translate(30.926 30.703)" fill="none" stroke="#052a3a" stroke-width="1"/>
          <g id="Group_4613" data-name="Group 4613" transform="translate(0 0)">
            <path id="Path_6271" data-name="Path 6271" d="M47.18,2.462V18.4a2.473,2.473,0,0,1-2.466,2.466H20.863V44.731A2.46,2.46,0,0,1,18.4,47.193H2.461A2.462,2.462,0,0,1,0,44.731v-34.3A10.381,10.381,0,0,1,3.053,3.058h.006A10.4,10.4,0,0,1,10.432,0H44.715A2.473,2.473,0,0,1,47.18,2.462Z" fill="none" stroke="#052a3a" stroke-width="1"/>
          </g>
        </g>
        <g id="Group_4616" data-name="Group 4616" transform="translate(216.999 -143.07)" opacity="0.1">
          <path id="Path_6272" data-name="Path 6272" d="M27.938,13.972a13.782,13.782,0,0,1-.526,3.786,13.616,13.616,0,0,1-2.186,4.479,13.169,13.169,0,0,1-1.665,1.881A13.962,13.962,0,0,1,.526,17.758a10.654,10.654,0,0,1-.3-1.313A13.554,13.554,0,0,1,0,13.972,13.947,13.947,0,0,1,11.7.187.121.121,0,0,1,11.745.18,13.169,13.169,0,0,1,13.969,0,13.97,13.97,0,0,1,27.938,13.972Z" transform="translate(30.926 30.703)" fill="none" stroke="#052a3a" stroke-width="1"/>
          <g id="Group_4615" data-name="Group 4615" transform="translate(0 0)">
            <path id="Path_6273" data-name="Path 6273" d="M47.18,2.462V18.4a2.473,2.473,0,0,1-2.466,2.466H20.863V44.731A2.46,2.46,0,0,1,18.4,47.193H2.461A2.462,2.462,0,0,1,0,44.731v-34.3A10.381,10.381,0,0,1,3.053,3.058h.006A10.4,10.4,0,0,1,10.432,0H44.715A2.473,2.473,0,0,1,47.18,2.462Z" fill="none" stroke="#052a3a" stroke-width="1"/>
          </g>
        </g>
        <g id="Group_4618" data-name="Group 4618" transform="translate(516.354 588.01)" opacity="0.5">
          <path id="Path_6274" data-name="Path 6274" d="M27.938,13.972a13.782,13.782,0,0,1-.526,3.786,13.616,13.616,0,0,1-2.186,4.479,13.169,13.169,0,0,1-1.665,1.881A13.962,13.962,0,0,1,.526,17.758a10.654,10.654,0,0,1-.3-1.313A13.554,13.554,0,0,1,0,13.972,13.947,13.947,0,0,1,11.7.187.121.121,0,0,1,11.745.18,13.169,13.169,0,0,1,13.969,0,13.97,13.97,0,0,1,27.938,13.972Z" transform="translate(30.926 30.703)" fill="none" stroke="#052a3a" stroke-width="1"/>
          <g id="Group_4617" data-name="Group 4617" transform="translate(0 0)">
            <path id="Path_6275" data-name="Path 6275" d="M47.18,2.462V18.4a2.473,2.473,0,0,1-2.466,2.466H20.863V44.731A2.46,2.46,0,0,1,18.4,47.193H2.461A2.462,2.462,0,0,1,0,44.731v-34.3A10.381,10.381,0,0,1,3.053,3.058h.006A10.4,10.4,0,0,1,10.432,0H44.715A2.473,2.473,0,0,1,47.18,2.462Z" transform="translate(0)" fill="none" stroke="#052a3a" stroke-width="1"/>
          </g>
        </g>
        <g id="Group_4620" data-name="Group 4620" transform="translate(516.354 170.25)" opacity="0.5">
          <path id="Path_6276" data-name="Path 6276" d="M27.938,13.972a13.782,13.782,0,0,1-.526,3.786,13.616,13.616,0,0,1-2.186,4.479,13.169,13.169,0,0,1-1.665,1.881A13.962,13.962,0,0,1,.526,17.758a10.654,10.654,0,0,1-.3-1.313A13.554,13.554,0,0,1,0,13.972,13.947,13.947,0,0,1,11.7.187.121.121,0,0,1,11.745.18,13.169,13.169,0,0,1,13.969,0,13.97,13.97,0,0,1,27.938,13.972Z" transform="translate(30.926 30.703)" fill="none" stroke="#052a3a" stroke-width="1"/>
          <g id="Group_4619" data-name="Group 4619" transform="translate(0 0)">
            <path id="Path_6277" data-name="Path 6277" d="M47.18,2.462V18.4a2.473,2.473,0,0,1-2.466,2.466H20.863V44.731A2.46,2.46,0,0,1,18.4,47.193H2.461A2.462,2.462,0,0,1,0,44.731v-34.3A10.381,10.381,0,0,1,3.053,3.058h.006A10.4,10.4,0,0,1,10.432,0H44.715A2.473,2.473,0,0,1,47.18,2.462Z" transform="translate(0)" fill="none" stroke="#052a3a" stroke-width="1"/>
          </g>
        </g>
        <g id="Group_4622" data-name="Group 4622" transform="translate(366.677 588.01)" opacity="0.3">
          <path id="Path_6278" data-name="Path 6278" d="M27.938,13.972a13.782,13.782,0,0,1-.526,3.786,13.616,13.616,0,0,1-2.186,4.479,13.169,13.169,0,0,1-1.665,1.881A13.962,13.962,0,0,1,.526,17.758a10.654,10.654,0,0,1-.3-1.313A13.554,13.554,0,0,1,0,13.972,13.947,13.947,0,0,1,11.7.187.121.121,0,0,1,11.745.18,13.169,13.169,0,0,1,13.969,0,13.97,13.97,0,0,1,27.938,13.972Z" transform="translate(30.926 30.703)" fill="none" stroke="#052a3a" stroke-width="1"/>
          <g id="Group_4621" data-name="Group 4621" transform="translate(0 0)">
            <path id="Path_6279" data-name="Path 6279" d="M47.18,2.462V18.4a2.473,2.473,0,0,1-2.466,2.466H20.863V44.731A2.46,2.46,0,0,1,18.4,47.193H2.461A2.462,2.462,0,0,1,0,44.731v-34.3A10.381,10.381,0,0,1,3.053,3.058h.006A10.4,10.4,0,0,1,10.432,0H44.715A2.473,2.473,0,0,1,47.18,2.462Z" transform="translate(0)" fill="none" stroke="#052a3a" stroke-width="1"/>
          </g>
        </g>
        <g id="Group_4624" data-name="Group 4624" transform="translate(366.677 170.25)" opacity="0.3">
          <path id="Path_6280" data-name="Path 6280" d="M27.938,13.972a13.782,13.782,0,0,1-.526,3.786,13.616,13.616,0,0,1-2.186,4.479,13.169,13.169,0,0,1-1.665,1.881A13.962,13.962,0,0,1,.526,17.758a10.654,10.654,0,0,1-.3-1.313A13.554,13.554,0,0,1,0,13.972,13.947,13.947,0,0,1,11.7.187.121.121,0,0,1,11.745.18,13.169,13.169,0,0,1,13.969,0,13.97,13.97,0,0,1,27.938,13.972Z" transform="translate(30.926 30.703)" fill="none" stroke="#052a3a" stroke-width="1"/>
          <g id="Group_4623" data-name="Group 4623" transform="translate(0 0)">
            <path id="Path_6281" data-name="Path 6281" d="M47.18,2.462V18.4a2.473,2.473,0,0,1-2.466,2.466H20.863V44.731A2.46,2.46,0,0,1,18.4,47.193H2.461A2.462,2.462,0,0,1,0,44.731v-34.3A10.381,10.381,0,0,1,3.053,3.058h.006A10.4,10.4,0,0,1,10.432,0H44.715A2.473,2.473,0,0,1,47.18,2.462Z" transform="translate(0)" fill="none" stroke="#052a3a" stroke-width="1"/>
          </g>
        </g>
        <g id="Group_4626" data-name="Group 4626" transform="translate(216.999 588.01)" opacity="0.1">
          <path id="Path_6282" data-name="Path 6282" d="M27.938,13.972a13.782,13.782,0,0,1-.526,3.786,13.616,13.616,0,0,1-2.186,4.479,13.169,13.169,0,0,1-1.665,1.881A13.962,13.962,0,0,1,.526,17.758a10.654,10.654,0,0,1-.3-1.313A13.554,13.554,0,0,1,0,13.972,13.947,13.947,0,0,1,11.7.187.121.121,0,0,1,11.745.18,13.169,13.169,0,0,1,13.969,0,13.97,13.97,0,0,1,27.938,13.972Z" transform="translate(30.926 30.703)" fill="none" stroke="#052a3a" stroke-width="1"/>
          <g id="Group_4625" data-name="Group 4625" transform="translate(0 0)">
            <path id="Path_6283" data-name="Path 6283" d="M47.18,2.462V18.4a2.473,2.473,0,0,1-2.466,2.466H20.863V44.731A2.46,2.46,0,0,1,18.4,47.193H2.461A2.462,2.462,0,0,1,0,44.731v-34.3A10.381,10.381,0,0,1,3.053,3.058h.006A10.4,10.4,0,0,1,10.432,0H44.715A2.473,2.473,0,0,1,47.18,2.462Z" fill="none" stroke="#052a3a" stroke-width="1"/>
          </g>
        </g>
        <g id="Group_4628" data-name="Group 4628" transform="translate(216.999 170.25)" opacity="0.1">
          <path id="Path_6284" data-name="Path 6284" d="M27.938,13.972a13.782,13.782,0,0,1-.526,3.786,13.616,13.616,0,0,1-2.186,4.479,13.169,13.169,0,0,1-1.665,1.881A13.962,13.962,0,0,1,.526,17.758a10.654,10.654,0,0,1-.3-1.313A13.554,13.554,0,0,1,0,13.972,13.947,13.947,0,0,1,11.7.187.121.121,0,0,1,11.745.18,13.169,13.169,0,0,1,13.969,0,13.97,13.97,0,0,1,27.938,13.972Z" transform="translate(30.926 30.703)" fill="none" stroke="#052a3a" stroke-width="1"/>
          <g id="Group_4627" data-name="Group 4627" transform="translate(0 0)">
            <path id="Path_6285" data-name="Path 6285" d="M47.18,2.462V18.4a2.473,2.473,0,0,1-2.466,2.466H20.863V44.731A2.46,2.46,0,0,1,18.4,47.193H2.461A2.462,2.462,0,0,1,0,44.731v-34.3A10.381,10.381,0,0,1,3.053,3.058h.006A10.4,10.4,0,0,1,10.432,0H44.715A2.473,2.473,0,0,1,47.18,2.462Z" fill="none" stroke="#052a3a" stroke-width="1"/>
          </g>
        </g>
        <g id="Group_4630" data-name="Group 4630" transform="translate(516.358 483.57)" opacity="0.5">
          <path id="Path_6286" data-name="Path 6286" d="M27.938,13.972a13.782,13.782,0,0,1-.526,3.786,13.616,13.616,0,0,1-2.186,4.479,13.169,13.169,0,0,1-1.665,1.881A13.962,13.962,0,0,1,.526,17.758a10.654,10.654,0,0,1-.3-1.313A13.554,13.554,0,0,1,0,13.972,13.947,13.947,0,0,1,11.7.187.121.121,0,0,1,11.745.18,13.169,13.169,0,0,1,13.969,0,13.97,13.97,0,0,1,27.938,13.972Z" transform="translate(30.926 30.703)" fill="none" stroke="#052a3a" stroke-width="1"/>
          <g id="Group_4629" data-name="Group 4629" transform="translate(0 0)">
            <path id="Path_6287" data-name="Path 6287" d="M47.18,2.462V18.4a2.473,2.473,0,0,1-2.466,2.466H20.863V44.731A2.46,2.46,0,0,1,18.4,47.193H2.461A2.462,2.462,0,0,1,0,44.731v-34.3A10.381,10.381,0,0,1,3.053,3.058h.006A10.4,10.4,0,0,1,10.432,0H44.715A2.473,2.473,0,0,1,47.18,2.462Z" transform="translate(0)" fill="none" stroke="#052a3a" stroke-width="1"/>
          </g>
        </g>
        <g id="Group_4632" data-name="Group 4632" transform="translate(516.358 65.81)" opacity="0.5">
          <path id="Path_6288" data-name="Path 6288" d="M27.938,13.972a13.782,13.782,0,0,1-.526,3.786,13.616,13.616,0,0,1-2.186,4.479,13.169,13.169,0,0,1-1.665,1.881A13.962,13.962,0,0,1,.526,17.758a10.654,10.654,0,0,1-.3-1.313A13.554,13.554,0,0,1,0,13.972,13.947,13.947,0,0,1,11.7.187.121.121,0,0,1,11.745.18,13.169,13.169,0,0,1,13.969,0,13.97,13.97,0,0,1,27.938,13.972Z" transform="translate(30.926 30.703)" fill="none" stroke="#052a3a" stroke-width="1"/>
          <g id="Group_4631" data-name="Group 4631" transform="translate(0 0)">
            <path id="Path_6289" data-name="Path 6289" d="M47.18,2.462V18.4a2.473,2.473,0,0,1-2.466,2.466H20.863V44.731A2.46,2.46,0,0,1,18.4,47.193H2.461A2.462,2.462,0,0,1,0,44.731v-34.3A10.381,10.381,0,0,1,3.053,3.058h.006A10.4,10.4,0,0,1,10.432,0H44.715A2.473,2.473,0,0,1,47.18,2.462Z" transform="translate(0)" fill="none" stroke="#052a3a" stroke-width="1"/>
          </g>
        </g>
        <g id="Group_4634" data-name="Group 4634" transform="translate(366.681 483.57)" opacity="0.3">
          <path id="Path_6290" data-name="Path 6290" d="M27.938,13.972a13.782,13.782,0,0,1-.526,3.786,13.616,13.616,0,0,1-2.186,4.479,13.169,13.169,0,0,1-1.665,1.881A13.962,13.962,0,0,1,.526,17.758a10.654,10.654,0,0,1-.3-1.313A13.554,13.554,0,0,1,0,13.972,13.947,13.947,0,0,1,11.7.187.121.121,0,0,1,11.745.18,13.169,13.169,0,0,1,13.969,0,13.97,13.97,0,0,1,27.938,13.972Z" transform="translate(30.926 30.703)" fill="none" stroke="#052a3a" stroke-width="1"/>
          <g id="Group_4633" data-name="Group 4633" transform="translate(0 0)">
            <path id="Path_6291" data-name="Path 6291" d="M47.18,2.462V18.4a2.473,2.473,0,0,1-2.466,2.466H20.863V44.731A2.46,2.46,0,0,1,18.4,47.193H2.461A2.462,2.462,0,0,1,0,44.731v-34.3A10.381,10.381,0,0,1,3.053,3.058h.006A10.4,10.4,0,0,1,10.432,0H44.715A2.473,2.473,0,0,1,47.18,2.462Z" transform="translate(0)" fill="none" stroke="#052a3a" stroke-width="1"/>
          </g>
        </g>
        <g id="Group_4636" data-name="Group 4636" transform="translate(366.681 65.81)" opacity="0.3">
          <path id="Path_6292" data-name="Path 6292" d="M27.938,13.972a13.782,13.782,0,0,1-.526,3.786,13.616,13.616,0,0,1-2.186,4.479,13.169,13.169,0,0,1-1.665,1.881A13.962,13.962,0,0,1,.526,17.758a10.654,10.654,0,0,1-.3-1.313A13.554,13.554,0,0,1,0,13.972,13.947,13.947,0,0,1,11.7.187.121.121,0,0,1,11.745.18,13.169,13.169,0,0,1,13.969,0,13.97,13.97,0,0,1,27.938,13.972Z" transform="translate(30.926 30.703)" fill="none" stroke="#052a3a" stroke-width="1"/>
          <g id="Group_4635" data-name="Group 4635" transform="translate(0 0)">
            <path id="Path_6293" data-name="Path 6293" d="M47.18,2.462V18.4a2.473,2.473,0,0,1-2.466,2.466H20.863V44.731A2.46,2.46,0,0,1,18.4,47.193H2.461A2.462,2.462,0,0,1,0,44.731v-34.3A10.381,10.381,0,0,1,3.053,3.058h.006A10.4,10.4,0,0,1,10.432,0H44.715A2.473,2.473,0,0,1,47.18,2.462Z" transform="translate(0)" fill="none" stroke="#052a3a" stroke-width="1"/>
          </g>
        </g>
        <g id="Group_4638" data-name="Group 4638" transform="translate(217.003 483.57)" opacity="0.1">
          <path id="Path_6294" data-name="Path 6294" d="M27.938,13.972a13.782,13.782,0,0,1-.526,3.786,13.616,13.616,0,0,1-2.186,4.479,13.169,13.169,0,0,1-1.665,1.881A13.962,13.962,0,0,1,.526,17.758a10.654,10.654,0,0,1-.3-1.313A13.554,13.554,0,0,1,0,13.972,13.947,13.947,0,0,1,11.7.187.121.121,0,0,1,11.745.18,13.169,13.169,0,0,1,13.969,0,13.97,13.97,0,0,1,27.938,13.972Z" transform="translate(30.926 30.703)" fill="none" stroke="#052a3a" stroke-width="1"/>
          <g id="Group_4637" data-name="Group 4637" transform="translate(0 0)">
            <path id="Path_6295" data-name="Path 6295" d="M47.18,2.462V18.4a2.473,2.473,0,0,1-2.466,2.466H20.863V44.731A2.46,2.46,0,0,1,18.4,47.193H2.461A2.462,2.462,0,0,1,0,44.731v-34.3A10.381,10.381,0,0,1,3.053,3.058h.006A10.4,10.4,0,0,1,10.432,0H44.715A2.473,2.473,0,0,1,47.18,2.462Z" fill="none" stroke="#052a3a" stroke-width="1"/>
          </g>
        </g>
        <g id="Group_4640" data-name="Group 4640" transform="translate(217.003 65.81)" opacity="0.1">
          <path id="Path_6296" data-name="Path 6296" d="M27.938,13.972a13.782,13.782,0,0,1-.526,3.786,13.616,13.616,0,0,1-2.186,4.479,13.169,13.169,0,0,1-1.665,1.881A13.962,13.962,0,0,1,.526,17.758a10.654,10.654,0,0,1-.3-1.313A13.554,13.554,0,0,1,0,13.972,13.947,13.947,0,0,1,11.7.187.121.121,0,0,1,11.745.18,13.169,13.169,0,0,1,13.969,0,13.97,13.97,0,0,1,27.938,13.972Z" transform="translate(30.926 30.703)" fill="none" stroke="#052a3a" stroke-width="1"/>
          <g id="Group_4639" data-name="Group 4639" transform="translate(0 0)">
            <path id="Path_6297" data-name="Path 6297" d="M47.18,2.462V18.4a2.473,2.473,0,0,1-2.466,2.466H20.863V44.731A2.46,2.46,0,0,1,18.4,47.193H2.461A2.462,2.462,0,0,1,0,44.731v-34.3A10.381,10.381,0,0,1,3.053,3.058h.006A10.4,10.4,0,0,1,10.432,0H44.715A2.473,2.473,0,0,1,47.18,2.462Z" fill="none" stroke="#052a3a" stroke-width="1"/>
          </g>
        </g>
        <g id="Group_4642" data-name="Group 4642" transform="translate(516.358 692.45)" opacity="0.5">
          <path id="Path_6298" data-name="Path 6298" d="M27.938,13.972a13.782,13.782,0,0,1-.526,3.786,13.616,13.616,0,0,1-2.186,4.479,13.169,13.169,0,0,1-1.665,1.881A13.962,13.962,0,0,1,.526,17.758a10.654,10.654,0,0,1-.3-1.313A13.554,13.554,0,0,1,0,13.972,13.947,13.947,0,0,1,11.7.187.121.121,0,0,1,11.745.18,13.169,13.169,0,0,1,13.969,0,13.97,13.97,0,0,1,27.938,13.972Z" transform="translate(30.926 30.703)" fill="none" stroke="#052a3a" stroke-width="1"/>
          <g id="Group_4641" data-name="Group 4641" transform="translate(0 0)">
            <path id="Path_6299" data-name="Path 6299" d="M47.18,2.462V18.4a2.473,2.473,0,0,1-2.466,2.466H20.863V44.731A2.46,2.46,0,0,1,18.4,47.193H2.461A2.462,2.462,0,0,1,0,44.731v-34.3A10.381,10.381,0,0,1,3.053,3.058h.006A10.4,10.4,0,0,1,10.432,0H44.715A2.473,2.473,0,0,1,47.18,2.462Z" transform="translate(0)" fill="none" stroke="#052a3a" stroke-width="1"/>
          </g>
        </g>
        <g id="Group_4644" data-name="Group 4644" transform="translate(516.358 274.69)" opacity="0.5">
          <path id="Path_6300" data-name="Path 6300" d="M27.938,13.972a13.782,13.782,0,0,1-.526,3.786,13.616,13.616,0,0,1-2.186,4.479,13.169,13.169,0,0,1-1.665,1.881A13.962,13.962,0,0,1,.526,17.758a10.654,10.654,0,0,1-.3-1.313A13.554,13.554,0,0,1,0,13.972,13.947,13.947,0,0,1,11.7.187.121.121,0,0,1,11.745.18,13.169,13.169,0,0,1,13.969,0,13.97,13.97,0,0,1,27.938,13.972Z" transform="translate(30.926 30.703)" fill="none" stroke="#052a3a" stroke-width="1"/>
          <g id="Group_4643" data-name="Group 4643" transform="translate(0 0)">
            <path id="Path_6301" data-name="Path 6301" d="M47.18,2.462V18.4a2.473,2.473,0,0,1-2.466,2.466H20.863V44.731A2.46,2.46,0,0,1,18.4,47.193H2.461A2.462,2.462,0,0,1,0,44.731v-34.3A10.381,10.381,0,0,1,3.053,3.058h.006A10.4,10.4,0,0,1,10.432,0H44.715A2.473,2.473,0,0,1,47.18,2.462Z" transform="translate(0)" fill="none" stroke="#052a3a" stroke-width="1"/>
          </g>
        </g>
        <g id="Group_4646" data-name="Group 4646" transform="translate(366.681 692.45)" opacity="0.3">
          <path id="Path_6302" data-name="Path 6302" d="M27.938,13.972a13.782,13.782,0,0,1-.526,3.786,13.616,13.616,0,0,1-2.186,4.479,13.169,13.169,0,0,1-1.665,1.881A13.962,13.962,0,0,1,.526,17.758a10.654,10.654,0,0,1-.3-1.313A13.554,13.554,0,0,1,0,13.972,13.947,13.947,0,0,1,11.7.187.121.121,0,0,1,11.745.18,13.169,13.169,0,0,1,13.969,0,13.97,13.97,0,0,1,27.938,13.972Z" transform="translate(30.926 30.703)" fill="none" stroke="#052a3a" stroke-width="1"/>
          <g id="Group_4645" data-name="Group 4645" transform="translate(0 0)">
            <path id="Path_6303" data-name="Path 6303" d="M47.18,2.462V18.4a2.473,2.473,0,0,1-2.466,2.466H20.863V44.731A2.46,2.46,0,0,1,18.4,47.193H2.461A2.462,2.462,0,0,1,0,44.731v-34.3A10.381,10.381,0,0,1,3.053,3.058h.006A10.4,10.4,0,0,1,10.432,0H44.715A2.473,2.473,0,0,1,47.18,2.462Z" transform="translate(0)" fill="none" stroke="#052a3a" stroke-width="1"/>
          </g>
        </g>
        <g id="Group_4648" data-name="Group 4648" transform="translate(366.681 274.69)" opacity="0.3">
          <path id="Path_6304" data-name="Path 6304" d="M27.938,13.972a13.782,13.782,0,0,1-.526,3.786,13.616,13.616,0,0,1-2.186,4.479,13.169,13.169,0,0,1-1.665,1.881A13.962,13.962,0,0,1,.526,17.758a10.654,10.654,0,0,1-.3-1.313A13.554,13.554,0,0,1,0,13.972,13.947,13.947,0,0,1,11.7.187.121.121,0,0,1,11.745.18,13.169,13.169,0,0,1,13.969,0,13.97,13.97,0,0,1,27.938,13.972Z" transform="translate(30.926 30.703)" fill="none" stroke="#052a3a" stroke-width="1"/>
          <g id="Group_4647" data-name="Group 4647" transform="translate(0 0)">
            <path id="Path_6305" data-name="Path 6305" d="M47.18,2.462V18.4a2.473,2.473,0,0,1-2.466,2.466H20.863V44.731A2.46,2.46,0,0,1,18.4,47.193H2.461A2.462,2.462,0,0,1,0,44.731v-34.3A10.381,10.381,0,0,1,3.053,3.058h.006A10.4,10.4,0,0,1,10.432,0H44.715A2.473,2.473,0,0,1,47.18,2.462Z" transform="translate(0)" fill="none" stroke="#052a3a" stroke-width="1"/>
          </g>
        </g>
        <g id="Group_4650" data-name="Group 4650" transform="translate(217.003 692.45)" opacity="0.1">
          <path id="Path_6306" data-name="Path 6306" d="M27.938,13.972a13.782,13.782,0,0,1-.526,3.786,13.616,13.616,0,0,1-2.186,4.479,13.169,13.169,0,0,1-1.665,1.881A13.962,13.962,0,0,1,.526,17.758a10.654,10.654,0,0,1-.3-1.313A13.554,13.554,0,0,1,0,13.972,13.947,13.947,0,0,1,11.7.187.121.121,0,0,1,11.745.18,13.169,13.169,0,0,1,13.969,0,13.97,13.97,0,0,1,27.938,13.972Z" transform="translate(30.926 30.703)" fill="none" stroke="#052a3a" stroke-width="1"/>
          <g id="Group_4649" data-name="Group 4649" transform="translate(0 0)">
            <path id="Path_6307" data-name="Path 6307" d="M47.18,2.462V18.4a2.473,2.473,0,0,1-2.466,2.466H20.863V44.731A2.46,2.46,0,0,1,18.4,47.193H2.461A2.462,2.462,0,0,1,0,44.731v-34.3A10.381,10.381,0,0,1,3.053,3.058h.006A10.4,10.4,0,0,1,10.432,0H44.715A2.473,2.473,0,0,1,47.18,2.462Z" fill="none" stroke="#052a3a" stroke-width="1"/>
          </g>
        </g>
        <g id="Group_4652" data-name="Group 4652" transform="translate(217.003 274.69)" opacity="0.1">
          <path id="Path_6308" data-name="Path 6308" d="M27.938,13.972a13.782,13.782,0,0,1-.526,3.786,13.616,13.616,0,0,1-2.186,4.479,13.169,13.169,0,0,1-1.665,1.881A13.962,13.962,0,0,1,.526,17.758a10.654,10.654,0,0,1-.3-1.313A13.554,13.554,0,0,1,0,13.972,13.947,13.947,0,0,1,11.7.187.121.121,0,0,1,11.745.18,13.169,13.169,0,0,1,13.969,0,13.97,13.97,0,0,1,27.938,13.972Z" transform="translate(30.926 30.703)" fill="none" stroke="#052a3a" stroke-width="1"/>
          <g id="Group_4651" data-name="Group 4651" transform="translate(0 0)">
            <path id="Path_6309" data-name="Path 6309" d="M47.18,2.462V18.4a2.473,2.473,0,0,1-2.466,2.466H20.863V44.731A2.46,2.46,0,0,1,18.4,47.193H2.461A2.462,2.462,0,0,1,0,44.731v-34.3A10.381,10.381,0,0,1,3.053,3.058h.006A10.4,10.4,0,0,1,10.432,0H44.715A2.473,2.473,0,0,1,47.18,2.462Z" fill="none" stroke="#052a3a" stroke-width="1"/>
          </g>
        </g>
        <g id="Group_4654" data-name="Group 4654" transform="translate(591.193 435.584)" opacity="0.6">
          <path id="Path_6310" data-name="Path 6310" d="M27.938,13.972a13.782,13.782,0,0,1-.526,3.786,13.616,13.616,0,0,1-2.186,4.479,13.169,13.169,0,0,1-1.665,1.881A13.962,13.962,0,0,1,.526,17.758a10.654,10.654,0,0,1-.3-1.313A13.554,13.554,0,0,1,0,13.972,13.947,13.947,0,0,1,11.7.187.121.121,0,0,1,11.745.18,13.169,13.169,0,0,1,13.969,0,13.97,13.97,0,0,1,27.938,13.972Z" transform="translate(30.926 30.703)" fill="none" stroke="#052a3a" stroke-width="1"/>
          <g id="Group_4653" data-name="Group 4653" transform="translate(0 0)">
            <path id="Path_6311" data-name="Path 6311" d="M47.18,2.462V18.4a2.473,2.473,0,0,1-2.466,2.466H20.863V44.731A2.46,2.46,0,0,1,18.4,47.193H2.461A2.462,2.462,0,0,1,0,44.731v-34.3A10.381,10.381,0,0,1,3.053,3.058h.006A10.4,10.4,0,0,1,10.432,0H44.715A2.473,2.473,0,0,1,47.18,2.462Z" transform="translate(0)" fill="none" stroke="#052a3a" stroke-width="1"/>
          </g>
        </g>
        <g id="Group_4656" data-name="Group 4656" transform="translate(591.193 10.767)" opacity="0.6">
          <path id="Path_6312" data-name="Path 6312" d="M27.938,13.972a13.782,13.782,0,0,1-.526,3.786,13.616,13.616,0,0,1-2.186,4.479,13.169,13.169,0,0,1-1.665,1.881A13.962,13.962,0,0,1,.526,17.758a10.654,10.654,0,0,1-.3-1.313A13.554,13.554,0,0,1,0,13.972,13.947,13.947,0,0,1,11.7.187.121.121,0,0,1,11.745.18,13.169,13.169,0,0,1,13.969,0,13.97,13.97,0,0,1,27.938,13.972Z" transform="translate(30.926 30.703)" fill="none" stroke="#052a3a" stroke-width="1"/>
          <g id="Group_4655" data-name="Group 4655" transform="translate(0 0)">
            <path id="Path_6313" data-name="Path 6313" d="M47.18,2.462V18.4a2.473,2.473,0,0,1-2.466,2.466H20.863V44.731A2.46,2.46,0,0,1,18.4,47.193H2.461A2.462,2.462,0,0,1,0,44.731v-34.3A10.381,10.381,0,0,1,3.053,3.058h.006A10.4,10.4,0,0,1,10.432,0H44.715A2.473,2.473,0,0,1,47.18,2.462Z" transform="translate(0)" fill="none" stroke="#052a3a" stroke-width="1"/>
          </g>
        </g>
        <g id="Group_4658" data-name="Group 4658" transform="translate(591.193 -96.495)" opacity="0.6">
          <path id="Path_6314" data-name="Path 6314" d="M27.938,13.972a13.782,13.782,0,0,1-.526,3.786,13.616,13.616,0,0,1-2.186,4.479,13.169,13.169,0,0,1-1.665,1.881A13.962,13.962,0,0,1,.526,17.758a10.654,10.654,0,0,1-.3-1.313A13.554,13.554,0,0,1,0,13.972,13.947,13.947,0,0,1,11.7.187.121.121,0,0,1,11.745.18,13.169,13.169,0,0,1,13.969,0,13.97,13.97,0,0,1,27.938,13.972Z" transform="translate(30.926 30.703)" fill="none" stroke="#052a3a" stroke-width="1"/>
          <g id="Group_4657" data-name="Group 4657" transform="translate(0 0)">
            <path id="Path_6315" data-name="Path 6315" d="M47.18,2.462V18.4a2.473,2.473,0,0,1-2.466,2.466H20.863V44.731A2.46,2.46,0,0,1,18.4,47.193H2.461A2.462,2.462,0,0,1,0,44.731v-34.3A10.381,10.381,0,0,1,3.053,3.058h.006A10.4,10.4,0,0,1,10.432,0H44.715A2.473,2.473,0,0,1,47.18,2.462Z" transform="translate(0)" fill="none" stroke="#052a3a" stroke-width="1"/>
          </g>
        </g>
        <g id="Group_4660" data-name="Group 4660" transform="translate(441.515 435.584)" opacity="0.4">
          <path id="Path_6316" data-name="Path 6316" d="M27.938,13.972a13.782,13.782,0,0,1-.526,3.786,13.616,13.616,0,0,1-2.186,4.479,13.169,13.169,0,0,1-1.665,1.881A13.962,13.962,0,0,1,.526,17.758a10.654,10.654,0,0,1-.3-1.313A13.554,13.554,0,0,1,0,13.972,13.947,13.947,0,0,1,11.7.187.121.121,0,0,1,11.745.18,13.169,13.169,0,0,1,13.969,0,13.97,13.97,0,0,1,27.938,13.972Z" transform="translate(30.926 30.703)" fill="none" stroke="#052a3a" stroke-width="1"/>
          <g id="Group_4659" data-name="Group 4659" transform="translate(0 0)">
            <path id="Path_6317" data-name="Path 6317" d="M47.18,2.462V18.4a2.473,2.473,0,0,1-2.466,2.466H20.863V44.731A2.46,2.46,0,0,1,18.4,47.193H2.461A2.462,2.462,0,0,1,0,44.731v-34.3A10.381,10.381,0,0,1,3.053,3.058h.006A10.4,10.4,0,0,1,10.432,0H44.715A2.473,2.473,0,0,1,47.18,2.462Z" transform="translate(0)" fill="none" stroke="#052a3a" stroke-width="1"/>
          </g>
        </g>
        <g id="Group_4662" data-name="Group 4662" transform="translate(441.515 9.356)" opacity="0.4">
          <path id="Path_6318" data-name="Path 6318" d="M27.938,13.972a13.782,13.782,0,0,1-.526,3.786,13.616,13.616,0,0,1-2.186,4.479,13.169,13.169,0,0,1-1.665,1.881A13.962,13.962,0,0,1,.526,17.758a10.654,10.654,0,0,1-.3-1.313A13.554,13.554,0,0,1,0,13.972,13.947,13.947,0,0,1,11.7.187.121.121,0,0,1,11.745.18,13.169,13.169,0,0,1,13.969,0,13.97,13.97,0,0,1,27.938,13.972Z" transform="translate(30.926 30.703)" fill="none" stroke="#052a3a" stroke-width="1"/>
          <g id="Group_4661" data-name="Group 4661" transform="translate(0 0)">
            <path id="Path_6319" data-name="Path 6319" d="M47.18,2.462V18.4a2.473,2.473,0,0,1-2.466,2.466H20.863V44.731A2.46,2.46,0,0,1,18.4,47.193H2.461A2.462,2.462,0,0,1,0,44.731v-34.3A10.381,10.381,0,0,1,3.053,3.058h.006A10.4,10.4,0,0,1,10.432,0H44.715A2.473,2.473,0,0,1,47.18,2.462Z" transform="translate(0)" fill="none" stroke="#052a3a" stroke-width="1"/>
          </g>
        </g>
        <g id="Group_4664" data-name="Group 4664" transform="translate(441.515 -96.495)" opacity="0.4">
          <path id="Path_6320" data-name="Path 6320" d="M27.938,13.972a13.782,13.782,0,0,1-.526,3.786,13.616,13.616,0,0,1-2.186,4.479,13.169,13.169,0,0,1-1.665,1.881A13.962,13.962,0,0,1,.526,17.758a10.654,10.654,0,0,1-.3-1.313A13.554,13.554,0,0,1,0,13.972,13.947,13.947,0,0,1,11.7.187.121.121,0,0,1,11.745.18,13.169,13.169,0,0,1,13.969,0,13.97,13.97,0,0,1,27.938,13.972Z" transform="translate(30.926 30.703)" fill="none" stroke="#052a3a" stroke-width="1"/>
          <g id="Group_4663" data-name="Group 4663" transform="translate(0 0)">
            <path id="Path_6321" data-name="Path 6321" d="M47.18,2.462V18.4a2.473,2.473,0,0,1-2.466,2.466H20.863V44.731A2.46,2.46,0,0,1,18.4,47.193H2.461A2.462,2.462,0,0,1,0,44.731v-34.3A10.381,10.381,0,0,1,3.053,3.058h.006A10.4,10.4,0,0,1,10.432,0H44.715A2.473,2.473,0,0,1,47.18,2.462Z" transform="translate(0)" fill="none" stroke="#052a3a" stroke-width="1"/>
          </g>
        </g>
        <g id="Group_4666" data-name="Group 4666" transform="translate(291.838 435.584)" opacity="0.2">
          <path id="Path_6322" data-name="Path 6322" d="M27.938,13.972a13.782,13.782,0,0,1-.526,3.786,13.616,13.616,0,0,1-2.186,4.479,13.169,13.169,0,0,1-1.665,1.881A13.962,13.962,0,0,1,.526,17.758a10.654,10.654,0,0,1-.3-1.313A13.554,13.554,0,0,1,0,13.972,13.947,13.947,0,0,1,11.7.187.121.121,0,0,1,11.745.18,13.169,13.169,0,0,1,13.969,0,13.97,13.97,0,0,1,27.938,13.972Z" transform="translate(30.926 30.703)" fill="none" stroke="#052a3a" stroke-width="1"/>
          <g id="Group_4665" data-name="Group 4665" transform="translate(0 0)">
            <path id="Path_6323" data-name="Path 6323" d="M47.18,2.462V18.4a2.473,2.473,0,0,1-2.466,2.466H20.863V44.731A2.46,2.46,0,0,1,18.4,47.193H2.461A2.462,2.462,0,0,1,0,44.731v-34.3A10.381,10.381,0,0,1,3.053,3.058h.006A10.4,10.4,0,0,1,10.432,0H44.715A2.473,2.473,0,0,1,47.18,2.462Z" transform="translate(0)" fill="none" stroke="#052a3a" stroke-width="1"/>
          </g>
        </g>
        <g id="Group_4668" data-name="Group 4668" transform="translate(291.838 9.356)" opacity="0.2">
          <path id="Path_6324" data-name="Path 6324" d="M27.938,13.972a13.782,13.782,0,0,1-.526,3.786,13.616,13.616,0,0,1-2.186,4.479,13.169,13.169,0,0,1-1.665,1.881A13.962,13.962,0,0,1,.526,17.758a10.654,10.654,0,0,1-.3-1.313A13.554,13.554,0,0,1,0,13.972,13.947,13.947,0,0,1,11.7.187.121.121,0,0,1,11.745.18,13.169,13.169,0,0,1,13.969,0,13.97,13.97,0,0,1,27.938,13.972Z" transform="translate(30.926 30.703)" fill="none" stroke="#052a3a" stroke-width="1"/>
          <g id="Group_4667" data-name="Group 4667" transform="translate(0 0)">
            <path id="Path_6325" data-name="Path 6325" d="M47.18,2.462V18.4a2.473,2.473,0,0,1-2.466,2.466H20.863V44.731A2.46,2.46,0,0,1,18.4,47.193H2.461A2.462,2.462,0,0,1,0,44.731v-34.3A10.381,10.381,0,0,1,3.053,3.058h.006A10.4,10.4,0,0,1,10.432,0H44.715A2.473,2.473,0,0,1,47.18,2.462Z" transform="translate(0)" fill="none" stroke="#052a3a" stroke-width="1"/>
          </g>
        </g>
        <g id="Group_4670" data-name="Group 4670" transform="translate(291.838 -96.495)" opacity="0.2">
          <path id="Path_6326" data-name="Path 6326" d="M27.938,13.972a13.782,13.782,0,0,1-.526,3.786,13.616,13.616,0,0,1-2.186,4.479,13.169,13.169,0,0,1-1.665,1.881A13.962,13.962,0,0,1,.526,17.758a10.654,10.654,0,0,1-.3-1.313A13.554,13.554,0,0,1,0,13.972,13.947,13.947,0,0,1,11.7.187.121.121,0,0,1,11.745.18,13.169,13.169,0,0,1,13.969,0,13.97,13.97,0,0,1,27.938,13.972Z" transform="translate(30.926 30.703)" fill="none" stroke="#052a3a" stroke-width="1"/>
          <g id="Group_4669" data-name="Group 4669" transform="translate(0 0)">
            <path id="Path_6327" data-name="Path 6327" d="M47.18,2.462V18.4a2.473,2.473,0,0,1-2.466,2.466H20.863V44.731A2.46,2.46,0,0,1,18.4,47.193H2.461A2.462,2.462,0,0,1,0,44.731v-34.3A10.381,10.381,0,0,1,3.053,3.058h.006A10.4,10.4,0,0,1,10.432,0H44.715A2.473,2.473,0,0,1,47.18,2.462Z" transform="translate(0)" fill="none" stroke="#052a3a" stroke-width="1"/>
          </g>
        </g>
        <g id="Group_4672" data-name="Group 4672" transform="translate(591.193 648.698)" opacity="0.6">
          <path id="Path_6328" data-name="Path 6328" d="M27.938,13.972a13.782,13.782,0,0,1-.526,3.786,13.616,13.616,0,0,1-2.186,4.479,13.169,13.169,0,0,1-1.665,1.881A13.962,13.962,0,0,1,.526,17.758a10.654,10.654,0,0,1-.3-1.313A13.554,13.554,0,0,1,0,13.972,13.947,13.947,0,0,1,11.7.187.121.121,0,0,1,11.745.18,13.169,13.169,0,0,1,13.969,0,13.97,13.97,0,0,1,27.938,13.972Z" transform="translate(30.926 30.703)" fill="none" stroke="#052a3a" stroke-width="1"/>
          <g id="Group_4671" data-name="Group 4671" transform="translate(0 0)">
            <path id="Path_6329" data-name="Path 6329" d="M47.18,2.462V18.4a2.473,2.473,0,0,1-2.466,2.466H20.863V44.731A2.46,2.46,0,0,1,18.4,47.193H2.461A2.462,2.462,0,0,1,0,44.731v-34.3A10.381,10.381,0,0,1,3.053,3.058h.006A10.4,10.4,0,0,1,10.432,0H44.715A2.473,2.473,0,0,1,47.18,2.462Z" transform="translate(0)" fill="none" stroke="#052a3a" stroke-width="1"/>
          </g>
        </g>
        <g id="Group_4674" data-name="Group 4674" transform="translate(591.193 222.47)" opacity="0.6">
          <path id="Path_6330" data-name="Path 6330" d="M27.938,13.972a13.782,13.782,0,0,1-.526,3.786,13.616,13.616,0,0,1-2.186,4.479,13.169,13.169,0,0,1-1.665,1.881A13.962,13.962,0,0,1,.526,17.758a10.654,10.654,0,0,1-.3-1.313A13.554,13.554,0,0,1,0,13.972,13.947,13.947,0,0,1,11.7.187.121.121,0,0,1,11.745.18,13.169,13.169,0,0,1,13.969,0,13.97,13.97,0,0,1,27.938,13.972Z" transform="translate(30.926 30.703)" fill="none" stroke="#052a3a" stroke-width="1"/>
          <g id="Group_4673" data-name="Group 4673" transform="translate(0 0)">
            <path id="Path_6331" data-name="Path 6331" d="M47.18,2.462V18.4a2.473,2.473,0,0,1-2.466,2.466H20.863V44.731A2.46,2.46,0,0,1,18.4,47.193H2.461A2.462,2.462,0,0,1,0,44.731v-34.3A10.381,10.381,0,0,1,3.053,3.058h.006A10.4,10.4,0,0,1,10.432,0H44.715A2.473,2.473,0,0,1,47.18,2.462Z" transform="translate(0)" fill="none" stroke="#052a3a" stroke-width="1"/>
          </g>
        </g>
        <g id="Group_4676" data-name="Group 4676" transform="translate(441.515 648.698)" opacity="0.4">
          <path id="Path_6332" data-name="Path 6332" d="M27.938,13.972a13.782,13.782,0,0,1-.526,3.786,13.616,13.616,0,0,1-2.186,4.479,13.169,13.169,0,0,1-1.665,1.881A13.962,13.962,0,0,1,.526,17.758a10.654,10.654,0,0,1-.3-1.313A13.554,13.554,0,0,1,0,13.972,13.947,13.947,0,0,1,11.7.187.121.121,0,0,1,11.745.18,13.169,13.169,0,0,1,13.969,0,13.97,13.97,0,0,1,27.938,13.972Z" transform="translate(30.926 30.703)" fill="none" stroke="#052a3a" stroke-width="1"/>
          <g id="Group_4675" data-name="Group 4675" transform="translate(0 0)">
            <path id="Path_6333" data-name="Path 6333" d="M47.18,2.462V18.4a2.473,2.473,0,0,1-2.466,2.466H20.863V44.731A2.46,2.46,0,0,1,18.4,47.193H2.461A2.462,2.462,0,0,1,0,44.731v-34.3A10.381,10.381,0,0,1,3.053,3.058h.006A10.4,10.4,0,0,1,10.432,0H44.715A2.473,2.473,0,0,1,47.18,2.462Z" transform="translate(0)" fill="none" stroke="#052a3a" stroke-width="1"/>
          </g>
        </g>
        <g id="Group_4678" data-name="Group 4678" transform="translate(441.515 222.47)" opacity="0.4">
          <path id="Path_6334" data-name="Path 6334" d="M27.938,13.972a13.782,13.782,0,0,1-.526,3.786,13.616,13.616,0,0,1-2.186,4.479,13.169,13.169,0,0,1-1.665,1.881A13.962,13.962,0,0,1,.526,17.758a10.654,10.654,0,0,1-.3-1.313A13.554,13.554,0,0,1,0,13.972,13.947,13.947,0,0,1,11.7.187.121.121,0,0,1,11.745.18,13.169,13.169,0,0,1,13.969,0,13.97,13.97,0,0,1,27.938,13.972Z" transform="translate(30.926 30.703)" fill="none" stroke="#052a3a" stroke-width="1"/>
          <g id="Group_4677" data-name="Group 4677" transform="translate(0 0)">
            <path id="Path_6335" data-name="Path 6335" d="M47.18,2.462V18.4a2.473,2.473,0,0,1-2.466,2.466H20.863V44.731A2.46,2.46,0,0,1,18.4,47.193H2.461A2.462,2.462,0,0,1,0,44.731v-34.3A10.381,10.381,0,0,1,3.053,3.058h.006A10.4,10.4,0,0,1,10.432,0H44.715A2.473,2.473,0,0,1,47.18,2.462Z" transform="translate(0)" fill="none" stroke="#052a3a" stroke-width="1"/>
          </g>
        </g>
        <g id="Group_4680" data-name="Group 4680" transform="translate(291.838 648.698)" opacity="0.2">
          <path id="Path_6336" data-name="Path 6336" d="M27.938,13.972a13.782,13.782,0,0,1-.526,3.786,13.616,13.616,0,0,1-2.186,4.479,13.169,13.169,0,0,1-1.665,1.881A13.962,13.962,0,0,1,.526,17.758a10.654,10.654,0,0,1-.3-1.313A13.554,13.554,0,0,1,0,13.972,13.947,13.947,0,0,1,11.7.187.121.121,0,0,1,11.745.18,13.169,13.169,0,0,1,13.969,0,13.97,13.97,0,0,1,27.938,13.972Z" transform="translate(30.926 30.703)" fill="none" stroke="#052a3a" stroke-width="1"/>
          <g id="Group_4679" data-name="Group 4679" transform="translate(0 0)">
            <path id="Path_6337" data-name="Path 6337" d="M47.18,2.462V18.4a2.473,2.473,0,0,1-2.466,2.466H20.863V44.731A2.46,2.46,0,0,1,18.4,47.193H2.461A2.462,2.462,0,0,1,0,44.731v-34.3A10.381,10.381,0,0,1,3.053,3.058h.006A10.4,10.4,0,0,1,10.432,0H44.715A2.473,2.473,0,0,1,47.18,2.462Z" transform="translate(0)" fill="none" stroke="#052a3a" stroke-width="1"/>
          </g>
        </g>
        <g id="Group_4682" data-name="Group 4682" transform="translate(291.838 222.47)" opacity="0.2">
          <path id="Path_6338" data-name="Path 6338" d="M27.938,13.972a13.782,13.782,0,0,1-.526,3.786,13.616,13.616,0,0,1-2.186,4.479,13.169,13.169,0,0,1-1.665,1.881A13.962,13.962,0,0,1,.526,17.758a10.654,10.654,0,0,1-.3-1.313A13.554,13.554,0,0,1,0,13.972,13.947,13.947,0,0,1,11.7.187.121.121,0,0,1,11.745.18,13.169,13.169,0,0,1,13.969,0,13.97,13.97,0,0,1,27.938,13.972Z" transform="translate(30.926 30.703)" fill="none" stroke="#052a3a" stroke-width="1"/>
          <g id="Group_4681" data-name="Group 4681" transform="translate(0 0)">
            <path id="Path_6339" data-name="Path 6339" d="M47.18,2.462V18.4a2.473,2.473,0,0,1-2.466,2.466H20.863V44.731A2.46,2.46,0,0,1,18.4,47.193H2.461A2.462,2.462,0,0,1,0,44.731v-34.3A10.381,10.381,0,0,1,3.053,3.058h.006A10.4,10.4,0,0,1,10.432,0H44.715A2.473,2.473,0,0,1,47.18,2.462Z" transform="translate(0)" fill="none" stroke="#052a3a" stroke-width="1"/>
          </g>
        </g>
        <g id="Group_4684" data-name="Group 4684" transform="translate(591.193 541.435)" opacity="0.6">
          <path id="Path_6340" data-name="Path 6340" d="M27.938,13.972a13.782,13.782,0,0,1-.526,3.786,13.616,13.616,0,0,1-2.186,4.479,13.169,13.169,0,0,1-1.665,1.881A13.962,13.962,0,0,1,.526,17.758a10.654,10.654,0,0,1-.3-1.313A13.554,13.554,0,0,1,0,13.972,13.947,13.947,0,0,1,11.7.187.121.121,0,0,1,11.745.18,13.169,13.169,0,0,1,13.969,0,13.97,13.97,0,0,1,27.938,13.972Z" transform="translate(30.926 30.703)" fill="none" stroke="#052a3a" stroke-width="1"/>
          <g id="Group_4683" data-name="Group 4683" transform="translate(0 0)">
            <path id="Path_6341" data-name="Path 6341" d="M47.18,2.462V18.4a2.473,2.473,0,0,1-2.466,2.466H20.863V44.731A2.46,2.46,0,0,1,18.4,47.193H2.461A2.462,2.462,0,0,1,0,44.731v-34.3A10.381,10.381,0,0,1,3.053,3.058h.006A10.4,10.4,0,0,1,10.432,0H44.715A2.473,2.473,0,0,1,47.18,2.462Z" transform="translate(0)" fill="none" stroke="#052a3a" stroke-width="1"/>
          </g>
        </g>
        <g id="Group_4686" data-name="Group 4686" transform="translate(591.193 116.619)" opacity="0.6">
          <path id="Path_6342" data-name="Path 6342" d="M27.938,13.972a13.782,13.782,0,0,1-.526,3.786,13.616,13.616,0,0,1-2.186,4.479,13.169,13.169,0,0,1-1.665,1.881A13.962,13.962,0,0,1,.526,17.758a10.654,10.654,0,0,1-.3-1.313A13.554,13.554,0,0,1,0,13.972,13.947,13.947,0,0,1,11.7.187.121.121,0,0,1,11.745.18,13.169,13.169,0,0,1,13.969,0,13.97,13.97,0,0,1,27.938,13.972Z" transform="translate(30.926 30.703)" fill="none" stroke="#052a3a" stroke-width="1"/>
          <g id="Group_4685" data-name="Group 4685" transform="translate(0 0)">
            <path id="Path_6343" data-name="Path 6343" d="M47.18,2.462V18.4a2.473,2.473,0,0,1-2.466,2.466H20.863V44.731A2.46,2.46,0,0,1,18.4,47.193H2.461A2.462,2.462,0,0,1,0,44.731v-34.3A10.381,10.381,0,0,1,3.053,3.058h.006A10.4,10.4,0,0,1,10.432,0H44.715A2.473,2.473,0,0,1,47.18,2.462Z" transform="translate(0)" fill="none" stroke="#052a3a" stroke-width="1"/>
          </g>
        </g>
        <g id="Group_4688" data-name="Group 4688" transform="translate(441.515 541.435)" opacity="0.4">
          <path id="Path_6344" data-name="Path 6344" d="M27.938,13.972a13.782,13.782,0,0,1-.526,3.786,13.616,13.616,0,0,1-2.186,4.479,13.169,13.169,0,0,1-1.665,1.881A13.962,13.962,0,0,1,.526,17.758a10.654,10.654,0,0,1-.3-1.313A13.554,13.554,0,0,1,0,13.972,13.947,13.947,0,0,1,11.7.187.121.121,0,0,1,11.745.18,13.169,13.169,0,0,1,13.969,0,13.97,13.97,0,0,1,27.938,13.972Z" transform="translate(30.926 30.703)" fill="none" stroke="#052a3a" stroke-width="1"/>
          <g id="Group_4687" data-name="Group 4687" transform="translate(0 0)">
            <path id="Path_6345" data-name="Path 6345" d="M47.18,2.462V18.4a2.473,2.473,0,0,1-2.466,2.466H20.863V44.731A2.46,2.46,0,0,1,18.4,47.193H2.461A2.462,2.462,0,0,1,0,44.731v-34.3A10.381,10.381,0,0,1,3.053,3.058h.006A10.4,10.4,0,0,1,10.432,0H44.715A2.473,2.473,0,0,1,47.18,2.462Z" transform="translate(0)" fill="none" stroke="#052a3a" stroke-width="1"/>
          </g>
        </g>
        <g id="Group_4690" data-name="Group 4690" transform="translate(441.515 116.619)" opacity="0.4">
          <path id="Path_6346" data-name="Path 6346" d="M27.938,13.972a13.782,13.782,0,0,1-.526,3.786,13.616,13.616,0,0,1-2.186,4.479,13.169,13.169,0,0,1-1.665,1.881A13.962,13.962,0,0,1,.526,17.758a10.654,10.654,0,0,1-.3-1.313A13.554,13.554,0,0,1,0,13.972,13.947,13.947,0,0,1,11.7.187.121.121,0,0,1,11.745.18,13.169,13.169,0,0,1,13.969,0,13.97,13.97,0,0,1,27.938,13.972Z" transform="translate(30.926 30.703)" fill="none" stroke="#052a3a" stroke-width="1"/>
          <g id="Group_4689" data-name="Group 4689" transform="translate(0 0)">
            <path id="Path_6347" data-name="Path 6347" d="M47.18,2.462V18.4a2.473,2.473,0,0,1-2.466,2.466H20.863V44.731A2.46,2.46,0,0,1,18.4,47.193H2.461A2.462,2.462,0,0,1,0,44.731v-34.3A10.381,10.381,0,0,1,3.053,3.058h.006A10.4,10.4,0,0,1,10.432,0H44.715A2.473,2.473,0,0,1,47.18,2.462Z" transform="translate(0)" fill="none" stroke="#052a3a" stroke-width="1"/>
          </g>
        </g>
        <g id="Group_4692" data-name="Group 4692" transform="translate(291.838 541.435)" opacity="0.2">
          <path id="Path_6348" data-name="Path 6348" d="M27.938,13.972a13.782,13.782,0,0,1-.526,3.786,13.616,13.616,0,0,1-2.186,4.479,13.169,13.169,0,0,1-1.665,1.881A13.962,13.962,0,0,1,.526,17.758a10.654,10.654,0,0,1-.3-1.313A13.554,13.554,0,0,1,0,13.972,13.947,13.947,0,0,1,11.7.187.121.121,0,0,1,11.745.18,13.169,13.169,0,0,1,13.969,0,13.97,13.97,0,0,1,27.938,13.972Z" transform="translate(30.926 30.703)" fill="none" stroke="#052a3a" stroke-width="1"/>
          <g id="Group_4691" data-name="Group 4691" transform="translate(0 0)">
            <path id="Path_6349" data-name="Path 6349" d="M47.18,2.462V18.4a2.473,2.473,0,0,1-2.466,2.466H20.863V44.731A2.46,2.46,0,0,1,18.4,47.193H2.461A2.462,2.462,0,0,1,0,44.731v-34.3A10.381,10.381,0,0,1,3.053,3.058h.006A10.4,10.4,0,0,1,10.432,0H44.715A2.473,2.473,0,0,1,47.18,2.462Z" transform="translate(0)" fill="none" stroke="#052a3a" stroke-width="1"/>
          </g>
        </g>
        <g id="Group_4694" data-name="Group 4694" transform="translate(291.838 116.619)" opacity="0.2">
          <path id="Path_6350" data-name="Path 6350" d="M27.938,13.972a13.782,13.782,0,0,1-.526,3.786,13.616,13.616,0,0,1-2.186,4.479,13.169,13.169,0,0,1-1.665,1.881A13.962,13.962,0,0,1,.526,17.758a10.654,10.654,0,0,1-.3-1.313A13.554,13.554,0,0,1,0,13.972,13.947,13.947,0,0,1,11.7.187.121.121,0,0,1,11.745.18,13.169,13.169,0,0,1,13.969,0,13.97,13.97,0,0,1,27.938,13.972Z" transform="translate(30.926 30.703)" fill="none" stroke="#052a3a" stroke-width="1"/>
          <g id="Group_4693" data-name="Group 4693" transform="translate(0 0)">
            <path id="Path_6351" data-name="Path 6351" d="M47.18,2.462V18.4a2.473,2.473,0,0,1-2.466,2.466H20.863V44.731A2.46,2.46,0,0,1,18.4,47.193H2.461A2.462,2.462,0,0,1,0,44.731v-34.3A10.381,10.381,0,0,1,3.053,3.058h.006A10.4,10.4,0,0,1,10.432,0H44.715A2.473,2.473,0,0,1,47.18,2.462Z" transform="translate(0)" fill="none" stroke="#052a3a" stroke-width="1"/>
          </g>
        </g>
        <g id="Group_4696" data-name="Group 4696" transform="translate(591.193 754.549)" opacity="0.6">
          <path id="Path_6352" data-name="Path 6352" d="M27.938,13.972a13.782,13.782,0,0,1-.526,3.786,13.616,13.616,0,0,1-2.186,4.479,13.169,13.169,0,0,1-1.665,1.881A13.962,13.962,0,0,1,.526,17.758a10.654,10.654,0,0,1-.3-1.313A13.554,13.554,0,0,1,0,13.972,13.947,13.947,0,0,1,11.7.187.121.121,0,0,1,11.745.18,13.169,13.169,0,0,1,13.969,0,13.97,13.97,0,0,1,27.938,13.972Z" transform="translate(30.926 30.703)" fill="none" stroke="#052a3a" stroke-width="1"/>
          <g id="Group_4695" data-name="Group 4695" transform="translate(0 0)">
            <path id="Path_6353" data-name="Path 6353" d="M47.18,2.462V18.4a2.473,2.473,0,0,1-2.466,2.466H20.863V44.731A2.46,2.46,0,0,1,18.4,47.193H2.461A2.462,2.462,0,0,1,0,44.731v-34.3A10.381,10.381,0,0,1,3.053,3.058h.006A10.4,10.4,0,0,1,10.432,0H44.715A2.473,2.473,0,0,1,47.18,2.462Z" transform="translate(0)" fill="none" stroke="#052a3a" stroke-width="1"/>
          </g>
        </g>
        <g id="Group_4698" data-name="Group 4698" transform="translate(591.193 329.733)" opacity="0.6">
          <path id="Path_6354" data-name="Path 6354" d="M27.938,13.972a13.782,13.782,0,0,1-.526,3.786,13.616,13.616,0,0,1-2.186,4.479,13.169,13.169,0,0,1-1.665,1.881A13.962,13.962,0,0,1,.526,17.758a10.654,10.654,0,0,1-.3-1.313A13.554,13.554,0,0,1,0,13.972,13.947,13.947,0,0,1,11.7.187.121.121,0,0,1,11.745.18,13.169,13.169,0,0,1,13.969,0,13.97,13.97,0,0,1,27.938,13.972Z" transform="translate(30.926 30.703)" fill="none" stroke="#052a3a" stroke-width="1"/>
          <g id="Group_4697" data-name="Group 4697" transform="translate(0 0)">
            <path id="Path_6355" data-name="Path 6355" d="M47.18,2.462V18.4a2.473,2.473,0,0,1-2.466,2.466H20.863V44.731A2.46,2.46,0,0,1,18.4,47.193H2.461A2.462,2.462,0,0,1,0,44.731v-34.3A10.381,10.381,0,0,1,3.053,3.058h.006A10.4,10.4,0,0,1,10.432,0H44.715A2.473,2.473,0,0,1,47.18,2.462Z" transform="translate(0)" fill="none" stroke="#052a3a" stroke-width="1"/>
          </g>
        </g>
        <g id="Group_4700" data-name="Group 4700" transform="translate(441.515 754.549)" opacity="0.4">
          <path id="Path_6356" data-name="Path 6356" d="M27.938,13.972a13.782,13.782,0,0,1-.526,3.786,13.616,13.616,0,0,1-2.186,4.479,13.169,13.169,0,0,1-1.665,1.881A13.962,13.962,0,0,1,.526,17.758a10.654,10.654,0,0,1-.3-1.313A13.554,13.554,0,0,1,0,13.972,13.947,13.947,0,0,1,11.7.187.121.121,0,0,1,11.745.18,13.169,13.169,0,0,1,13.969,0,13.97,13.97,0,0,1,27.938,13.972Z" transform="translate(30.926 30.703)" fill="none" stroke="#052a3a" stroke-width="1"/>
          <g id="Group_4699" data-name="Group 4699" transform="translate(0 0)">
            <path id="Path_6357" data-name="Path 6357" d="M47.18,2.462V18.4a2.473,2.473,0,0,1-2.466,2.466H20.863V44.731A2.46,2.46,0,0,1,18.4,47.193H2.461A2.462,2.462,0,0,1,0,44.731v-34.3A10.381,10.381,0,0,1,3.053,3.058h.006A10.4,10.4,0,0,1,10.432,0H44.715A2.473,2.473,0,0,1,47.18,2.462Z" transform="translate(0)" fill="none" stroke="#052a3a" stroke-width="1"/>
          </g>
        </g>
        <g id="Group_4702" data-name="Group 4702" transform="translate(441.515 329.733)" opacity="0.4">
          <path id="Path_6358" data-name="Path 6358" d="M27.938,13.972a13.782,13.782,0,0,1-.526,3.786,13.616,13.616,0,0,1-2.186,4.479,13.169,13.169,0,0,1-1.665,1.881A13.962,13.962,0,0,1,.526,17.758a10.654,10.654,0,0,1-.3-1.313A13.554,13.554,0,0,1,0,13.972,13.947,13.947,0,0,1,11.7.187.121.121,0,0,1,11.745.18,13.169,13.169,0,0,1,13.969,0,13.97,13.97,0,0,1,27.938,13.972Z" transform="translate(30.926 30.703)" fill="none" stroke="#052a3a" stroke-width="1"/>
          <g id="Group_4701" data-name="Group 4701" transform="translate(0 0)">
            <path id="Path_6359" data-name="Path 6359" d="M47.18,2.462V18.4a2.473,2.473,0,0,1-2.466,2.466H20.863V44.731A2.46,2.46,0,0,1,18.4,47.193H2.461A2.462,2.462,0,0,1,0,44.731v-34.3A10.381,10.381,0,0,1,3.053,3.058h.006A10.4,10.4,0,0,1,10.432,0H44.715A2.473,2.473,0,0,1,47.18,2.462Z" transform="translate(0)" fill="none" stroke="#052a3a" stroke-width="1"/>
          </g>
        </g>
        <g id="Group_4704" data-name="Group 4704" transform="translate(291.838 754.549)" opacity="0.2">
          <path id="Path_6360" data-name="Path 6360" d="M27.938,13.972a13.782,13.782,0,0,1-.526,3.786,13.616,13.616,0,0,1-2.186,4.479,13.169,13.169,0,0,1-1.665,1.881A13.962,13.962,0,0,1,.526,17.758a10.654,10.654,0,0,1-.3-1.313A13.554,13.554,0,0,1,0,13.972,13.947,13.947,0,0,1,11.7.187.121.121,0,0,1,11.745.18,13.169,13.169,0,0,1,13.969,0,13.97,13.97,0,0,1,27.938,13.972Z" transform="translate(30.926 30.703)" fill="none" stroke="#052a3a" stroke-width="1"/>
          <g id="Group_4703" data-name="Group 4703" transform="translate(0 0)">
            <path id="Path_6361" data-name="Path 6361" d="M47.18,2.462V18.4a2.473,2.473,0,0,1-2.466,2.466H20.863V44.731A2.46,2.46,0,0,1,18.4,47.193H2.461A2.462,2.462,0,0,1,0,44.731v-34.3A10.381,10.381,0,0,1,3.053,3.058h.006A10.4,10.4,0,0,1,10.432,0H44.715A2.473,2.473,0,0,1,47.18,2.462Z" transform="translate(0)" fill="none" stroke="#052a3a" stroke-width="1"/>
          </g>
        </g>
        <g id="Group_4706" data-name="Group 4706" transform="translate(291.838 329.733)" opacity="0.2">
          <path id="Path_6362" data-name="Path 6362" d="M27.938,13.972a13.782,13.782,0,0,1-.526,3.786,13.616,13.616,0,0,1-2.186,4.479,13.169,13.169,0,0,1-1.665,1.881A13.962,13.962,0,0,1,.526,17.758a10.654,10.654,0,0,1-.3-1.313A13.554,13.554,0,0,1,0,13.972,13.947,13.947,0,0,1,11.7.187.121.121,0,0,1,11.745.18,13.169,13.169,0,0,1,13.969,0,13.97,13.97,0,0,1,27.938,13.972Z" transform="translate(30.926 30.703)" fill="none" stroke="#052a3a" stroke-width="1"/>
          <g id="Group_4705" data-name="Group 4705" transform="translate(0 0)">
            <path id="Path_6363" data-name="Path 6363" d="M47.18,2.462V18.4a2.473,2.473,0,0,1-2.466,2.466H20.863V44.731A2.46,2.46,0,0,1,18.4,47.193H2.461A2.462,2.462,0,0,1,0,44.731v-34.3A10.381,10.381,0,0,1,3.053,3.058h.006A10.4,10.4,0,0,1,10.432,0H44.715A2.473,2.473,0,0,1,47.18,2.462Z" transform="translate(0)" fill="none" stroke="#052a3a" stroke-width="1"/>
          </g>
        </g>
      </g>
    </g>
  </g>
</svg>
