<svg xmlns="http://www.w3.org/2000/svg" xmlns:xlink="http://www.w3.org/1999/xlink" width="817.523" height="487.094" viewBox="0 0 817.523 487.094">
  <defs>
    <linearGradient id="linear-gradient" x1="0.5" y1="1.009" x2="0.5" gradientUnits="objectBoundingBox">
      <stop offset="0" stop-color="#fff"/>
      <stop offset="1" stop-color="#dfe5e9"/>
    </linearGradient>
  </defs>
  <path id="Path_9324" data-name="Path 9324" d="M2065.685,848.185l-46.969-28.824h-.136v1.086l46.473,28.52,14.982,10.629-23.865,8.364-37.59-38.1v1.608l36.61,37.106-33.781,71.942-2.829-13.318v6.489l1.879,8.845-1.879,3.629v2.764l3.076-5.94,68.5,1.275-71.581,31.049v1.008l73.456-31.862,17.542,13.8-91,20.964v.874l91.349-21.045-6.528,69.15-84.821-36.559v1.006l82.405,35.517-82.405-10.5v.833l84.252,10.734-38.841,31.285-45.411-27.572v1.163l44.661,27.117-44.661,55.911v1.9l45.822-57.363,55.384,13.713-101.206,56.3v1.115l101.28-56.345-37.752,97.761-63.528-23.574v.96l62.937,23.355L2043.526,1201l-24.947-32.164v1.943l24.062,31.023-17.706,67.522-6.356-30.713v6.66l5.576,26.946-5.576,8.711v2.287l5.957-9.307,6.987,30.8-3.65,1.74h2.189l2.394-1.141,16.443,1.141h11.818l-26.59-1.846,84.493-34.983-9.864,36.829h1.384l9.926-37.057,106.125,37.057h2.705l-107.6-37.573,124.269-20.351,24.726,57.924h1.411l-24.562-57.54L2308.846,1272l-20.409,34.453h1.45l20.143-34,89.39,34h2.542l-89.747-34.14,70.958,2.114,20.674,32.027h1.465l-20.775-32.185,65.682-14.888-43.349,47.073h1.561l43.106-46.81,22.949,44.01-44.172,2.8h12.928l32.068-2.033,10.156,2.033h4.295l-9.972-2,83.808.832.381,1.164h1.393l-.411-1.255,99.62-13.376-45.075,14.631h2.859l46.68-15.152,20.91,15.152h1.77l-21.752-15.763,20.234-41.156,5.307,56.919h1.37l-5.442-58.356,106.351,56.038-38.634,2.319H2772.8l26.326-1.58,2.286,1.58h1.805l-2.8-1.937,35.686-15.485v-1.008l-35.875,15.567,14.433-97.177,21.442,28.212v-1.976l-21.111-27.776,20.334-17.546.777,2.163V1184.5l-.754,1.171-96.871-43.181,97.625,9.992v-.827l-98.827-10.115,75.236-41.379L2836.1,1129.7v-1.9l-20.765-26,20.765,13.625v-1.212l-21.771-14.286,17.243.395,4.528,4.379v-1.553l-3.373-3.261,3.373-4.849v-2.129l-4.588,6.6-17.551-.4,22.139-20.152v-1.488l-23.582,21.465-42.089-15.3,65.67-22.1v-.936l-66.045,22.228,15.819-45.411,50.226,8.786v-.849l-50.035-8.752,5.039-60.9,45,45.734v-1.611l-44.7-45.435,44.7-25.354V947.9l-44.461,25.217,35.351-103.162,9.111,13.916v-2.242l-8.586-13.115,8.586-14.045v-2.381l-9.516,15.565-10.094-8.421,19.61-21.7v-1.719l-20.715,22.922L2666.412,819.36h-3.374l151.032,39.918-253.281,73.71,53.159-113.628h-1.419l-52.962,113.206-44.162-57.8,85.7-55.406h-1.86l-84.75,54.793-26.815-10.931,103.759-43.862h-2.363l-102.608,43.376-111.82-43.376h-2.507L2484.4,862.9l-138.533,5.618-.6-49.162H2343.9l.6,49.365-77.476,26.927,68.164-76.292h-1.549l-68.491,76.658-109.452-73.474,42.921-3.184h-11.068l-33.2,2.463-21.153-2.463h-7.129l26.157,3.046Zm.939.631,83.048-24.741-68.515,35.05ZM2153.1,823.4l-38.844,88.291-32.371-51.86Zm-42.249,85.175-35.685-37.012,5.948-10.631Zm-54.341-39.785,23.342-8.182-6.081,10.87-49.469,65.9ZM2074.5,872.5l38.927,40.374-90.831,28.777Zm338.409,25.919,71.929,42.428-87.754.429Zm-16.88,41.922-49.284-70.219,65,27.662Zm-247.043,298.181-50.31-5.829-8.385-24.563Zm-58.487-31.364,140.287-34.9-79.544,66.351Zm59.742,32.339-30.516,28.33-20.581-34.25Zm5.49-.291,96.1-9.195-6.313,17.554Zm-2.863-.551,79.514-66.325,19.517,56.85Zm80.785-66.689,198.19,43.254-178.589,13.842Zm422.99-137.187-67.346,5.377,65.262-20.683Zm-.673-15.027,39.57,19.511-37.523-4.471Zm.274,15.881-27.879,36.63-41.462-31.093Zm-363.4-62.051,13.742,63.348-99.089-40.077Zm-85.024,22.286,48.686-48.631,35.8,25.6Zm305.867,177.036-17.173,21.692-22.668-6.139Zm-40.969,15.019-48.638-62.221,90.124,46.026Zm22.6,7.244-57.769,18.849,35.073-24.994Zm2.37-.143,17.478-22.076,18.176,39.988Zm18.415-23.13,38.833-23.137-20.476,63.523Zm-1.638-1.1-90.748-46.345,80.665-6.866Zm-8.587-52.579,37.466,21.9-27.57,30.327Zm-82.674,5.455,38.932-57.562,41.817,50.69Zm39.83-58.321,120.993-23.742-78.971,74.68Zm-.641-.732-33.794-35.557,153.868,12Zm-1.749-.186-149.9-26.494,116.187-8.974Zm-149.171-27.371L2390.254,1014l35.173,14.25Zm79.834-23.612,92.768-69.729-57.088,84.185Zm-2.332.028-80.961,23.689-13.734-63.313Zm-83.111,24.153-65.314,11.119-33.017-50.889Zm-66.7,11.24-34.573,1.261,2.116-51.288Zm-.061.819-38.081,56.722,3.526-55.461Zm2.182-.218,65.609-11.169,18.746,77.752Zm67-11.118,152.173,26.9-133.242,51.624Zm152.343,27.8-38.943,57.578-93.032-6.445Zm-39.14,58.385,12.311,89.318-105.732-95.79Zm1.63,1.871,48.508,62.054-36.38,25.926Zm73.642,69.22,35.988,18.078-95.262,1.261Zm59.791-47.566,113.888,22.043-134.924,43.22Zm-38.374,21.445,26.163-28.778,10.733,6.794Zm27-29.436,55.983-28.533-45.191,35.365Zm-.958-.584-37.77-22.079,96.918-8.067Zm-37.877-22.893,78.907-74.619,19.545,66.424Zm80.412-74.222,40.992,30.74-21.91,34.108Zm42.166,31.19,32.286,7.109-54.044,26.764Zm.529-.752,27.428-36.036,4.923,43.159Zm-198.815-44.44,153.988-26.581v38.585Zm9.386-2.522,136.423-33.4,8.1,8.45Zm137.458-33.962,9.444-18.756-1.889,26.634Zm-148.934,35.89,58.2-85.824L2575.5,991.8Zm-37.444-15.49,5.781-70.2,88.18-.431Zm-1.41.49-94.968-39.738,100.768-30.668Zm-95.433-40.512,2.72-11.752,91.821-17.021Zm-1.322-.251-33.558-23.993,36.242,12.4Zm-35.8-25.7,8.464-47.49,29.625,60.519Zm-4.137.248L2151.684,959.74l-29.253-28.057Zm2.013.572L2205.993,996.1l-53.345-35.65Zm-50.17,49.42-53.531,8.08.714-43.377Zm.555.757-2.146,52-51.5-43.9Zm-2.7,52.946-36.725,3.366-14.125-46.707Zm.475.78-3.541,55.683-33.275-52.308Zm37.149-.978,84.861,66.983-124.027-8.643Zm84.852,67.8-92.11,52.72-31.912-61.362Zm1.4.329,106.42,96.412L2234,1171.174Zm206.176,96.329-80.631,43.323-16.558-42.036Zm3.058-.365,135.04-43.257-54.451,81.756Zm79.987,39.256-51.3,50.363-28.9-88.674Zm56.067-81.827,18.034,75.214-72.135,6.017Zm1.159-.928,95.656,23.316-77.54,52.244Zm.069-.863,9.721-12.826,81.935,35.166Zm-1.286-.283-109.005-21.1,118.726,8.273Zm-114.5-22.3,48.356-37.842,75.06,46.442Zm49.3-38.434,55.472-27.471,19.451,73.828Zm57.644-27.537,73.812,12.382-2.867,46.968Zm-.687-.962,34.471-39.367,39.5,51.776Zm-.478-1.216-4.954-43.425,38.918,4.638Zm-6.706-60.17,131.289-43.173-89.678,63.691Zm-70.376,21.293v-38.375l67.271,17.056Zm.33-39.256,2.124-29.947,64.419,46.818Zm-9.917-9.741-86.294-48.465,96.9,27.393Zm-87.673-49.757,70.594-7.222,27.1,34.839Zm-94.2.145-97.714,18.113-30.4-62.1Zm-138.726,4.478L2123.45,930.969l141.036-33.613Zm-162-3.391,20.354-28.3,6.107,16.575Zm27.719-12.11-6.333-17.19,143.55-15.512Zm-97.775,11.657,89.228-28.27-21.245,29.535Zm69.39,1.763,26.817-11.881-9.626,25.4Zm18.376,14.092,9.814-25.9,28.742,27.568Zm.317.831,38.838,1.683-.707,42.916Zm-.619,1.071,38.554,45.092-44.98,22.972Zm-6.077,68.959,45.023-22.994,14.294,47.266Zm59.134,25.185-42.807,20.4-16.41-44.635Zm-99.134,6.851,38.534-31.037,16.413,44.642Zm57.03,14.262,42.946-20.47,33.641,52.882Zm-.7.7,77.644,32.859-115.378,64.853Zm78.391,33.559,31.962,61.459-147.463,3.463Zm29.109,62.342-139.181,34.624-6.457-31.2Zm-184.323,29.652,37.425-25.664,6.355,30.713Zm43.994,5.9,8.351,24.46-51.491-29.435Zm8.423,25.631-55.942,26.921,2.868-57.261Zm-54.72-24.782-2.626,52.428-13.79,10.173Zm-16.768,64.157,13.884-10.242-7.273,39.391Zm92.207-3.409-84.682,35.062,7.894-42.759ZM2042,1260.559l55.773-26.84,20.736,34.509Zm79.085,7.511,30.606-28.414,91.108,8.482Zm125.734-20.236,6.257-17.4L2306.6,1270.2Zm7.184-18.009,178.227-13.814-122.441,55.254Zm57.58,41.653,121.112-54.654-49.448,56.789Zm73.5,1.794,49.369-56.7,16.457,41.778Zm67.728-14.708,81.315-43.691,29.041,89.112Zm23.079,45.04-22.939-43.991,108.96,44.845Zm89.688.675,51.194-50.264,51.193,36.517Zm103.335-14.343L2618,1253.619l71.71-5.982Zm129.937,13.671-107.021-56.391,121.582-41.642Zm13.815-98.718-118.727,40.664,76.071-51.254Zm1.294-.561-41.775-10.371,61.965-7.052Zm20.051-18.237-63.76,7.257L2737.3,1142.98Zm-65.667,6.584-84.464-36.251,51.537-14.074Zm-33.59-51.041-51.692,14.116-19.385-73.576Zm76.45-41.866-74.67,41.068,2.873-47.057Zm-1.647-.96-68.639-5.726,28.142-9Zm-41.6-15.3-28.889,9.236-38.754-50.8Zm.714-.732-69.083-42.447,84.915-3Zm16.031-46.272-85.1,3.008,90.146-64.023Zm3.341-61.852L2655.323,1018.3l-66-47.966Zm-199.768-5.16-27.3-35.1,224.15,39.382ZM2826.056,868.61l-32.385,94.508,22.471-102.777Zm-11.209-8.65-24.885,113.819L2561.6,933.659ZM2558.732,933.44l-71.33,7.3,27.379-64.822Zm-72.62,7.014-72.37-42.688,99.87-22.422Zm27.013-65.871-96.659,21.7,70.043-32.551ZM2484.3,863.725,2412.486,897.1l-65.353-27.813Zm-139.448,5.82,49.964,71.187L2266.65,896.725Zm-80.886,26.911L2115.3,912.521l39.353-89.446Z" transform="translate(-2018.579 -819.36)" fill="url(#linear-gradient)"/>
</svg>
